<?xml version="1.0" encoding="us-ascii" standalone="no"?><svg xmlns="http://www.w3.org/2000/svg" xmlns:xlink="http://www.w3.org/1999/xlink" contentStyleType="text/css" height="469px" preserveAspectRatio="none" style="width:886px;height:469px;background:#FFFFFF;" version="1.1" viewBox="0 0 886 469" width="886px" zoomAndPan="magnify"><defs/><g><rect fill="#DDDDDD" height="16.0938" style="stroke:#000000;stroke-width:1.0;" width="873" x="6" y="6"/><text fill="#000000" font-family="sans-serif" font-size="12" font-weight="bold" lengthAdjust="spacing" textLength="49" x="6" y="18.457">JUSTICA</text><text fill="#000000" font-family="sans-serif" font-size="12" lengthAdjust="spacing" textLength="164" x="58" y="18.457">- Portal Verifikasi KYC Advokat</text><text fill="#000000" font-family="sans-serif" font-size="12" lengthAdjust="spacing" textLength="48" x="232" y="18.457">[ Keluar ]</text><text fill="#000000" font-family="sans-serif" font-size="12" lengthAdjust="spacing" textLength="38" x="290" y="18.457">[ &#9728; / &#9790; ]</text><line style="stroke:#AAAAAA;stroke-width:1.0;" x1="6" x2="879" y1="26.5938" y2="26.5938"/><text fill="#000000" font-family="sans-serif" font-size="13" font-weight="bold" lengthAdjust="spacing" textLength="477" x="7" y="45.5889">VERIFIKASI IDENTITAS &amp; SINKRONISASI LISENSI SIPP MAHKAMAH AGUNG</text><text fill="#000000" font-family="sans-serif" font-size="12" lengthAdjust="spacing" textLength="598" x="10" y="62.9023">Langkah wajib untuk memastikan seluruh advokat yang berpraktik di platform Justica berlisensi aktif dan sah.</text><line style="stroke:#000000;stroke-width:1.0;" x1="8" x2="875" y1="65.5391" y2="65.5391"/><line style="stroke:#000000;stroke-width:1.0;" x1="8" x2="8" y1="62.5391" y2="64.5391"/><line style="stroke:#000000;stroke-width:1.0;" x1="875" x2="875" y1="62.5391" y2="64.5391"/><line style="stroke:#AAAAAA;stroke-width:1.0;" x1="6" x2="879" y1="74.0391" y2="74.0391"/><text fill="#000000" font-family="sans-serif" font-size="12" font-weight="bold" lengthAdjust="spacing" textLength="252" x="7" y="91.9961">1. DATA IDENTITAS &amp; KREDENSIAL ADVOKAT</text><line style="stroke:#AAAAAA;stroke-width:1.0;" x1="7" x2="481" y1="100.1328" y2="100.1328"/><text fill="#000000" font-family="sans-serif" font-size="12" lengthAdjust="spacing" textLength="215" x="7" y="117.0898">Nomor Induk Kependudukan (NIK KTP)</text><text fill="#000000" font-family="sans-serif" font-size="12" lengthAdjust="spacing" textLength="112" x="485" y="117.0898">3171234567890001</text><line style="stroke:#000000;stroke-width:1.0;" x1="483" x2="758" y1="119.7266" y2="119.7266"/><line style="stroke:#000000;stroke-width:1.0;" x1="483" x2="483" y1="116.7266" y2="118.7266"/><line style="stroke:#000000;stroke-width:1.0;" x1="758" x2="758" y1="116.7266" y2="118.7266"/><text fill="#000000" font-family="sans-serif" font-size="12" lengthAdjust="spacing" textLength="185" x="7" y="136.1836">Nomor SIPP Mahkamah Agung RI</text><text fill="#000000" font-family="sans-serif" font-size="12" lengthAdjust="spacing" textLength="113" x="485" y="136.1836">18293/PERADI/2015</text><line style="stroke:#000000;stroke-width:1.0;" x1="483" x2="774" y1="138.8203" y2="138.8203"/><line style="stroke:#000000;stroke-width:1.0;" x1="483" x2="483" y1="135.8203" y2="137.8203"/><line style="stroke:#000000;stroke-width:1.0;" x1="774" x2="774" y1="135.8203" y2="137.8203"/><text fill="#000000" font-family="sans-serif" font-size="12" lengthAdjust="spacing" textLength="163" x="7" y="155.2773">Organisasi Advokat Menaungi</text><rect fill="#EEEEEE" height="18.0938" style="stroke:#000000;stroke-width:1.0;" width="319" x="482" y="142.8203"/><text fill="#000000" font-family="sans-serif" font-size="12" lengthAdjust="spacing" textLength="233" x="484" y="157.2773">PERADI (Perhimpunan Advokat Indonesia)</text><line style="stroke:#000000;stroke-width:1.0;" x1="790" x2="790" y1="142.8203" y2="160.9141"/><polygon fill="#000000" points="793,148.8203,799,148.8203,796,155.9141" style="stroke:#000000;stroke-width:1.0;"/><text fill="#000000" font-family="sans-serif" font-size="12" lengthAdjust="spacing" textLength="184" x="7" y="176.3711">Nomor Rekening Bank Pencairan</text><text fill="#000000" font-family="sans-serif" font-size="12" lengthAdjust="spacing" textLength="185" x="485" y="176.3711">123-00-9876543-2 (Bank Mandiri)</text><line style="stroke:#000000;stroke-width:1.0;" x1="483" x2="774" y1="179.0078" y2="179.0078"/><line style="stroke:#000000;stroke-width:1.0;" x1="483" x2="483" y1="176.0078" y2="178.0078"/><line style="stroke:#000000;stroke-width:1.0;" x1="774" x2="774" y1="176.0078" y2="178.0078"/><line style="stroke:#AAAAAA;stroke-width:1.0;" x1="7" x2="481" y1="186.5078" y2="186.5078"/><text fill="#000000" font-family="sans-serif" font-size="12" font-weight="bold" lengthAdjust="spacing" textLength="306" x="7" y="203.4648">2. UNGGAH DOKUMEN LEGALITAS FISIK TERVERIFIKASI</text><text fill="#000000" font-family="sans-serif" font-size="12" lengthAdjust="spacing" textLength="213" x="7" y="220.5586">Foto Kartu Anggota Organisasi Advokat</text><rect fill="#EEEEEE" height="19.0938" rx="5" ry="5" style="stroke:#000000;stroke-width:2.5;" width="292" x="484.5" y="210.6016"/><text fill="#000000" font-family="sans-serif" font-size="12" lengthAdjust="spacing" textLength="194" x="533.5" y="225.0586">Pilih Berkas JPG/PDF (Max 10MB)...</text><text fill="#000000" font-family="sans-serif" font-size="12" lengthAdjust="spacing" textLength="206" x="7" y="246.6523">Foto Berita Acara Sumpah Advokat PT</text><rect fill="#EEEEEE" height="19.0938" rx="5" ry="5" style="stroke:#000000;stroke-width:2.5;" width="292" x="484.5" y="236.6953"/><text fill="#000000" font-family="sans-serif" font-size="12" lengthAdjust="spacing" textLength="194" x="533.5" y="251.1523">Pilih Berkas JPG/PDF (Max 10MB)...</text><line style="stroke:#AAAAAA;stroke-width:1.0;" x1="7" x2="481" y1="263.7891" y2="263.7891"/><rect fill="#EEEEEE" height="19.0938" rx="5" ry="5" style="stroke:#000000;stroke-width:2.5;" width="468" x="9.5" y="270.7891"/><text fill="#000000" font-family="sans-serif" font-size="12" font-weight="bold" lengthAdjust="spacing" textLength="374" x="56.5" y="285.2461">SINKRONISASIKAN SECARA REAL-TIME KE API MAHKAMAH AGUNG</text><line style="stroke:#AAAAAA;stroke-width:1.0;" x1="6" x2="879" y1="298.8828" y2="298.8828"/><text fill="#000000" font-family="sans-serif" font-size="12" font-weight="bold" lengthAdjust="spacing" textLength="272" x="7" y="316.8398">HASIL SINKRONISASI API MAHKAMAH AGUNG RI:</text><line style="stroke:#AAAAAA;stroke-width:1.0;" x1="7" x2="526" y1="324.9766" y2="324.9766"/><text fill="#000000" font-family="sans-serif" font-size="12" font-weight="bold" lengthAdjust="spacing" textLength="140" x="8" y="342.9336">Parameter Pemeriksaan</text><text fill="#000000" font-family="sans-serif" font-size="12" font-weight="bold" lengthAdjust="spacing" textLength="164" x="169" y="342.9336">Status Pangkalan Data MA RI</text><text fill="#000000" font-family="sans-serif" font-size="12" font-weight="bold" lengthAdjust="spacing" textLength="137" x="379" y="342.9336">Hasil Kepatuhan Justica</text><text fill="#000000" font-family="sans-serif" font-size="12" lengthAdjust="spacing" textLength="109" x="8" y="360.0273">Status Lisensi SIPP</text><text fill="#000000" font-family="sans-serif" font-size="12" font-weight="bold" lengthAdjust="spacing" textLength="178" x="169" y="360.0273">AKTIF &amp; BERLAKU HINGGA 2028</text><rect fill="#EEEEEE" height="19.0938" rx="5" ry="5" style="stroke:#000000;stroke-width:2.5;" width="140" x="381.5" y="350.0703"/><text fill="#008000" font-family="sans-serif" font-size="12" font-weight="bold" lengthAdjust="spacing" textLength="94" x="404.5" y="364.5273">VERIFIED ACTIVE</text><text fill="#000000" font-family="sans-serif" font-size="12" lengthAdjust="spacing" textLength="149" x="8" y="386.1211">Kesesuaian Nama Advokat</text><text fill="#000000" font-family="sans-serif" font-size="12" lengthAdjust="spacing" textLength="183" x="169" y="386.1211">Dr. Mahendra Kusuma, S.H., M.H.</text><rect fill="#EEEEEE" height="19.0938" rx="5" ry="5" style="stroke:#000000;stroke-width:2.5;" width="100" x="381.5" y="376.1641"/><text fill="#008000" font-family="sans-serif" font-size="12" font-weight="bold" lengthAdjust="spacing" textLength="74" x="394.5" y="390.6211">MATCH 100%</text><text fill="#000000" font-family="sans-serif" font-size="12" lengthAdjust="spacing" textLength="159" x="8" y="412.2148">Catatan Pelanggaran Etik MA</text><text fill="#000000" font-family="sans-serif" font-size="12" lengthAdjust="spacing" textLength="208" x="169" y="412.2148">TIDAK ADA CATATAN PELANGGARAN</text><rect fill="#EEEEEE" height="19.0938" rx="5" ry="5" style="stroke:#000000;stroke-width:2.5;" width="116" x="381.5" y="402.2578"/><text fill="#008000" font-family="sans-serif" font-size="12" font-weight="bold" lengthAdjust="spacing" textLength="89" x="395" y="416.7148">CLEAN RECORD</text><line style="stroke:#000000;stroke-width:1.0;" x1="7" x2="168" y1="329.4766" y2="329.4766"/><line style="stroke:#000000;stroke-width:1.0;" x1="378" x2="525" y1="372.6641" y2="372.6641"/><line style="stroke:#000000;stroke-width:1.0;" x1="168" x2="378" y1="329.4766" y2="329.4766"/><line style="stroke:#000000;stroke-width:1.0;" x1="378" x2="525" y1="329.4766" y2="329.4766"/><line style="stroke:#000000;stroke-width:1.0;" x1="7" x2="168" y1="398.7578" y2="398.7578"/><line style="stroke:#000000;stroke-width:1.0;" x1="168" x2="378" y1="398.7578" y2="398.7578"/><line style="stroke:#000000;stroke-width:1.0;" x1="7" x2="168" y1="346.5703" y2="346.5703"/><line style="stroke:#000000;stroke-width:1.0;" x1="378" x2="525" y1="398.7578" y2="398.7578"/><line style="stroke:#000000;stroke-width:1.0;" x1="168" x2="378" y1="346.5703" y2="346.5703"/><line style="stroke:#000000;stroke-width:1.0;" x1="378" x2="525" y1="346.5703" y2="346.5703"/><line style="stroke:#000000;stroke-width:1.0;" x1="7" x2="168" y1="424.8516" y2="424.8516"/><line style="stroke:#000000;stroke-width:1.0;" x1="168" x2="378" y1="424.8516" y2="424.8516"/><line style="stroke:#000000;stroke-width:1.0;" x1="378" x2="525" y1="424.8516" y2="424.8516"/><line style="stroke:#000000;stroke-width:1.0;" x1="7" x2="168" y1="372.6641" y2="372.6641"/><line style="stroke:#000000;stroke-width:1.0;" x1="168" x2="378" y1="372.6641" y2="372.6641"/><line style="stroke:#000000;stroke-width:1.0;" x1="7" x2="7" y1="329.4766" y2="346.5703"/><line style="stroke:#000000;stroke-width:1.0;" x1="378" x2="378" y1="372.6641" y2="398.7578"/><line style="stroke:#000000;stroke-width:1.0;" x1="525" x2="525" y1="372.6641" y2="398.7578"/><line style="stroke:#000000;stroke-width:1.0;" x1="168" x2="168" y1="329.4766" y2="346.5703"/><line style="stroke:#000000;stroke-width:1.0;" x1="378" x2="378" y1="329.4766" y2="346.5703"/><line style="stroke:#000000;stroke-width:1.0;" x1="525" x2="525" y1="329.4766" y2="346.5703"/><line style="stroke:#000000;stroke-width:1.0;" x1="7" x2="7" y1="398.7578" y2="424.8516"/><line style="stroke:#000000;stroke-width:1.0;" x1="168" x2="168" y1="398.7578" y2="424.8516"/><line style="stroke:#000000;stroke-width:1.0;" x1="7" x2="7" y1="346.5703" y2="372.6641"/><line style="stroke:#000000;stroke-width:1.0;" x1="378" x2="378" y1="398.7578" y2="424.8516"/><line style="stroke:#000000;stroke-width:1.0;" x1="525" x2="525" y1="398.7578" y2="424.8516"/><line style="stroke:#000000;stroke-width:1.0;" x1="168" x2="168" y1="346.5703" y2="372.6641"/><line style="stroke:#000000;stroke-width:1.0;" x1="378" x2="378" y1="346.5703" y2="372.6641"/><line style="stroke:#000000;stroke-width:1.0;" x1="525" x2="525" y1="346.5703" y2="372.6641"/><line style="stroke:#000000;stroke-width:1.0;" x1="7" x2="7" y1="372.6641" y2="398.7578"/><line style="stroke:#000000;stroke-width:1.0;" x1="168" x2="168" y1="372.6641" y2="398.7578"/><line style="stroke:#AAAAAA;stroke-width:1.0;" x1="6" x2="879" y1="431.3516" y2="431.3516"/><rect fill="#EEEEEE" height="19.0938" rx="5" ry="5" style="stroke:#000000;stroke-width:2.5;" width="412" x="9.5" y="439.3516"/><text fill="#000000" font-family="sans-serif" font-size="12" font-weight="bold" lengthAdjust="spacing" textLength="339" x="46" y="453.8086">SELESAIKAN ONBOARDING &amp; MASUK KE COMMAND CENTER</text><line style="stroke:#000000;stroke-width:1.0;" x1="5" x2="879" y1="5" y2="5"/><line style="stroke:#000000;stroke-width:1.0;" x1="5" x2="879" y1="462.9453" y2="462.9453"/><line style="stroke:#000000;stroke-width:1.0;" x1="5" x2="5" y1="5" y2="22.0938"/><line style="stroke:#000000;stroke-width:1.0;" x1="879" x2="879" y1="5" y2="22.0938"/><line style="stroke:#000000;stroke-width:1.0;" x1="5" x2="5" y1="426.8516" y2="434.8516"/><line style="stroke:#000000;stroke-width:1.0;" x1="879" x2="879" y1="426.8516" y2="434.8516"/><line style="stroke:#000000;stroke-width:1.0;" x1="5" x2="5" y1="294.3828" y2="302.3828"/><line style="stroke:#000000;stroke-width:1.0;" x1="879" x2="879" y1="294.3828" y2="302.3828"/><line style="stroke:#000000;stroke-width:1.0;" x1="5" x2="5" y1="69.5391" y2="77.5391"/><line style="stroke:#000000;stroke-width:1.0;" x1="879" x2="879" y1="69.5391" y2="77.5391"/><line style="stroke:#000000;stroke-width:1.0;" x1="5" x2="5" y1="22.0938" y2="30.0938"/><line style="stroke:#000000;stroke-width:1.0;" x1="879" x2="879" y1="22.0938" y2="30.0938"/><line style="stroke:#000000;stroke-width:1.0;" x1="5" x2="5" y1="434.8516" y2="462.9453"/><line style="stroke:#000000;stroke-width:1.0;" x1="879" x2="879" y1="434.8516" y2="462.9453"/><line style="stroke:#000000;stroke-width:1.0;" x1="5" x2="5" y1="302.3828" y2="426.8516"/><line style="stroke:#000000;stroke-width:1.0;" x1="879" x2="879" y1="302.3828" y2="426.8516"/><line style="stroke:#000000;stroke-width:1.0;" x1="5" x2="5" y1="77.5391" y2="294.3828"/><line style="stroke:#000000;stroke-width:1.0;" x1="879" x2="879" y1="77.5391" y2="294.3828"/><line style="stroke:#000000;stroke-width:1.0;" x1="5" x2="5" y1="30.0938" y2="69.5391"/><line style="stroke:#000000;stroke-width:1.0;" x1="879" x2="879" y1="30.0938" y2="69.5391"/><!--SRC=[bLNhRk965FxlfpZAgXLi5sCkkQ4asi4UOF05opPKLRGh3J21MR0TZUsqgoHI7wDFquVfa_JOSIwRf3-AXB6PCz_vpdU-C_wSvLpb6T_dskql6i3jHpXRNapdOSHCSjPUNa0B_5JbV0yBeUILtF5CWlsR2MHza-vu3dTm2RRO5rp1b-hXdx_-X3PU_yRdUuHijKfS_0ASdv_3WWPin6mICc0MzI8MaH1-Xf1vTZ3pM5WkE2oa7lw6pFV19HERu0N8UEwDAvm3XoUR7T_2x_oRN4AHvCKEOX7pB4U22MJ8HnLRu3N7xnWEIw6k5TzX1AmbNEzvVfMg6AO5RbhnSdalCv5WUMNG5QnB8BxL3p3bgpfGeeuE5ed83pNO0RLAtiG1OYrcDebA1QiTrMO0BurJ1InP8rzRN0kymLjCrF2O3NRaDr72WrxdkDFjzG-FZazE3SFem9lFmGkq1v7uTiTZL8Hi2gmrO7KWedLEkgUzjay3Oh5sr-WSmd_XpTI69p8hE_pONLSa704bFE5zVK22XY_KLiRNHOBq7yEniZGHcUJDhoyO1c8d4ecqXZpPWI-I5PSATpqnxFPQXj4wFJa-EkptMbreL84kJzPIoUOBXhMCg7zN1tJ366rXpUovIprmw9WuLIT6B4Gr8neyU-sf4QCqJy56pnT0aiqcpVbxPPS-zkLURc4e55eUflwuxLiZQBZy3-WOxh2fwpfyUOR4E8bOPCKLXx28hyjUr6X-LDNvFo3hEY-hKb-EXaqy2Ab90W819KuhOYu5cmBnsQj1gOQtWdjhtWaYEJ-Et5i0DD7WjNzlFsWFNKCG7okDHIuKTZJ6wdSPvqcLzQvYdVEyoC2l9dMFtROuwkCYR_OSD47Hz-KaOEmMO-fXV4eBKCCuzMXMPdys8q8GEs8Z7BuX3HnYps72Ibj0r-YUr7akuMoLxbCrs2WXaWlSy-0BQW4n8xQWPTnPkugvg1i0I2eJMS4bil9mifwQ-P3OKdevSpZ0s6wxo8gOVu9Gd-YVmCKhl9lM9P4vmLORFxsRqKI1Sapd2vHhi-7bYD3ok4BHxY1Y5h7nN25WuhaJeGzywf2orW3lQrflSveEnUM0chF0UYVh_Lj_rAQZ3Wr9vRUPDvoHm49TKMQNX7ExT9mvSrtYMM3Y-KU3bswxrpwZBjKxHVEnb7pkEd0ZL2RJ13ewTgQlzneZ9M4abj0v0gCxw1i3un1-PSEoSVscrXZxpaqNihHGAu7dTPOhkInoH6XgKtx38S13NyPY03CyHQUM_VW7qEH6gZI9HP9hquNx773KRmrb3g5Go0KMhcQ9ArxiSzonIjTuF0rW7erQ9rhvSYdu1h55efafughlk1R-2m00]--></g></svg>