<?xml version="1.0" encoding="us-ascii" standalone="no"?><svg xmlns="http://www.w3.org/2000/svg" xmlns:xlink="http://www.w3.org/1999/xlink" contentStyleType="text/css" height="1552px" preserveAspectRatio="none" style="width:2367px;height:1552px;background:#FFFFFF;" version="1.1" viewBox="0 0 2367 1552" width="2367px" zoomAndPan="magnify"><defs/><g><rect fill="none" height="22.6406" style="stroke:none;stroke-width:1.0;" width="2334.25" x="15" y="12.4551"/><ellipse cx="428.75" cy="50.0957" fill="#222222" rx="10" ry="10" style="stroke:#222222;stroke-width:1.0;"/><rect fill="#F1F1F1" height="35.0938" rx="12.5" ry="12.5" style="stroke:#181818;stroke-width:0.5;" width="212" x="322.75" y="80.0957"/><text fill="#000000" font-family="sans-serif" font-size="12" lengthAdjust="spacing" textLength="192" x="332.75" y="102.5527">Membuka halaman "Tebus Resep"</text><rect fill="#F1F1F1" height="35.0938" rx="12.5" ry="12.5" style="stroke:#181818;stroke-width:0.5;" width="201" x="328.25" y="190.2832"/><text fill="#000000" font-family="sans-serif" font-size="12" lengthAdjust="spacing" textLength="181" x="338.25" y="212.7402">Memilih resep yang ingin ditebus</text><rect fill="#F1F1F1" height="35.0938" rx="12.5" ry="12.5" style="stroke:#181818;stroke-width:0.5;" width="180" x="123.75" y="1076.2871"/><text fill="#000000" font-family="sans-serif" font-size="12" lengthAdjust="spacing" textLength="160" x="133.75" y="1098.7441">Memilih metode pembayaran</text><rect fill="#F1F1F1" height="35.0938" rx="12.5" ry="12.5" style="stroke:#181818;stroke-width:0.5;" width="198" x="114.75" y="1131.3809"/><text fill="#000000" font-family="sans-serif" font-size="12" lengthAdjust="spacing" textLength="178" x="124.75" y="1153.8379">Melakukan pembayaran (UC-05)</text><rect fill="#F1F1F1" height="35.0938" rx="12.5" ry="12.5" style="stroke:#181818;stroke-width:0.5;" width="170" x="21" y="1285.5684"/><text fill="#000000" font-family="sans-serif" font-size="12" lengthAdjust="spacing" textLength="150" x="31" y="1308.0254">Mengisi alamat pengiriman</text><rect fill="#F1F1F1" height="35.0938" rx="12.5" ry="12.5" style="stroke:#181818;stroke-width:0.5;" width="196" x="544.75" y="399.5645"/><text fill="#000000" font-family="sans-serif" font-size="12" lengthAdjust="spacing" textLength="176" x="554.75" y="422.0215">Diarahkan menghubungi Dokter</text><ellipse cx="428.75" cy="1529.8496" fill="none" rx="11" ry="11" style="stroke:#222222;stroke-width:1.0;"/><ellipse cx="428.75" cy="1529.8496" fill="#222222" rx="6" ry="6" style="stroke:#222222;stroke-width:1.0;"/><line style="stroke:#000000;stroke-width:1.5;" x1="15" x2="15" y1="12.4551" y2="1540.8496"/><rect fill="#F1F1F1" height="35.0938" rx="12.5" ry="12.5" style="stroke:#181818;stroke-width:0.5;" width="188" x="1074.375" y="135.1895"/><text fill="#000000" font-family="sans-serif" font-size="12" lengthAdjust="spacing" textLength="168" x="1084.375" y="157.6465">Menampilkan daftar resep aktif</text><rect fill="#F1F1F1" height="35.0938" rx="12.5" ry="12.5" style="stroke:#181818;stroke-width:0.5;" width="285" x="1025.875" y="245.377"/><text fill="#000000" font-family="sans-serif" font-size="12" lengthAdjust="spacing" textLength="265" x="1035.875" y="267.834">Memvalidasi format resep (Permenkes 73/2016)</text><polygon fill="#F1F1F1" points="1120.875,300.4707,1215.875,300.4707,1227.875,312.4707,1215.875,324.4707,1120.875,324.4707,1108.875,312.4707,1120.875,300.4707" style="stroke:#181818;stroke-width:0.5;"/><text fill="#000000" font-family="sans-serif" font-size="11" lengthAdjust="spacing" textLength="95" x="1120.875" y="316.9717">Format resep valid?</text><text fill="#000000" font-family="sans-serif" font-size="11" lengthAdjust="spacing" textLength="12" x="1096.875" y="310.0537">ya</text><text fill="#000000" font-family="sans-serif" font-size="11" lengthAdjust="spacing" textLength="22" x="1227.875" y="310.0537">tidak</text><rect fill="#F1F1F1" height="35.0938" rx="12.5" ry="12.5" style="stroke:#181818;stroke-width:0.5;" width="239" x="828.5" y="344.4707"/><text fill="#000000" font-family="sans-serif" font-size="12" lengthAdjust="spacing" textLength="219" x="838.5" y="366.9277">Mengirim data resep ke SIA Apotek Mitra</text><rect fill="#F1F1F1" height="35.0938" rx="12.5" ry="12.5" style="stroke:#181818;stroke-width:0.5;" width="128" x="884" y="668.8574"/><text fill="#000000" font-family="sans-serif" font-size="12" lengthAdjust="spacing" textLength="108" x="894" y="691.3145">Memperbarui resep</text><rect fill="#F1F1F1" height="35.0938" rx="12.5" ry="12.5" style="stroke:#181818;stroke-width:0.5;" width="206" x="845" y="1021.1934"/><text fill="#000000" font-family="sans-serif" font-size="12" lengthAdjust="spacing" textLength="186" x="855" y="1043.6504">Menampilkan rincian obat + harga</text><polygon fill="#F1F1F1" points="894.5,1186.4746,1001.5,1186.4746,1013.5,1198.4746,1001.5,1210.4746,894.5,1210.4746,882.5,1198.4746,894.5,1186.4746" style="stroke:#181818;stroke-width:0.5;"/><text fill="#000000" font-family="sans-serif" font-size="11" lengthAdjust="spacing" textLength="107" x="894.5" y="1202.9756">Pembayaran berhasil?</text><text fill="#000000" font-family="sans-serif" font-size="11" lengthAdjust="spacing" textLength="12" x="870.5" y="1196.0576">ya</text><text fill="#000000" font-family="sans-serif" font-size="11" lengthAdjust="spacing" textLength="22" x="1013.5" y="1196.0576">tidak</text><rect fill="#F1F1F1" height="35.0938" rx="12.5" ry="12.5" style="stroke:#181818;stroke-width:0.5;" width="158" x="761.25" y="1230.4746"/><text fill="#000000" font-family="sans-serif" font-size="12" lengthAdjust="spacing" textLength="138" x="771.25" y="1252.9316">Mengonfirmasi ke Apotek</text><rect fill="#F1F1F1" height="35.0938" rx="12.5" ry="12.5" style="stroke:#181818;stroke-width:0.5;" width="179" x="750.75" y="1395.7559"/><text fill="#000000" font-family="sans-serif" font-size="12" lengthAdjust="spacing" textLength="159" x="760.75" y="1418.2129">Mengirim notifikasi + tracking</text><rect fill="#F1F1F1" height="35.0938" rx="12.5" ry="12.5" style="stroke:#181818;stroke-width:0.5;" width="183" x="964.25" y="1230.4746"/><text fill="#000000" font-family="sans-serif" font-size="12" lengthAdjust="spacing" textLength="163" x="974.25" y="1252.9316">Membatalkan transaksi resep</text><rect fill="#F1F1F1" height="35.0938" rx="12.5" ry="12.5" style="stroke:#181818;stroke-width:0.5;" width="212" x="949.75" y="1285.5684"/><text fill="#000000" font-family="sans-serif" font-size="12" lengthAdjust="spacing" textLength="192" x="959.75" y="1308.0254">Resep dikembalikan ke status aktif</text><polygon fill="#F1F1F1" points="948,1440.8496,960,1452.8496,948,1464.8496,936,1452.8496,948,1440.8496" style="stroke:#181818;stroke-width:0.5;"/><rect fill="#F1F1F1" height="35.0938" rx="12.5" ry="12.5" style="stroke:#181818;stroke-width:0.5;" width="196" x="1290.75" y="344.4707"/><text fill="#000000" font-family="sans-serif" font-size="12" lengthAdjust="spacing" textLength="176" x="1300.75" y="366.9277">Menampilkan error format resep</text><polygon fill="#F1F1F1" points="1168.375,1474.8496,1180.375,1486.8496,1168.375,1498.8496,1156.375,1486.8496,1168.375,1474.8496" style="stroke:#181818;stroke-width:0.5;"/><line style="stroke:#000000;stroke-width:1.5;" x1="744.75" x2="744.75" y1="12.4551" y2="1540.8496"/><rect fill="#F1F1F1" height="35.0938" rx="12.5" ry="12.5" style="stroke:#181818;stroke-width:0.5;" width="205" x="1738.5" y="399.5645"/><text fill="#000000" font-family="sans-serif" font-size="12" lengthAdjust="spacing" textLength="185" x="1748.5" y="422.0215">Menerima dan memproses resep</text><rect fill="#F1F1F1" height="35.0938" rx="12.5" ry="12.5" style="stroke:#181818;stroke-width:0.5;" width="307" x="1687.5" y="454.6582"/><text fill="#000000" font-family="sans-serif" font-size="12" lengthAdjust="spacing" textLength="287" x="1697.5" y="477.1152">Melakukan cek interaksi obat (Drug-Drug Interaction)</text><rect fill="#F1F1F1" height="35.0938" rx="12.5" ry="12.5" style="stroke:#181818;stroke-width:0.5;" width="232" x="1725" y="558.6699"/><text fill="#000000" font-family="sans-serif" font-size="12" lengthAdjust="spacing" textLength="212" x="1735" y="581.127">Mengirim alert ke Dokter penulis resep</text><polygon fill="#F1F1F1" points="1792,509.752,1890,509.752,1902,521.752,1890,533.752,1792,533.752,1780,521.752,1792,509.752" style="stroke:#181818;stroke-width:0.5;"/><text fill="#000000" font-family="sans-serif" font-size="11" lengthAdjust="spacing" textLength="12" x="1845" y="545.1709">ya</text><text fill="#000000" font-family="sans-serif" font-size="11" lengthAdjust="spacing" textLength="98" x="1792" y="526.2529">Ada interaksi Major?</text><text fill="#000000" font-family="sans-serif" font-size="11" lengthAdjust="spacing" textLength="22" x="1902" y="519.335">tidak</text><polygon fill="#F1F1F1" points="1841,723.9512,1853,735.9512,1841,747.9512,1829,735.9512,1841,723.9512" style="stroke:#181818;stroke-width:0.5;"/><polygon fill="#F1F1F1" points="1736.5,767.9512,1945.5,767.9512,1957.5,779.9512,1945.5,791.9512,1736.5,791.9512,1724.5,779.9512,1736.5,767.9512" style="stroke:#181818;stroke-width:0.5;"/><text fill="#000000" font-family="sans-serif" font-size="11" lengthAdjust="spacing" textLength="209" x="1736.5" y="784.4521">Resep mengandung Narkotika/Psikotropika?</text><text fill="#000000" font-family="sans-serif" font-size="11" lengthAdjust="spacing" textLength="12" x="1712.5" y="777.5342">ya</text><text fill="#000000" font-family="sans-serif" font-size="11" lengthAdjust="spacing" textLength="22" x="1957.5" y="777.5342">tidak</text><path d="M1745.75,801.9512 L1745.75,827.4785 L1725.75,831.4785 L1745.75,835.4785 L1745.75,861.0059 A0,0 0 0 0 1745.75,861.0059 L1967.75,861.0059 A0,0 0 0 0 1967.75,861.0059 L1967.75,811.9512 L1957.75,801.9512 L1745.75,801.9512 A0,0 0 0 0 1745.75,801.9512 " fill="#FEFFDD" style="stroke:#181818;stroke-width:0.5;"/><path d="M1957.75,801.9512 L1957.75,811.9512 L1967.75,811.9512 L1957.75,801.9512 " fill="#FEFFDD" style="stroke:#181818;stroke-width:0.5;"/><text fill="#000000" font-family="sans-serif" font-size="13" lengthAdjust="spacing" textLength="201" x="1751.75" y="820.4463">3 rangkap: Apotek, Pasien, BPOM</text><text fill="#000000" font-family="sans-serif" font-size="13" lengthAdjust="spacing" textLength="172" x="1751.75" y="836.7979">Validasi SIP Narkotika Dokter</text><text fill="#000000" font-family="sans-serif" font-size="13" lengthAdjust="spacing" textLength="113" x="1751.75" y="853.1494">Log ke sistem BNN</text><rect fill="#F1F1F1" height="35.0938" rx="12.5" ry="12.5" style="stroke:#181818;stroke-width:0.5;" width="229" x="1496.75" y="813.9316"/><text fill="#000000" font-family="sans-serif" font-size="12" lengthAdjust="spacing" textLength="209" x="1506.75" y="836.3887">Menerapkan workflow Controlled Drug</text><rect fill="#F1F1F1" height="35.0938" rx="12.5" ry="12.5" style="stroke:#181818;stroke-width:0.5;" width="203" x="1509.75" y="881.0059"/><text fill="#000000" font-family="sans-serif" font-size="12" lengthAdjust="spacing" textLength="183" x="1519.75" y="903.4629">Memvalidasi SIP Narkotika dokter</text><rect fill="#F1F1F1" height="35.0938" rx="12.5" ry="12.5" style="stroke:#181818;stroke-width:0.5;" width="165" x="1528.75" y="936.0996"/><text fill="#000000" font-family="sans-serif" font-size="12" lengthAdjust="spacing" textLength="145" x="1538.75" y="958.5566">Mencetak resep 3 rangkap</text><rect fill="#F1F1F1" height="35.0938" rx="12.5" ry="12.5" style="stroke:#181818;stroke-width:0.5;" width="166" x="1987.75" y="801.9512"/><text fill="#000000" font-family="sans-serif" font-size="12" lengthAdjust="spacing" textLength="146" x="1997.75" y="824.4082">Memproses resep standar</text><polygon fill="#F1F1F1" points="1841,977.1934,1853,989.1934,1841,1001.1934,1829,989.1934,1841,977.1934" style="stroke:#181818;stroke-width:0.5;"/><rect fill="#F1F1F1" height="35.0938" rx="12.5" ry="12.5" style="stroke:#181818;stroke-width:0.5;" width="179" x="1643.75" y="1340.6621"/><text fill="#000000" font-family="sans-serif" font-size="12" lengthAdjust="spacing" textLength="159" x="1653.75" y="1363.1191">Memproses pengiriman obat</text><line style="stroke:#000000;stroke-width:1.5;" x1="1490.75" x2="1490.75" y1="12.4551" y2="1540.8496"/><rect fill="#F1F1F1" height="35.0938" rx="12.5" ry="12.5" style="stroke:#181818;stroke-width:0.5;" width="180" x="2163.75" y="613.7637"/><text fill="#000000" font-family="sans-serif" font-size="12" lengthAdjust="spacing" textLength="160" x="2173.75" y="636.2207">Mereview dan merevisi resep</text><line style="stroke:#000000;stroke-width:1.5;" x1="2157.75" x2="2157.75" y1="12.4551" y2="1540.8496"/><line style="stroke:#000000;stroke-width:1.5;" x1="2347.75" x2="2347.75" y1="12.4551" y2="1540.8496"/><line style="stroke:#181818;stroke-width:1.0;" x1="428.75" x2="428.75" y1="60.0957" y2="80.0957"/><polygon fill="#181818" points="424.75,70.0957,428.75,80.0957,432.75,70.0957,428.75,74.0957" style="stroke:#181818;stroke-width:1.0;"/><line style="stroke:#181818;stroke-width:1.0;" x1="213.75" x2="213.75" y1="1111.3809" y2="1131.3809"/><polygon fill="#181818" points="209.75,1121.3809,213.75,1131.3809,217.75,1121.3809,213.75,1125.3809" style="stroke:#181818;stroke-width:1.0;"/><line style="stroke:#181818;stroke-width:1.0;" x1="1055.75" x2="1055.75" y1="1265.5684" y2="1285.5684"/><polygon fill="#181818" points="1051.75,1275.5684,1055.75,1285.5684,1059.75,1275.5684,1055.75,1279.5684" style="stroke:#181818;stroke-width:1.0;"/><line style="stroke:#181818;stroke-width:1.0;" x1="882.5" x2="840.25" y1="1198.4746" y2="1198.4746"/><line style="stroke:#181818;stroke-width:1.0;" x1="840.25" x2="840.25" y1="1198.4746" y2="1230.4746"/><polygon fill="#181818" points="836.25,1220.4746,840.25,1230.4746,844.25,1220.4746,840.25,1224.4746" style="stroke:#181818;stroke-width:1.0;"/><line style="stroke:#181818;stroke-width:1.0;" x1="1013.5" x2="1055.75" y1="1198.4746" y2="1198.4746"/><line style="stroke:#181818;stroke-width:1.0;" x1="1055.75" x2="1055.75" y1="1198.4746" y2="1230.4746"/><polygon fill="#181818" points="1051.75,1220.4746,1055.75,1230.4746,1059.75,1220.4746,1055.75,1224.4746" style="stroke:#181818;stroke-width:1.0;"/><line style="stroke:#181818;stroke-width:1.0;" x1="840.25" x2="840.25" y1="1430.8496" y2="1452.8496"/><line style="stroke:#181818;stroke-width:1.0;" x1="840.25" x2="936" y1="1452.8496" y2="1452.8496"/><polygon fill="#181818" points="926,1448.8496,936,1452.8496,926,1456.8496,930,1452.8496" style="stroke:#181818;stroke-width:1.0;"/><line style="stroke:#181818;stroke-width:1.0;" x1="1055.75" x2="1055.75" y1="1320.6621" y2="1452.8496"/><line style="stroke:#181818;stroke-width:1.0;" x1="1055.75" x2="960" y1="1452.8496" y2="1452.8496"/><polygon fill="#181818" points="970,1448.8496,960,1452.8496,970,1456.8496,966,1452.8496" style="stroke:#181818;stroke-width:1.0;"/><line style="stroke:#181818;stroke-width:1.0;" x1="1108.875" x2="948" y1="312.4707" y2="312.4707"/><line style="stroke:#181818;stroke-width:1.0;" x1="948" x2="948" y1="312.4707" y2="344.4707"/><polygon fill="#181818" points="944,334.4707,948,344.4707,952,334.4707,948,338.4707" style="stroke:#181818;stroke-width:1.0;"/><line style="stroke:#181818;stroke-width:1.0;" x1="1227.875" x2="1388.75" y1="312.4707" y2="312.4707"/><line style="stroke:#181818;stroke-width:1.0;" x1="1388.75" x2="1388.75" y1="312.4707" y2="344.4707"/><polygon fill="#181818" points="1384.75,334.4707,1388.75,344.4707,1392.75,334.4707,1388.75,338.4707" style="stroke:#181818;stroke-width:1.0;"/><line style="stroke:#181818;stroke-width:1.0;" x1="948" x2="948" y1="1464.8496" y2="1486.8496"/><line style="stroke:#181818;stroke-width:1.0;" x1="948" x2="1156.375" y1="1486.8496" y2="1486.8496"/><polygon fill="#181818" points="1146.375,1482.8496,1156.375,1486.8496,1146.375,1490.8496,1150.375,1486.8496" style="stroke:#181818;stroke-width:1.0;"/><line style="stroke:#181818;stroke-width:1.0;" x1="1168.375" x2="1168.375" y1="280.4707" y2="300.4707"/><polygon fill="#181818" points="1164.375,290.4707,1168.375,300.4707,1172.375,290.4707,1168.375,294.4707" style="stroke:#181818;stroke-width:1.0;"/><line style="stroke:#181818;stroke-width:1.0;" x1="1841" x2="1841" y1="434.6582" y2="454.6582"/><polygon fill="#181818" points="1837,444.6582,1841,454.6582,1845,444.6582,1841,448.6582" style="stroke:#181818;stroke-width:1.0;"/><line style="stroke:#181818;stroke-width:1.0;" x1="1841" x2="1841" y1="533.752" y2="558.6699"/><polygon fill="#181818" points="1837,548.6699,1841,558.6699,1845,548.6699,1841,552.6699" style="stroke:#181818;stroke-width:1.0;"/><line style="stroke:#181818;stroke-width:1.0;" x1="1902" x2="1967" y1="521.752" y2="521.752"/><polygon fill="#181818" points="1963,621.3105,1967,631.3105,1971,621.3105,1967,625.3105" style="stroke:#181818;stroke-width:1.0;"/><line style="stroke:#181818;stroke-width:1.0;" x1="1967" x2="1967" y1="521.752" y2="735.9512"/><line style="stroke:#181818;stroke-width:1.0;" x1="1967" x2="1853" y1="735.9512" y2="735.9512"/><polygon fill="#181818" points="1863,731.9512,1853,735.9512,1863,739.9512,1859,735.9512" style="stroke:#181818;stroke-width:1.0;"/><line style="stroke:#181818;stroke-width:1.0;" x1="1841" x2="1841" y1="489.752" y2="509.752"/><polygon fill="#181818" points="1837,499.752,1841,509.752,1845,499.752,1841,503.752" style="stroke:#181818;stroke-width:1.0;"/><line style="stroke:#181818;stroke-width:1.0;" x1="1611.25" x2="1611.25" y1="849.0254" y2="881.0059"/><polygon fill="#181818" points="1607.25,871.0059,1611.25,881.0059,1615.25,871.0059,1611.25,875.0059" style="stroke:#181818;stroke-width:1.0;"/><line style="stroke:#181818;stroke-width:1.0;" x1="1611.25" x2="1611.25" y1="916.0996" y2="936.0996"/><polygon fill="#181818" points="1607.25,926.0996,1611.25,936.0996,1615.25,926.0996,1611.25,930.0996" style="stroke:#181818;stroke-width:1.0;"/><line style="stroke:#181818;stroke-width:1.0;" x1="1724.5" x2="1611.25" y1="779.9512" y2="779.9512"/><line style="stroke:#181818;stroke-width:1.0;" x1="1611.25" x2="1611.25" y1="779.9512" y2="813.9316"/><polygon fill="#181818" points="1607.25,803.9316,1611.25,813.9316,1615.25,803.9316,1611.25,807.9316" style="stroke:#181818;stroke-width:1.0;"/><line style="stroke:#181818;stroke-width:1.0;" x1="1957.5" x2="2070.75" y1="779.9512" y2="779.9512"/><line style="stroke:#181818;stroke-width:1.0;" x1="2070.75" x2="2070.75" y1="779.9512" y2="801.9512"/><polygon fill="#181818" points="2066.75,791.9512,2070.75,801.9512,2074.75,791.9512,2070.75,795.9512" style="stroke:#181818;stroke-width:1.0;"/><line style="stroke:#181818;stroke-width:1.0;" x1="1611.25" x2="1611.25" y1="971.1934" y2="989.1934"/><line style="stroke:#181818;stroke-width:1.0;" x1="1611.25" x2="1829" y1="989.1934" y2="989.1934"/><polygon fill="#181818" points="1819,985.1934,1829,989.1934,1819,993.1934,1823,989.1934" style="stroke:#181818;stroke-width:1.0;"/><line style="stroke:#181818;stroke-width:1.0;" x1="2070.75" x2="2070.75" y1="837.0449" y2="989.1934"/><line style="stroke:#181818;stroke-width:1.0;" x1="2070.75" x2="1853" y1="989.1934" y2="989.1934"/><polygon fill="#181818" points="1863,985.1934,1853,989.1934,1863,993.1934,1859,989.1934" style="stroke:#181818;stroke-width:1.0;"/><line style="stroke:#181818;stroke-width:1.0;" x1="1841" x2="1841" y1="747.9512" y2="767.9512"/><polygon fill="#181818" points="1837,757.9512,1841,767.9512,1845,757.9512,1841,761.9512" style="stroke:#181818;stroke-width:1.0;"/><line style="stroke:#181818;stroke-width:1.0;" x1="428.75" x2="428.75" y1="115.1895" y2="120.1895"/><line style="stroke:#181818;stroke-width:1.0;" x1="428.75" x2="1168.375" y1="120.1895" y2="120.1895"/><line style="stroke:#181818;stroke-width:1.0;" x1="1168.375" x2="1168.375" y1="120.1895" y2="135.1895"/><polygon fill="#181818" points="1164.375,125.1895,1168.375,135.1895,1172.375,125.1895,1168.375,129.1895" style="stroke:#181818;stroke-width:1.0;"/><line style="stroke:#181818;stroke-width:1.0;" x1="1168.375" x2="1168.375" y1="170.2832" y2="175.2832"/><line style="stroke:#181818;stroke-width:1.0;" x1="1168.375" x2="428.75" y1="175.2832" y2="175.2832"/><line style="stroke:#181818;stroke-width:1.0;" x1="428.75" x2="428.75" y1="175.2832" y2="190.2832"/><polygon fill="#181818" points="424.75,180.2832,428.75,190.2832,432.75,180.2832,428.75,184.2832" style="stroke:#181818;stroke-width:1.0;"/><line style="stroke:#181818;stroke-width:1.0;" x1="428.75" x2="428.75" y1="225.377" y2="230.377"/><line style="stroke:#181818;stroke-width:1.0;" x1="428.75" x2="1168.375" y1="230.377" y2="230.377"/><line style="stroke:#181818;stroke-width:1.0;" x1="1168.375" x2="1168.375" y1="230.377" y2="245.377"/><polygon fill="#181818" points="1164.375,235.377,1168.375,245.377,1172.375,235.377,1168.375,239.377" style="stroke:#181818;stroke-width:1.0;"/><line style="stroke:#181818;stroke-width:1.0;" x1="948" x2="948" y1="379.5645" y2="384.5645"/><line style="stroke:#181818;stroke-width:1.0;" x1="948" x2="1841" y1="384.5645" y2="384.5645"/><line style="stroke:#181818;stroke-width:1.0;" x1="1841" x2="1841" y1="384.5645" y2="399.5645"/><polygon fill="#181818" points="1837,389.5645,1841,399.5645,1845,389.5645,1841,393.5645" style="stroke:#181818;stroke-width:1.0;"/><line style="stroke:#181818;stroke-width:1.0;" x1="1841" x2="1841" y1="593.7637" y2="598.7637"/><line style="stroke:#181818;stroke-width:1.0;" x1="1841" x2="2253.75" y1="598.7637" y2="598.7637"/><line style="stroke:#181818;stroke-width:1.0;" x1="2253.75" x2="2253.75" y1="598.7637" y2="613.7637"/><polygon fill="#181818" points="2249.75,603.7637,2253.75,613.7637,2257.75,603.7637,2253.75,607.7637" style="stroke:#181818;stroke-width:1.0;"/><line style="stroke:#181818;stroke-width:1.0;" x1="2253.75" x2="2253.75" y1="648.8574" y2="653.8574"/><line style="stroke:#181818;stroke-width:1.0;" x1="2253.75" x2="948" y1="653.8574" y2="653.8574"/><line style="stroke:#181818;stroke-width:1.0;" x1="948" x2="948" y1="653.8574" y2="668.8574"/><polygon fill="#181818" points="944,658.8574,948,668.8574,952,658.8574,948,662.8574" style="stroke:#181818;stroke-width:1.0;"/><line style="stroke:#181818;stroke-width:1.0;" x1="948" x2="948" y1="703.9512" y2="711.4922"/><line style="stroke:#181818;stroke-width:1.0;" x1="948" x2="1841" y1="711.4922" y2="711.4922"/><line style="stroke:#181818;stroke-width:1.0;" x1="1841" x2="1841" y1="711.4922" y2="723.9512"/><polygon fill="#181818" points="1837,713.9512,1841,723.9512,1845,713.9512,1841,717.9512" style="stroke:#181818;stroke-width:1.0;"/><line style="stroke:#181818;stroke-width:1.0;" x1="1841" x2="1841" y1="1001.1934" y2="1006.1934"/><line style="stroke:#181818;stroke-width:1.0;" x1="1841" x2="948" y1="1006.1934" y2="1006.1934"/><line style="stroke:#181818;stroke-width:1.0;" x1="948" x2="948" y1="1006.1934" y2="1021.1934"/><polygon fill="#181818" points="944,1011.1934,948,1021.1934,952,1011.1934,948,1015.1934" style="stroke:#181818;stroke-width:1.0;"/><line style="stroke:#181818;stroke-width:1.0;" x1="948" x2="948" y1="1056.2871" y2="1061.2871"/><line style="stroke:#181818;stroke-width:1.0;" x1="948" x2="213.75" y1="1061.2871" y2="1061.2871"/><line style="stroke:#181818;stroke-width:1.0;" x1="213.75" x2="213.75" y1="1061.2871" y2="1076.2871"/><polygon fill="#181818" points="209.75,1066.2871,213.75,1076.2871,217.75,1066.2871,213.75,1070.2871" style="stroke:#181818;stroke-width:1.0;"/><line style="stroke:#181818;stroke-width:1.0;" x1="840.25" x2="840.25" y1="1265.5684" y2="1270.5684"/><line style="stroke:#181818;stroke-width:1.0;" x1="840.25" x2="106" y1="1270.5684" y2="1270.5684"/><line style="stroke:#181818;stroke-width:1.0;" x1="106" x2="106" y1="1270.5684" y2="1285.5684"/><polygon fill="#181818" points="102,1275.5684,106,1285.5684,110,1275.5684,106,1279.5684" style="stroke:#181818;stroke-width:1.0;"/><line style="stroke:#181818;stroke-width:1.0;" x1="106" x2="106" y1="1320.6621" y2="1325.6621"/><line style="stroke:#181818;stroke-width:1.0;" x1="106" x2="1733.25" y1="1325.6621" y2="1325.6621"/><line style="stroke:#181818;stroke-width:1.0;" x1="1733.25" x2="1733.25" y1="1325.6621" y2="1340.6621"/><polygon fill="#181818" points="1729.25,1330.6621,1733.25,1340.6621,1737.25,1330.6621,1733.25,1334.6621" style="stroke:#181818;stroke-width:1.0;"/><line style="stroke:#181818;stroke-width:1.0;" x1="1733.25" x2="1733.25" y1="1375.7559" y2="1380.7559"/><line style="stroke:#181818;stroke-width:1.0;" x1="1733.25" x2="840.25" y1="1380.7559" y2="1380.7559"/><line style="stroke:#181818;stroke-width:1.0;" x1="840.25" x2="840.25" y1="1380.7559" y2="1395.7559"/><polygon fill="#181818" points="836.25,1385.7559,840.25,1395.7559,844.25,1385.7559,840.25,1389.7559" style="stroke:#181818;stroke-width:1.0;"/><line style="stroke:#181818;stroke-width:1.0;" x1="213.75" x2="213.75" y1="1166.4746" y2="1171.4746"/><line style="stroke:#181818;stroke-width:1.0;" x1="213.75" x2="948" y1="1171.4746" y2="1171.4746"/><line style="stroke:#181818;stroke-width:1.0;" x1="948" x2="948" y1="1171.4746" y2="1186.4746"/><polygon fill="#181818" points="944,1176.4746,948,1186.4746,952,1176.4746,948,1180.4746" style="stroke:#181818;stroke-width:1.0;"/><line style="stroke:#181818;stroke-width:1.0;" x1="1388.75" x2="1388.75" y1="379.5645" y2="384.5645"/><line style="stroke:#181818;stroke-width:1.0;" x1="1388.75" x2="642.75" y1="384.5645" y2="384.5645"/><line style="stroke:#181818;stroke-width:1.0;" x1="642.75" x2="642.75" y1="384.5645" y2="399.5645"/><polygon fill="#181818" points="638.75,389.5645,642.75,399.5645,646.75,389.5645,642.75,393.5645" style="stroke:#181818;stroke-width:1.0;"/><line style="stroke:#181818;stroke-width:1.0;" x1="642.75" x2="642.75" y1="434.6582" y2="1468.8496"/><line style="stroke:#181818;stroke-width:1.0;" x1="642.75" x2="1198.375" y1="1468.8496" y2="1468.8496"/><line style="stroke:#181818;stroke-width:1.0;" x1="1198.375" x2="1198.375" y1="1468.8496" y2="1486.8496"/><line style="stroke:#181818;stroke-width:1.0;" x1="1198.375" x2="1180.375" y1="1486.8496" y2="1486.8496"/><polygon fill="#181818" points="1190.375,1482.8496,1180.375,1486.8496,1190.375,1490.8496,1186.375,1486.8496" style="stroke:#181818;stroke-width:1.0;"/><line style="stroke:#181818;stroke-width:1.0;" x1="1168.375" x2="1168.375" y1="1498.8496" y2="1503.8496"/><line style="stroke:#181818;stroke-width:1.0;" x1="1168.375" x2="428.75" y1="1503.8496" y2="1503.8496"/><line style="stroke:#181818;stroke-width:1.0;" x1="428.75" x2="428.75" y1="1503.8496" y2="1518.8496"/><polygon fill="#181818" points="424.75,1508.8496,428.75,1518.8496,432.75,1508.8496,428.75,1512.8496" style="stroke:#181818;stroke-width:1.0;"/><text fill="#000000" font-family="sans-serif" font-size="18" lengthAdjust="spacing" textLength="40" x="359.875" y="31.1406">Klien</text><text fill="#000000" font-family="sans-serif" font-size="18" lengthAdjust="spacing" textLength="171" x="1032.25" y="31.1406">Sistem (Backend/DB)</text><text fill="#000000" font-family="sans-serif" font-size="18" lengthAdjust="spacing" textLength="132" x="1758.25" y="31.1406">SIA Apotek Mitra</text><text fill="#000000" font-family="sans-serif" font-size="18" lengthAdjust="spacing" textLength="53" x="2226.25" y="31.1406">Dokter</text><!--SRC=[ZLLTRzf047pthrZb2PH4IHkrbS935O8gHIqfQjg-BtXjjdU-iyxdH97yuxjtFi1Gg28XmDpEVipE7DrNpMIwhF7eV7OxfshPAeGrQgpGmDbFMhOD_A26whD9rZrnuwc2qHHNYan-DPkEku0oMDMibI1oB2GLk800L9uBWQKY8JrhNgVJLpGbi2bPKEn3eVzKg9vHSuuDGs5TXJxb62t8LMGKDV3fvkhzzRkFuqcMSG6ZByEm2Fuy1hyc0wDN76S0eUsI7LVIiySKg0YU7kxWhhQU5CpPEvn8R7VuOvSIaE1H4XYegAgTRQIHc6dI1sXKRQ1b9K0sdXmg6S4kfRFHpBNbPNY3XtYoycpDE03b5KQuot40ckCVwmvc64w1cfmF0yoi4WpKP5hDWtPaZFweso0TFJEzfFR3WvGPXXzTHi9MDRabklO0SOGdqWt1oClsLEXP4d6n6p9gIygR4atUYY8UqIdhMU7Lec7vvcmj3qS75sRgmEwBTQhGzWNkhP5uhIc7G6pVb95sm76vzl4Hu0QSI4zXVPjwlO25A8lC1KmNt-SfwlT6S4yFYrrJYTqKyysMWV6cvsdw-1X_bmbZqIrLpyTJvJ7LP3lEYZog9CHjZvD_6Kpy3zG6ub-JOymruFVK0lSSwzYiM3wZAC_5-gxiDPzSsrUBlgt8svn4MTKINr4QF53vxW16l-ulhpzir7ogaI20nGwq9BSMclHnbLjJi7XQQ1JA-yKbrMqxtVX1Ok8DveCBeZtwNayeT8_G7I9IyWOh90FAohcGlKhnSv3CAoMNsydrIMgC_4kaQQB31qQwxMsHimgHcaDW49f7B_TnkbS7kpueyQR5atFMxLsd1skViMnbhUBjOCfrknHxSZB09Ejhop-7hVy2]--></g></svg>