<?xml version="1.0" encoding="us-ascii" standalone="no"?><svg xmlns="http://www.w3.org/2000/svg" xmlns:xlink="http://www.w3.org/1999/xlink" contentStyleType="text/css" height="725px" preserveAspectRatio="none" style="width:1327px;height:725px;background:#FFFFFF;" version="1.1" viewBox="0 0 1327 725" width="1327px" zoomAndPan="magnify"><defs/><g><rect fill="none" height="22.6406" style="stroke:none;stroke-width:1.0;" width="1294" x="15" y="12.4551"/><ellipse cx="295" cy="50.0957" fill="#222222" rx="10" ry="10" style="stroke:#222222;stroke-width:1.0;"/><rect fill="#F1F1F1" height="35.0938" rx="12.5" ry="12.5" style="stroke:#181818;stroke-width:0.5;" width="201" x="194.5" y="80.0957"/><text fill="#000000" font-family="sans-serif" font-size="12" lengthAdjust="spacing" textLength="181" x="204.5" y="102.5527">Memilih Mitra dan Klik Konsultasi</text><rect fill="#F1F1F1" height="35.0938" rx="12.5" ry="12.5" style="stroke:#181818;stroke-width:0.5;" width="213" x="188.5" y="190.2832"/><text fill="#000000" font-family="sans-serif" font-size="12" lengthAdjust="spacing" textLength="193" x="198.5" y="212.7402">Melakukan Pembayaran / Checkout</text><rect fill="#F1F1F1" height="35.0938" rx="12.5" ry="12.5" style="stroke:#181818;stroke-width:0.5;" width="223" x="21" y="619.9395"/><text fill="#000000" font-family="sans-serif" font-size="12" lengthAdjust="spacing" textLength="203" x="31" y="642.3965">Memberikan Rating dan Ulasan Mitra</text><ellipse cx="132.5" cy="686.0332" fill="none" rx="11" ry="11" style="stroke:#222222;stroke-width:1.0;"/><ellipse cx="132.5" cy="686.0332" fill="#222222" rx="6" ry="6" style="stroke:#222222;stroke-width:1.0;"/><line style="stroke:#000000;stroke-width:1.5;" x1="15" x2="15" y1="12.4551" y2="713.0332"/><rect fill="#F1F1F1" height="35.0938" rx="12.5" ry="12.5" style="stroke:#181818;stroke-width:0.5;" width="156" x="645" y="135.1895"/><text fill="#000000" font-family="sans-serif" font-size="12" lengthAdjust="spacing" textLength="136" x="655" y="157.6465">Menampilkan Detail Tarif</text><polygon fill="#F1F1F1" points="650.5,245.377,795.5,245.377,807.5,257.377,795.5,269.377,650.5,269.377,638.5,257.377,650.5,245.377" style="stroke:#181818;stroke-width:0.5;"/><text fill="#000000" font-family="sans-serif" font-size="11" lengthAdjust="spacing" textLength="145" x="650.5" y="261.8779">Apakah Pembayaran Sukses?</text><text fill="#000000" font-family="sans-serif" font-size="11" lengthAdjust="spacing" textLength="14" x="624.5" y="254.96">Ya</text><text fill="#000000" font-family="sans-serif" font-size="11" lengthAdjust="spacing" textLength="58" x="807.5" y="254.96">Tidak / Batal</text><rect fill="#F1F1F1" height="35.0938" rx="12.5" ry="12.5" style="stroke:#181818;stroke-width:0.5;" width="235" x="443" y="289.377"/><text fill="#000000" font-family="sans-serif" font-size="12" lengthAdjust="spacing" textLength="215" x="453" y="311.834">Membuka Ruang Obrolan (Chat Room)</text><rect fill="#F1F1F1" height="35.0938" rx="12.5" ry="12.5" style="stroke:#181818;stroke-width:0.5;" width="298" x="411.5" y="344.4707"/><text fill="#000000" font-family="sans-serif" font-size="12" lengthAdjust="spacing" textLength="278" x="421.5" y="366.9277">Mengirim Notifikasi Konsultasi ke Mitra Profesional</text><rect fill="#F1F1F1" height="35.0938" rx="12.5" ry="12.5" style="stroke:#181818;stroke-width:0.5;" width="288" x="416.5" y="564.8457"/><text fill="#000000" font-family="sans-serif" font-size="12" lengthAdjust="spacing" textLength="268" x="426.5" y="587.3027">Menutup Ruang Obrolan &amp; Menyimpan Data Sesi</text><rect fill="#F1F1F1" height="35.0938" rx="12.5" ry="12.5" style="stroke:#181818;stroke-width:0.5;" width="312" x="729.5" y="289.377"/><text fill="#000000" font-family="sans-serif" font-size="12" lengthAdjust="spacing" textLength="292" x="739.5" y="311.834">Batalkan Booking &amp; Tampilkan Notifikasi Pembatalan</text><ellipse cx="885.5" cy="355.4707" fill="none" rx="11" ry="11" style="stroke:#222222;stroke-width:1.0;"/><ellipse cx="885.5" cy="355.4707" fill="#222222" rx="6" ry="6" style="stroke:#222222;stroke-width:1.0;"/><line style="stroke:#000000;stroke-width:1.5;" x1="405.5" x2="405.5" y1="12.4551" y2="713.0332"/><rect fill="#F1F1F1" height="35.0938" rx="12.5" ry="12.5" style="stroke:#181818;stroke-width:0.5;" width="204" x="1075.5" y="399.5645"/><text fill="#000000" font-family="sans-serif" font-size="12" lengthAdjust="spacing" textLength="184" x="1085.5" y="422.0215">Menerima Permintaan Konsultasi</text><rect fill="#F1F1F1" height="35.0938" rx="12.5" ry="12.5" style="stroke:#181818;stroke-width:0.5;" width="238" x="1058.5" y="454.6582"/><text fill="#000000" font-family="sans-serif" font-size="12" lengthAdjust="spacing" textLength="218" x="1068.5" y="477.1152">Melangsungkan Sesi Chat &amp; Konsultasi</text><rect fill="#F1F1F1" height="35.0938" rx="12.5" ry="12.5" style="stroke:#181818;stroke-width:0.5;" width="252" x="1051.5" y="509.752"/><text fill="#000000" font-family="sans-serif" font-size="12" lengthAdjust="spacing" textLength="232" x="1061.5" y="532.209">Membuat Catatan Sesi &amp; Dokumen Output</text><line style="stroke:#000000;stroke-width:1.5;" x1="1045.5" x2="1045.5" y1="12.4551" y2="713.0332"/><line style="stroke:#000000;stroke-width:1.5;" x1="1307.5" x2="1307.5" y1="12.4551" y2="713.0332"/><line style="stroke:#181818;stroke-width:1.0;" x1="295" x2="295" y1="60.0957" y2="80.0957"/><polygon fill="#181818" points="291,70.0957,295,80.0957,299,70.0957,295,74.0957" style="stroke:#181818;stroke-width:1.0;"/><line style="stroke:#181818;stroke-width:1.0;" x1="132.5" x2="132.5" y1="655.0332" y2="675.0332"/><polygon fill="#181818" points="128.5,665.0332,132.5,675.0332,136.5,665.0332,132.5,669.0332" style="stroke:#181818;stroke-width:1.0;"/><line style="stroke:#181818;stroke-width:1.0;" x1="560.5" x2="560.5" y1="324.4707" y2="344.4707"/><polygon fill="#181818" points="556.5,334.4707,560.5,344.4707,564.5,334.4707,560.5,338.4707" style="stroke:#181818;stroke-width:1.0;"/><line style="stroke:#181818;stroke-width:1.0;" x1="885.5" x2="885.5" y1="324.4707" y2="344.4707"/><polygon fill="#181818" points="881.5,334.4707,885.5,344.4707,889.5,334.4707,885.5,338.4707" style="stroke:#181818;stroke-width:1.0;"/><line style="stroke:#181818;stroke-width:1.0;" x1="638.5" x2="560.5" y1="257.377" y2="257.377"/><line style="stroke:#181818;stroke-width:1.0;" x1="560.5" x2="560.5" y1="257.377" y2="289.377"/><polygon fill="#181818" points="556.5,279.377,560.5,289.377,564.5,279.377,560.5,283.377" style="stroke:#181818;stroke-width:1.0;"/><line style="stroke:#181818;stroke-width:1.0;" x1="807.5" x2="885.5" y1="257.377" y2="257.377"/><line style="stroke:#181818;stroke-width:1.0;" x1="885.5" x2="885.5" y1="257.377" y2="289.377"/><polygon fill="#181818" points="881.5,279.377,885.5,289.377,889.5,279.377,885.5,283.377" style="stroke:#181818;stroke-width:1.0;"/><line style="stroke:#181818;stroke-width:1.0;" x1="1177.5" x2="1177.5" y1="434.6582" y2="454.6582"/><polygon fill="#181818" points="1173.5,444.6582,1177.5,454.6582,1181.5,444.6582,1177.5,448.6582" style="stroke:#181818;stroke-width:1.0;"/><line style="stroke:#181818;stroke-width:1.0;" x1="1177.5" x2="1177.5" y1="489.752" y2="509.752"/><polygon fill="#181818" points="1173.5,499.752,1177.5,509.752,1181.5,499.752,1177.5,503.752" style="stroke:#181818;stroke-width:1.0;"/><line style="stroke:#181818;stroke-width:1.0;" x1="295" x2="295" y1="115.1895" y2="120.1895"/><line style="stroke:#181818;stroke-width:1.0;" x1="295" x2="723" y1="120.1895" y2="120.1895"/><line style="stroke:#181818;stroke-width:1.0;" x1="723" x2="723" y1="120.1895" y2="135.1895"/><polygon fill="#181818" points="719,125.1895,723,135.1895,727,125.1895,723,129.1895" style="stroke:#181818;stroke-width:1.0;"/><line style="stroke:#181818;stroke-width:1.0;" x1="723" x2="723" y1="170.2832" y2="175.2832"/><line style="stroke:#181818;stroke-width:1.0;" x1="723" x2="295" y1="175.2832" y2="175.2832"/><line style="stroke:#181818;stroke-width:1.0;" x1="295" x2="295" y1="175.2832" y2="190.2832"/><polygon fill="#181818" points="291,180.2832,295,190.2832,299,180.2832,295,184.2832" style="stroke:#181818;stroke-width:1.0;"/><line style="stroke:#181818;stroke-width:1.0;" x1="560.5" x2="560.5" y1="379.5645" y2="384.5645"/><line style="stroke:#181818;stroke-width:1.0;" x1="560.5" x2="1177.5" y1="384.5645" y2="384.5645"/><line style="stroke:#181818;stroke-width:1.0;" x1="1177.5" x2="1177.5" y1="384.5645" y2="399.5645"/><polygon fill="#181818" points="1173.5,389.5645,1177.5,399.5645,1181.5,389.5645,1177.5,393.5645" style="stroke:#181818;stroke-width:1.0;"/><line style="stroke:#181818;stroke-width:1.0;" x1="1177.5" x2="1177.5" y1="544.8457" y2="549.8457"/><line style="stroke:#181818;stroke-width:1.0;" x1="1177.5" x2="560.5" y1="549.8457" y2="549.8457"/><line style="stroke:#181818;stroke-width:1.0;" x1="560.5" x2="560.5" y1="549.8457" y2="564.8457"/><polygon fill="#181818" points="556.5,554.8457,560.5,564.8457,564.5,554.8457,560.5,558.8457" style="stroke:#181818;stroke-width:1.0;"/><line style="stroke:#181818;stroke-width:1.0;" x1="560.5" x2="560.5" y1="599.9395" y2="604.9395"/><line style="stroke:#181818;stroke-width:1.0;" x1="560.5" x2="132.5" y1="604.9395" y2="604.9395"/><line style="stroke:#181818;stroke-width:1.0;" x1="132.5" x2="132.5" y1="604.9395" y2="619.9395"/><polygon fill="#181818" points="128.5,609.9395,132.5,619.9395,136.5,609.9395,132.5,613.9395" style="stroke:#181818;stroke-width:1.0;"/><line style="stroke:#181818;stroke-width:1.0;" x1="295" x2="295" y1="225.377" y2="230.377"/><line style="stroke:#181818;stroke-width:1.0;" x1="295" x2="723" y1="230.377" y2="230.377"/><line style="stroke:#181818;stroke-width:1.0;" x1="723" x2="723" y1="230.377" y2="245.377"/><polygon fill="#181818" points="719,235.377,723,245.377,727,235.377,723,239.377" style="stroke:#181818;stroke-width:1.0;"/><text fill="#000000" font-family="sans-serif" font-size="18" lengthAdjust="spacing" textLength="40" x="190.25" y="31.1406">Klien</text><text fill="#000000" font-family="sans-serif" font-size="18" lengthAdjust="spacing" textLength="171" x="640" y="31.1406">Sistem (Backend/DB)</text><text fill="#000000" font-family="sans-serif" font-size="18" lengthAdjust="spacing" textLength="135" x="1109" y="31.1406">Mitra Profesional</text><!--SRC=[VL8zRuD03Dtv5PuGJDcReIh95gM9adJew0GJhFj2tDqGYHzV7o4gQjeA94xulUVdvnisciaEcG_OX-nbIuOrjx3bq2FKQ47g2ZRE-gW3UbvcsN1a7yX0KU55aQqNwweS4jMYwLWh8Qqf86iuOSzDOanD1ADHnOJOapdZ3NivBc3LqaMv6FuKvmQAjmuLjdFYCIfF_hK4zb1yOWcX9Pi1f2dEqWKE4UqLTkVUQO4NgnO379mpvVAEibVksS2x2zomakbcWuAYAOLzxnhox2pgn9DtU2eCao29dXIeDsm3flXcoOqGSNBrqLvJ24TXm-WgVmRA259OOP1dWkQmTYeQih2BeKjvtUtycjdTK0on-v533lB_ngPBYnBnKViXDMrgSY3Z99y732m2wJfyQFJo6GD871zSbv7s1CM9QrIopKeqTVcVhn6HX2ldL5BEvQeyxivi6-Ek1OhskvMjkVa2]--></g></svg>