<?xml version="1.0" encoding="us-ascii" standalone="no"?><svg xmlns="http://www.w3.org/2000/svg" xmlns:xlink="http://www.w3.org/1999/xlink" contentStyleType="text/css" height="1018px" preserveAspectRatio="none" style="width:2558px;height:1018px;background:#FFFFFF;" version="1.1" viewBox="0 0 2558 1018" width="2558px" zoomAndPan="magnify"><defs/><g><rect fill="none" height="22.6406" style="stroke:none;stroke-width:1.0;" width="2525.5" x="15" y="12.4551"/><ellipse cx="186.5" cy="50.0957" fill="#222222" rx="10" ry="10" style="stroke:#222222;stroke-width:1.0;"/><rect fill="#F1F1F1" height="35.0938" rx="12.5" ry="12.5" style="stroke:#181818;stroke-width:0.5;" width="216" x="78.5" y="80.0957"/><text fill="#000000" font-family="sans-serif" font-size="12" lengthAdjust="spacing" textLength="196" x="88.5" y="102.5527">Mengklik menu "Saldo Pendapatan"</text><rect fill="#F1F1F1" height="35.0938" rx="12.5" ry="12.5" style="stroke:#181818;stroke-width:0.5;" width="331" x="21" y="190.2832"/><text fill="#000000" font-family="sans-serif" font-size="12" lengthAdjust="spacing" textLength="311" x="31" y="212.7402">Mengklik tombol "Tarik Dana" dan memasukkan nominal</text><line style="stroke:#000000;stroke-width:1.5;" x1="15" x2="15" y1="12.4551" y2="1006.127"/><rect fill="#F1F1F1" height="35.0938" rx="12.5" ry="12.5" style="stroke:#181818;stroke-width:0.5;" width="349" x="1032.75" y="135.1895"/><text fill="#000000" font-family="sans-serif" font-size="12" lengthAdjust="spacing" textLength="329" x="1042.75" y="157.6465">Menampilkan sisa saldo dan riwayat penarikan sebelumnya</text><rect fill="#F1F1F1" height="35.0938" rx="12.5" ry="12.5" style="stroke:#181818;stroke-width:0.5;" width="289" x="1062.75" y="245.377"/><text fill="#000000" font-family="sans-serif" font-size="12" lengthAdjust="spacing" textLength="269" x="1072.75" y="267.834">Melakukan validasi kecukupan saldo di database</text><polygon fill="#F1F1F1" points="1174.25,300.4707,1240.25,300.4707,1252.25,312.4707,1240.25,324.4707,1174.25,324.4707,1162.25,312.4707,1174.25,300.4707" style="stroke:#181818;stroke-width:0.5;"/><text fill="#000000" font-family="sans-serif" font-size="11" lengthAdjust="spacing" textLength="66" x="1174.25" y="316.9717">Saldo Cukup?</text><text fill="#000000" font-family="sans-serif" font-size="11" lengthAdjust="spacing" textLength="14" x="1148.25" y="310.0537">Ya</text><text fill="#000000" font-family="sans-serif" font-size="11" lengthAdjust="spacing" textLength="25" x="1252.25" y="310.0537">Tidak</text><rect fill="#F1F1F1" height="35.0938" rx="12.5" ry="12.5" style="stroke:#181818;stroke-width:0.5;" width="281" x="775" y="344.4707"/><text fill="#000000" font-family="sans-serif" font-size="12" lengthAdjust="spacing" textLength="261" x="785" y="366.9277">Memvalidasi NPWP dan Rekening Bank Profesi</text><polygon fill="#F1F1F1" points="856,399.5645,975,399.5645,987,411.5645,975,423.5645,856,423.5645,844,411.5645,856,399.5645" style="stroke:#181818;stroke-width:0.5;"/><text fill="#000000" font-family="sans-serif" font-size="11" lengthAdjust="spacing" textLength="119" x="856" y="416.0654">Rekening &amp; NPWP Valid?</text><text fill="#000000" font-family="sans-serif" font-size="11" lengthAdjust="spacing" textLength="14" x="830" y="409.1475">Ya</text><text fill="#000000" font-family="sans-serif" font-size="11" lengthAdjust="spacing" textLength="52" x="987" y="409.1475">Tidak Valid</text><rect fill="#F1F1F1" height="35.0938" rx="12.5" ry="12.5" style="stroke:#181818;stroke-width:0.5;" width="294" x="508.5" y="443.5645"/><text fill="#000000" font-family="sans-serif" font-size="12" lengthAdjust="spacing" textLength="274" x="518.5" y="466.0215">Memindahkan saldo ke saldo_dibekukan (Freeze)</text><polygon fill="#F1F1F1" points="571,498.6582,740,498.6582,752,510.6582,740,522.6582,571,522.6582,559,510.6582,571,498.6582" style="stroke:#181818;stroke-width:0.5;"/><text fill="#000000" font-family="sans-serif" font-size="11" lengthAdjust="spacing" textLength="169" x="571" y="515.1592">Nominal Penarikan &lt; Rp 5.000.000?</text><text fill="#000000" font-family="sans-serif" font-size="11" lengthAdjust="spacing" textLength="93" x="466" y="508.2412">Ya - Auto Disburse</text><text fill="#000000" font-family="sans-serif" font-size="11" lengthAdjust="spacing" textLength="179" x="752" y="508.2412">Tidak &gt;= Rp 5 Juta - Manual Approval</text><rect fill="#F1F1F1" height="35.0938" rx="12.5" ry="12.5" style="stroke:#181818;stroke-width:0.5;" width="262" x="688.5" y="542.6582"/><text fill="#000000" font-family="sans-serif" font-size="12" lengthAdjust="spacing" textLength="242" x="698.5" y="565.1152">Memasukkan tiket ke antrean Dasbor Admin</text><polygon fill="#F1F1F1" points="655.5,697.9395,667.5,709.9395,655.5,721.9395,643.5,709.9395,655.5,697.9395" style="stroke:#181818;stroke-width:0.5;"/><polygon fill="#F1F1F1" points="591,741.9395,720,741.9395,732,753.9395,720,765.9395,591,765.9395,579,753.9395,591,741.9395" style="stroke:#181818;stroke-width:0.5;"/><text fill="#000000" font-family="sans-serif" font-size="11" lengthAdjust="spacing" textLength="129" x="591" y="758.4404">Status Balasan Transaksi?</text><text fill="#000000" font-family="sans-serif" font-size="11" lengthAdjust="spacing" textLength="84" x="495" y="751.5225">Sukses / Berhasil</text><text fill="#000000" font-family="sans-serif" font-size="11" lengthAdjust="spacing" textLength="95" x="732" y="751.5225">Gagal / Ditolak Bank</text><rect fill="#F1F1F1" height="35.0938" rx="12.5" ry="12.5" style="stroke:#181818;stroke-width:0.5;" width="267" x="362" y="775.9395"/><text fill="#000000" font-family="sans-serif" font-size="12" lengthAdjust="spacing" textLength="247" x="372" y="798.3965">Potong saldo_dibekukan permanen (Deduct)</text><rect fill="#F1F1F1" height="35.0938" rx="12.5" ry="12.5" style="stroke:#181818;stroke-width:0.5;" width="233" x="379" y="831.0332"/><text fill="#000000" font-family="sans-serif" font-size="12" lengthAdjust="spacing" textLength="213" x="389" y="853.4902">Kirim notifikasi dana berhasil dicairkan</text><rect fill="#F1F1F1" height="35.0938" rx="12.5" ry="12.5" style="stroke:#181818;stroke-width:0.5;" width="333" x="649" y="775.9395"/><text fill="#000000" font-family="sans-serif" font-size="12" lengthAdjust="spacing" textLength="313" x="659" y="798.3965">Kembalikan saldo ke saldo_tersedia (Unfreeze Rollback)</text><rect fill="#F1F1F1" height="35.0938" rx="12.5" ry="12.5" style="stroke:#181818;stroke-width:0.5;" width="222" x="704.5" y="831.0332"/><text fill="#000000" font-family="sans-serif" font-size="12" lengthAdjust="spacing" textLength="202" x="714.5" y="853.4902">Kirim notifikasi error penarikan gagal</text><polygon fill="#F1F1F1" points="655.5,872.127,667.5,884.127,655.5,896.127,643.5,884.127,655.5,872.127" style="stroke:#181818;stroke-width:0.5;"/><rect fill="#F1F1F1" height="35.0938" rx="12.5" ry="12.5" style="stroke:#181818;stroke-width:0.5;" width="327" x="1012" y="443.5645"/><text fill="#000000" font-family="sans-serif" font-size="12" lengthAdjust="spacing" textLength="307" x="1022" y="466.0215">Menampilkan error kredensial rekening/NPWP tidak sah</text><polygon fill="#F1F1F1" points="915.5,906.127,927.5,918.127,915.5,930.127,903.5,918.127,915.5,906.127" style="stroke:#181818;stroke-width:0.5;"/><rect fill="#F1F1F1" height="35.0938" rx="12.5" ry="12.5" style="stroke:#181818;stroke-width:0.5;" width="260" x="1369" y="344.4707"/><text fill="#000000" font-family="sans-serif" font-size="12" lengthAdjust="spacing" textLength="240" x="1379" y="366.9277">Menampilkan pesan error saldo tidak cukup</text><rect fill="#F1F1F1" height="35.0938" rx="12.5" ry="12.5" style="stroke:#181818;stroke-width:0.5;" width="225" x="1386.5" y="399.5645"/><text fill="#000000" font-family="sans-serif" font-size="12" lengthAdjust="spacing" textLength="205" x="1396.5" y="422.0215">Membatalkan proses penarikan dana</text><polygon fill="#F1F1F1" points="1207.25,940.127,1219.25,952.127,1207.25,964.127,1195.25,952.127,1207.25,940.127" style="stroke:#181818;stroke-width:0.5;"/><ellipse cx="1207.25" cy="995.127" fill="none" rx="11" ry="11" style="stroke:#222222;stroke-width:1.0;"/><ellipse cx="1207.25" cy="995.127" fill="#222222" rx="6" ry="6" style="stroke:#222222;stroke-width:1.0;"/><line style="stroke:#000000;stroke-width:1.5;" x1="356" x2="356" y1="12.4551" y2="1006.127"/><rect fill="#F1F1F1" height="35.0938" rx="12.5" ry="12.5" style="stroke:#181818;stroke-width:0.5;" width="292" x="1639" y="542.6582"/><text fill="#000000" font-family="sans-serif" font-size="12" lengthAdjust="spacing" textLength="272" x="1649" y="565.1152">Memproses transfer bank otomatis (Push Payout)</text><rect fill="#F1F1F1" height="35.0938" rx="12.5" ry="12.5" style="stroke:#181818;stroke-width:0.5;" width="260" x="1941" y="652.8457"/><text fill="#000000" font-family="sans-serif" font-size="12" lengthAdjust="spacing" textLength="240" x="1951" y="675.3027">Memproses transfer bank via Bank Gateway</text><line style="stroke:#000000;stroke-width:1.5;" x1="1633" x2="1633" y1="12.4551" y2="1006.127"/><rect fill="#F1F1F1" height="35.0938" rx="12.5" ry="12.5" style="stroke:#181818;stroke-width:0.5;" width="324" x="2211" y="597.752"/><text fill="#000000" font-family="sans-serif" font-size="12" lengthAdjust="spacing" textLength="304" x="2221" y="620.209">Meninjau antrean &amp; mengklik "Setujui &amp; Cairkan via API"</text><line style="stroke:#000000;stroke-width:1.5;" x1="2205" x2="2205" y1="12.4551" y2="1006.127"/><line style="stroke:#000000;stroke-width:1.5;" x1="2539" x2="2539" y1="12.4551" y2="1006.127"/><line style="stroke:#181818;stroke-width:1.0;" x1="186.5" x2="186.5" y1="60.0957" y2="80.0957"/><polygon fill="#181818" points="182.5,70.0957,186.5,80.0957,190.5,70.0957,186.5,74.0957" style="stroke:#181818;stroke-width:1.0;"/><line style="stroke:#181818;stroke-width:1.0;" x1="752" x2="819.5" y1="510.6582" y2="510.6582"/><line style="stroke:#181818;stroke-width:1.0;" x1="819.5" x2="819.5" y1="510.6582" y2="542.6582"/><polygon fill="#181818" points="815.5,532.6582,819.5,542.6582,823.5,532.6582,819.5,536.6582" style="stroke:#181818;stroke-width:1.0;"/><line style="stroke:#181818;stroke-width:1.0;" x1="655.5" x2="655.5" y1="478.6582" y2="498.6582"/><polygon fill="#181818" points="651.5,488.6582,655.5,498.6582,659.5,488.6582,655.5,492.6582" style="stroke:#181818;stroke-width:1.0;"/><line style="stroke:#181818;stroke-width:1.0;" x1="495.5" x2="495.5" y1="811.0332" y2="831.0332"/><polygon fill="#181818" points="491.5,821.0332,495.5,831.0332,499.5,821.0332,495.5,825.0332" style="stroke:#181818;stroke-width:1.0;"/><line style="stroke:#181818;stroke-width:1.0;" x1="815.5" x2="815.5" y1="811.0332" y2="831.0332"/><polygon fill="#181818" points="811.5,821.0332,815.5,831.0332,819.5,821.0332,815.5,825.0332" style="stroke:#181818;stroke-width:1.0;"/><line style="stroke:#181818;stroke-width:1.0;" x1="579" x2="495.5" y1="753.9395" y2="753.9395"/><line style="stroke:#181818;stroke-width:1.0;" x1="495.5" x2="495.5" y1="753.9395" y2="775.9395"/><polygon fill="#181818" points="491.5,765.9395,495.5,775.9395,499.5,765.9395,495.5,769.9395" style="stroke:#181818;stroke-width:1.0;"/><line style="stroke:#181818;stroke-width:1.0;" x1="732" x2="815.5" y1="753.9395" y2="753.9395"/><line style="stroke:#181818;stroke-width:1.0;" x1="815.5" x2="815.5" y1="753.9395" y2="775.9395"/><polygon fill="#181818" points="811.5,765.9395,815.5,775.9395,819.5,765.9395,815.5,769.9395" style="stroke:#181818;stroke-width:1.0;"/><line style="stroke:#181818;stroke-width:1.0;" x1="495.5" x2="495.5" y1="866.127" y2="884.127"/><line style="stroke:#181818;stroke-width:1.0;" x1="495.5" x2="643.5" y1="884.127" y2="884.127"/><polygon fill="#181818" points="633.5,880.127,643.5,884.127,633.5,888.127,637.5,884.127" style="stroke:#181818;stroke-width:1.0;"/><line style="stroke:#181818;stroke-width:1.0;" x1="815.5" x2="815.5" y1="866.127" y2="884.127"/><line style="stroke:#181818;stroke-width:1.0;" x1="815.5" x2="667.5" y1="884.127" y2="884.127"/><polygon fill="#181818" points="677.5,880.127,667.5,884.127,677.5,888.127,673.5,884.127" style="stroke:#181818;stroke-width:1.0;"/><line style="stroke:#181818;stroke-width:1.0;" x1="655.5" x2="655.5" y1="721.9395" y2="741.9395"/><polygon fill="#181818" points="651.5,731.9395,655.5,741.9395,659.5,731.9395,655.5,735.9395" style="stroke:#181818;stroke-width:1.0;"/><line style="stroke:#181818;stroke-width:1.0;" x1="844" x2="655.5" y1="411.5645" y2="411.5645"/><line style="stroke:#181818;stroke-width:1.0;" x1="655.5" x2="655.5" y1="411.5645" y2="443.5645"/><polygon fill="#181818" points="651.5,433.5645,655.5,443.5645,659.5,433.5645,655.5,437.5645" style="stroke:#181818;stroke-width:1.0;"/><line style="stroke:#181818;stroke-width:1.0;" x1="987" x2="1175.5" y1="411.5645" y2="411.5645"/><line style="stroke:#181818;stroke-width:1.0;" x1="1175.5" x2="1175.5" y1="411.5645" y2="443.5645"/><polygon fill="#181818" points="1171.5,433.5645,1175.5,443.5645,1179.5,433.5645,1175.5,437.5645" style="stroke:#181818;stroke-width:1.0;"/><line style="stroke:#181818;stroke-width:1.0;" x1="655.5" x2="655.5" y1="896.127" y2="918.127"/><line style="stroke:#181818;stroke-width:1.0;" x1="655.5" x2="903.5" y1="918.127" y2="918.127"/><polygon fill="#181818" points="893.5,914.127,903.5,918.127,893.5,922.127,897.5,918.127" style="stroke:#181818;stroke-width:1.0;"/><line style="stroke:#181818;stroke-width:1.0;" x1="1175.5" x2="1175.5" y1="478.6582" y2="918.127"/><line style="stroke:#181818;stroke-width:1.0;" x1="1175.5" x2="927.5" y1="918.127" y2="918.127"/><polygon fill="#181818" points="937.5,914.127,927.5,918.127,937.5,922.127,933.5,918.127" style="stroke:#181818;stroke-width:1.0;"/><line style="stroke:#181818;stroke-width:1.0;" x1="915.5" x2="915.5" y1="379.5645" y2="399.5645"/><polygon fill="#181818" points="911.5,389.5645,915.5,399.5645,919.5,389.5645,915.5,393.5645" style="stroke:#181818;stroke-width:1.0;"/><line style="stroke:#181818;stroke-width:1.0;" x1="1499" x2="1499" y1="379.5645" y2="399.5645"/><polygon fill="#181818" points="1495,389.5645,1499,399.5645,1503,389.5645,1499,393.5645" style="stroke:#181818;stroke-width:1.0;"/><line style="stroke:#181818;stroke-width:1.0;" x1="1162.25" x2="915.5" y1="312.4707" y2="312.4707"/><line style="stroke:#181818;stroke-width:1.0;" x1="915.5" x2="915.5" y1="312.4707" y2="344.4707"/><polygon fill="#181818" points="911.5,334.4707,915.5,344.4707,919.5,334.4707,915.5,338.4707" style="stroke:#181818;stroke-width:1.0;"/><line style="stroke:#181818;stroke-width:1.0;" x1="1252.25" x2="1499" y1="312.4707" y2="312.4707"/><line style="stroke:#181818;stroke-width:1.0;" x1="1499" x2="1499" y1="312.4707" y2="344.4707"/><polygon fill="#181818" points="1495,334.4707,1499,344.4707,1503,334.4707,1499,338.4707" style="stroke:#181818;stroke-width:1.0;"/><line style="stroke:#181818;stroke-width:1.0;" x1="915.5" x2="915.5" y1="930.127" y2="952.127"/><line style="stroke:#181818;stroke-width:1.0;" x1="915.5" x2="1195.25" y1="952.127" y2="952.127"/><polygon fill="#181818" points="1185.25,948.127,1195.25,952.127,1185.25,956.127,1189.25,952.127" style="stroke:#181818;stroke-width:1.0;"/><line style="stroke:#181818;stroke-width:1.0;" x1="1499" x2="1499" y1="434.6582" y2="952.127"/><line style="stroke:#181818;stroke-width:1.0;" x1="1499" x2="1219.25" y1="952.127" y2="952.127"/><polygon fill="#181818" points="1229.25,948.127,1219.25,952.127,1229.25,956.127,1225.25,952.127" style="stroke:#181818;stroke-width:1.0;"/><line style="stroke:#181818;stroke-width:1.0;" x1="1207.25" x2="1207.25" y1="280.4707" y2="300.4707"/><polygon fill="#181818" points="1203.25,290.4707,1207.25,300.4707,1211.25,290.4707,1207.25,294.4707" style="stroke:#181818;stroke-width:1.0;"/><line style="stroke:#181818;stroke-width:1.0;" x1="1207.25" x2="1207.25" y1="964.127" y2="984.127"/><polygon fill="#181818" points="1203.25,974.127,1207.25,984.127,1211.25,974.127,1207.25,978.127" style="stroke:#181818;stroke-width:1.0;"/><line style="stroke:#181818;stroke-width:1.0;" x1="186.5" x2="186.5" y1="115.1895" y2="120.1895"/><line style="stroke:#181818;stroke-width:1.0;" x1="186.5" x2="1207.25" y1="120.1895" y2="120.1895"/><line style="stroke:#181818;stroke-width:1.0;" x1="1207.25" x2="1207.25" y1="120.1895" y2="135.1895"/><polygon fill="#181818" points="1203.25,125.1895,1207.25,135.1895,1211.25,125.1895,1207.25,129.1895" style="stroke:#181818;stroke-width:1.0;"/><line style="stroke:#181818;stroke-width:1.0;" x1="1207.25" x2="1207.25" y1="170.2832" y2="175.2832"/><line style="stroke:#181818;stroke-width:1.0;" x1="1207.25" x2="186.5" y1="175.2832" y2="175.2832"/><line style="stroke:#181818;stroke-width:1.0;" x1="186.5" x2="186.5" y1="175.2832" y2="190.2832"/><polygon fill="#181818" points="182.5,180.2832,186.5,190.2832,190.5,180.2832,186.5,184.2832" style="stroke:#181818;stroke-width:1.0;"/><line style="stroke:#181818;stroke-width:1.0;" x1="186.5" x2="186.5" y1="225.377" y2="230.377"/><line style="stroke:#181818;stroke-width:1.0;" x1="186.5" x2="1207.25" y1="230.377" y2="230.377"/><line style="stroke:#181818;stroke-width:1.0;" x1="1207.25" x2="1207.25" y1="230.377" y2="245.377"/><polygon fill="#181818" points="1203.25,235.377,1207.25,245.377,1211.25,235.377,1207.25,239.377" style="stroke:#181818;stroke-width:1.0;"/><line style="stroke:#181818;stroke-width:1.0;" x1="819.5" x2="819.5" y1="577.752" y2="582.752"/><line style="stroke:#181818;stroke-width:1.0;" x1="819.5" x2="2373" y1="582.752" y2="582.752"/><line style="stroke:#181818;stroke-width:1.0;" x1="2373" x2="2373" y1="582.752" y2="597.752"/><polygon fill="#181818" points="2369,587.752,2373,597.752,2377,587.752,2373,591.752" style="stroke:#181818;stroke-width:1.0;"/><line style="stroke:#181818;stroke-width:1.0;" x1="2373" x2="2373" y1="632.8457" y2="637.8457"/><line style="stroke:#181818;stroke-width:1.0;" x1="2373" x2="2071" y1="637.8457" y2="637.8457"/><line style="stroke:#181818;stroke-width:1.0;" x1="2071" x2="2071" y1="637.8457" y2="652.8457"/><polygon fill="#181818" points="2067,642.8457,2071,652.8457,2075,642.8457,2071,646.8457" style="stroke:#181818;stroke-width:1.0;"/><line style="stroke:#181818;stroke-width:1.0;" x1="559" x2="547" y1="510.6582" y2="510.6582"/><line style="stroke:#181818;stroke-width:1.0;" x1="547" x2="547" y1="510.6582" y2="528.6582"/><line style="stroke:#181818;stroke-width:1.0;" x1="547" x2="1785" y1="528.6582" y2="528.6582"/><line style="stroke:#181818;stroke-width:1.0;" x1="1785" x2="1785" y1="528.6582" y2="542.6582"/><polygon fill="#181818" points="1781,532.6582,1785,542.6582,1789,532.6582,1785,536.6582" style="stroke:#181818;stroke-width:1.0;"/><line style="stroke:#181818;stroke-width:1.0;" x1="1785" x2="1785" y1="577.752" y2="691.9395"/><line style="stroke:#181818;stroke-width:1.0;" x1="1785" x2="625.5" y1="691.9395" y2="691.9395"/><line style="stroke:#181818;stroke-width:1.0;" x1="625.5" x2="625.5" y1="691.9395" y2="709.9395"/><line style="stroke:#181818;stroke-width:1.0;" x1="625.5" x2="643.5" y1="709.9395" y2="709.9395"/><polygon fill="#181818" points="633.5,705.9395,643.5,709.9395,633.5,713.9395,637.5,709.9395" style="stroke:#181818;stroke-width:1.0;"/><line style="stroke:#181818;stroke-width:1.0;" x1="2071" x2="2071" y1="687.9395" y2="709.9395"/><line style="stroke:#181818;stroke-width:1.0;" x1="2071" x2="667.5" y1="709.9395" y2="709.9395"/><polygon fill="#181818" points="677.5,705.9395,667.5,709.9395,677.5,713.9395,673.5,709.9395" style="stroke:#181818;stroke-width:1.0;"/><text fill="#000000" font-family="sans-serif" font-size="18" lengthAdjust="spacing" textLength="135" x="118" y="31.1406">Mitra Profesional</text><text fill="#000000" font-family="sans-serif" font-size="18" lengthAdjust="spacing" textLength="171" x="909" y="31.1406">Sistem (Backend/DB)</text><text fill="#000000" font-family="sans-serif" font-size="18" lengthAdjust="spacing" textLength="169" x="1834.5" y="31.1406">API Bank / Watchdog</text><text fill="#000000" font-family="sans-serif" font-size="18" lengthAdjust="spacing" textLength="126" x="2309" y="31.1406">Admin Finansial</text><!--SRC=[fLHDRzim3BtdLn0v5CbXIo-xrFj0qg35LhGmcdR5JWCTCmahMpBqiQ53VlmeoNMoekXb1mEsHJuzFZvoVytU8fJMRCYnqTZiHywZzQEpQz9RrR22bdI0yGgRsa19kiOEFUfnCTgls7bgORB0jPA3sN8ntQT4R3jk56fmx11SIgtbq_9lV48FdOHOJW5KKHDQ_OI2zmgP0mrlsieqCBwBcR14ZUE4sLABBgW8fatBalK6imPLY96_iE4Q7OEYTL2XYqmoInPGZnKwAaQyWKck-pm6VPc2tv66oG-SZW04hXrmRig7Cj6v9RcGzHOMgDLpBOM4Hx3Xy2GdV8_fBs0pC8lEEpNGKfHVVjPSKIvXSc69_j2qI3aH_IQN7vlKg_iHRZluyFxqz3G-HnV1EvW7Rs39hWhMKRuOO3yllsRcCtX0lzxLPhllpoAjpXf73gHDsct8GXL3ZRG6FJkObC7jeCGd4tpFYnf7CBaJaHHy_fJemBVW8u5hr47OpZi15Hq72g_sxa3XkTcU5Vae36flINuiqLN6mhmM5OgXdlW55wABTXmDDG197nun3DadqUVPQUCL-V0OMFwT8zla5qOGQSR5_-WKGLBE9NgIGUWLqZLlqjlexVAJ6ptwu0IbGIUqxY8-AiT3QrT1nOjdi22x4sCEifwLqYPntaiRTMHRr35rINLOF_TD4gxOSYipvNaZPd9nC3H2rUFAfAopECUDliIjj7Gcll96PYsLEp2uehOImx_YQa_YmLhacTphJR8rt9gcgKI2D_YGjTBlmoxPnil_5VNOVcdOXWaxxAWCeopLb3m2jf_IMPfHdv8TxY9onZr2xHV10QqZDs3cAZD0MZD5lpOgMJ4vEllaK4FKk1ZbQvmttLy0]--></g></svg>