<?xml version="1.0" encoding="us-ascii" standalone="no"?><svg xmlns="http://www.w3.org/2000/svg" xmlns:xlink="http://www.w3.org/1999/xlink" contentStyleType="text/css" height="757px" preserveAspectRatio="none" style="width:495px;height:757px;background:#FFFFFF;" version="1.1" viewBox="0 0 495 757" width="495px" zoomAndPan="magnify"><defs/><g><rect fill="none" height="22.6406" style="stroke:none;stroke-width:1.0;" width="462" x="15" y="12.4551"/><ellipse cx="144" cy="50.0957" fill="#222222" rx="10" ry="10" style="stroke:#222222;stroke-width:1.0;"/><rect fill="#F1F1F1" height="35.0938" rx="12.5" ry="12.5" style="stroke:#181818;stroke-width:0.5;" width="190" x="49" y="80.0957"/><text fill="#000000" font-family="sans-serif" font-size="12" lengthAdjust="spacing" textLength="170" x="59" y="102.5527">Buka Menu Laporan Keuangan</text><rect fill="#F1F1F1" height="35.0938" rx="12.5" ry="12.5" style="stroke:#181818;stroke-width:0.5;" width="200" x="44" y="294.2949"/><text fill="#000000" font-family="sans-serif" font-size="12" lengthAdjust="spacing" textLength="180" x="54" y="316.752">Pilih Filter Tanggal / Spesialisasi</text><polygon fill="#F1F1F1" points="74.5,245.377,213.5,245.377,225.5,257.377,213.5,269.377,74.5,269.377,62.5,257.377,74.5,245.377" style="stroke:#181818;stroke-width:0.5;"/><text fill="#000000" font-family="sans-serif" font-size="11" lengthAdjust="spacing" textLength="14" x="148" y="280.7959">Ya</text><text fill="#000000" font-family="sans-serif" font-size="11" lengthAdjust="spacing" textLength="139" x="74.5" y="261.8779">Apakah Ingin Memfilter Data?</text><text fill="#000000" font-family="sans-serif" font-size="11" lengthAdjust="spacing" textLength="25" x="37.5" y="254.96">Tidak</text><polygon fill="#F1F1F1" points="144,459.5762,156,471.5762,144,483.5762,132,471.5762,144,459.5762" style="stroke:#181818;stroke-width:0.5;"/><rect fill="#F1F1F1" height="35.0938" rx="12.5" ry="12.5" style="stroke:#181818;stroke-width:0.5;" width="140" x="74" y="503.5762"/><text fill="#000000" font-family="sans-serif" font-size="12" lengthAdjust="spacing" textLength="120" x="84" y="526.0332">Lihat Detail Transaksi</text><rect fill="#F1F1F1" height="35.0938" rx="12.5" ry="12.5" style="stroke:#181818;stroke-width:0.5;" width="157" x="65.5" y="558.6699"/><text fill="#000000" font-family="sans-serif" font-size="12" lengthAdjust="spacing" textLength="137" x="75.5" y="581.127">Klik Ekspor ke Excel/PDF</text><rect fill="#F1F1F1" height="35.0938" rx="12.5" ry="12.5" style="stroke:#181818;stroke-width:0.5;" width="201" x="43.5" y="668.8574"/><text fill="#000000" font-family="sans-serif" font-size="12" lengthAdjust="spacing" textLength="181" x="53.5" y="691.3145">Menerima Unduhan File Laporan</text><ellipse cx="144" cy="734.9512" fill="none" rx="11" ry="11" style="stroke:#222222;stroke-width:1.0;"/><ellipse cx="144" cy="734.9512" fill="#222222" rx="6" ry="6" style="stroke:#222222;stroke-width:1.0;"/><line style="stroke:#000000;stroke-width:1.5;" x1="15" x2="15" y1="12.4551" y2="745.9512"/><rect fill="#F1F1F1" height="35.0938" rx="12.5" ry="12.5" style="stroke:#181818;stroke-width:0.5;" width="217" x="254.5" y="135.1895"/><text fill="#000000" font-family="sans-serif" font-size="12" lengthAdjust="spacing" textLength="197" x="264.5" y="157.6465">Ambil Seluruh Data Transaksi di DB</text><rect fill="#F1F1F1" height="35.0938" rx="12.5" ry="12.5" style="stroke:#181818;stroke-width:0.5;" width="214" x="256" y="190.2832"/><text fill="#000000" font-family="sans-serif" font-size="12" lengthAdjust="spacing" textLength="194" x="266" y="212.7402">Tampilkan Tabel Keuangan Default</text><rect fill="#F1F1F1" height="35.0938" rx="12.5" ry="12.5" style="stroke:#181818;stroke-width:0.5;" width="185" x="270.5" y="349.3887"/><text fill="#000000" font-family="sans-serif" font-size="12" lengthAdjust="spacing" textLength="165" x="280.5" y="371.8457">Ambil Data Sesuai Filter di DB</text><rect fill="#F1F1F1" height="35.0938" rx="12.5" ry="12.5" style="stroke:#181818;stroke-width:0.5;" width="151" x="287.5" y="404.4824"/><text fill="#000000" font-family="sans-serif" font-size="12" lengthAdjust="spacing" textLength="131" x="297.5" y="426.9395">Tampilkan Data Terfilter</text><rect fill="#F1F1F1" height="35.0938" rx="12.5" ry="12.5" style="stroke:#181818;stroke-width:0.5;" width="210" x="258" y="613.7637"/><text fill="#000000" font-family="sans-serif" font-size="12" lengthAdjust="spacing" textLength="190" x="268" y="636.2207">Generate File Laporan (Excel/PDF)</text><line style="stroke:#000000;stroke-width:1.5;" x1="248.5" x2="248.5" y1="12.4551" y2="745.9512"/><line style="stroke:#000000;stroke-width:1.5;" x1="475.5" x2="475.5" y1="12.4551" y2="745.9512"/><line style="stroke:#181818;stroke-width:1.0;" x1="144" x2="144" y1="60.0957" y2="80.0957"/><polygon fill="#181818" points="140,70.0957,144,80.0957,148,70.0957,144,74.0957" style="stroke:#181818;stroke-width:1.0;"/><line style="stroke:#181818;stroke-width:1.0;" x1="144" x2="144" y1="269.377" y2="294.2949"/><polygon fill="#181818" points="140,284.2949,144,294.2949,148,284.2949,144,288.2949" style="stroke:#181818;stroke-width:1.0;"/><line style="stroke:#181818;stroke-width:1.0;" x1="62.5" x2="34" y1="257.377" y2="257.377"/><polygon fill="#181818" points="30,356.9355,34,366.9355,38,356.9355,34,360.9355" style="stroke:#181818;stroke-width:1.0;"/><line style="stroke:#181818;stroke-width:1.0;" x1="34" x2="34" y1="257.377" y2="471.5762"/><line style="stroke:#181818;stroke-width:1.0;" x1="34" x2="132" y1="471.5762" y2="471.5762"/><polygon fill="#181818" points="122,467.5762,132,471.5762,122,475.5762,126,471.5762" style="stroke:#181818;stroke-width:1.0;"/><line style="stroke:#181818;stroke-width:1.0;" x1="144" x2="144" y1="483.5762" y2="503.5762"/><polygon fill="#181818" points="140,493.5762,144,503.5762,148,493.5762,144,497.5762" style="stroke:#181818;stroke-width:1.0;"/><line style="stroke:#181818;stroke-width:1.0;" x1="144" x2="144" y1="538.6699" y2="558.6699"/><polygon fill="#181818" points="140,548.6699,144,558.6699,148,548.6699,144,552.6699" style="stroke:#181818;stroke-width:1.0;"/><line style="stroke:#181818;stroke-width:1.0;" x1="144" x2="144" y1="703.9512" y2="723.9512"/><polygon fill="#181818" points="140,713.9512,144,723.9512,148,713.9512,144,717.9512" style="stroke:#181818;stroke-width:1.0;"/><line style="stroke:#181818;stroke-width:1.0;" x1="363" x2="363" y1="170.2832" y2="190.2832"/><polygon fill="#181818" points="359,180.2832,363,190.2832,367,180.2832,363,184.2832" style="stroke:#181818;stroke-width:1.0;"/><line style="stroke:#181818;stroke-width:1.0;" x1="363" x2="363" y1="384.4824" y2="404.4824"/><polygon fill="#181818" points="359,394.4824,363,404.4824,367,394.4824,363,398.4824" style="stroke:#181818;stroke-width:1.0;"/><line style="stroke:#181818;stroke-width:1.0;" x1="144" x2="144" y1="115.1895" y2="120.1895"/><line style="stroke:#181818;stroke-width:1.0;" x1="144" x2="363" y1="120.1895" y2="120.1895"/><line style="stroke:#181818;stroke-width:1.0;" x1="363" x2="363" y1="120.1895" y2="135.1895"/><polygon fill="#181818" points="359,125.1895,363,135.1895,367,125.1895,363,129.1895" style="stroke:#181818;stroke-width:1.0;"/><line style="stroke:#181818;stroke-width:1.0;" x1="144" x2="144" y1="329.3887" y2="334.3887"/><line style="stroke:#181818;stroke-width:1.0;" x1="144" x2="363" y1="334.3887" y2="334.3887"/><line style="stroke:#181818;stroke-width:1.0;" x1="363" x2="363" y1="334.3887" y2="349.3887"/><polygon fill="#181818" points="359,339.3887,363,349.3887,367,339.3887,363,343.3887" style="stroke:#181818;stroke-width:1.0;"/><line style="stroke:#181818;stroke-width:1.0;" x1="363" x2="363" y1="439.5762" y2="447.1172"/><line style="stroke:#181818;stroke-width:1.0;" x1="363" x2="144" y1="447.1172" y2="447.1172"/><line style="stroke:#181818;stroke-width:1.0;" x1="144" x2="144" y1="447.1172" y2="459.5762"/><polygon fill="#181818" points="140,449.5762,144,459.5762,148,449.5762,144,453.5762" style="stroke:#181818;stroke-width:1.0;"/><line style="stroke:#181818;stroke-width:1.0;" x1="363" x2="363" y1="225.377" y2="230.377"/><line style="stroke:#181818;stroke-width:1.0;" x1="363" x2="144" y1="230.377" y2="230.377"/><line style="stroke:#181818;stroke-width:1.0;" x1="144" x2="144" y1="230.377" y2="245.377"/><polygon fill="#181818" points="140,235.377,144,245.377,148,235.377,144,239.377" style="stroke:#181818;stroke-width:1.0;"/><line style="stroke:#181818;stroke-width:1.0;" x1="144" x2="144" y1="593.7637" y2="598.7637"/><line style="stroke:#181818;stroke-width:1.0;" x1="144" x2="363" y1="598.7637" y2="598.7637"/><line style="stroke:#181818;stroke-width:1.0;" x1="363" x2="363" y1="598.7637" y2="613.7637"/><polygon fill="#181818" points="359,603.7637,363,613.7637,367,603.7637,363,607.7637" style="stroke:#181818;stroke-width:1.0;"/><line style="stroke:#181818;stroke-width:1.0;" x1="363" x2="363" y1="648.8574" y2="653.8574"/><line style="stroke:#181818;stroke-width:1.0;" x1="363" x2="144" y1="653.8574" y2="653.8574"/><line style="stroke:#181818;stroke-width:1.0;" x1="144" x2="144" y1="653.8574" y2="668.8574"/><polygon fill="#181818" points="140,658.8574,144,668.8574,148,658.8574,144,662.8574" style="stroke:#181818;stroke-width:1.0;"/><text fill="#000000" font-family="sans-serif" font-size="18" lengthAdjust="spacing" textLength="108" x="77.75" y="31.1406">Admin Sistem</text><text fill="#000000" font-family="sans-serif" font-size="18" lengthAdjust="spacing" textLength="171" x="276.5" y="31.1406">Sistem (Backend/DB)</text><!--SRC=[TP4nRuCm48Lt_ueROMA7eGAHL5M250awTBo48vni78HjgGC_laTeQQkqizzxVj-xEMy7jb2pypJCodcSl4gBe14giW6EEDucj72WWFQADbDgNiKG5NZHPDkaBE9PfVbmPWCrcJ257ahq28qu7Mh7q3AKHQRI1eUHZPR01izajbWegSDW_1B_kn5t4EKZQkpXnLxbeQAXO-Dfkl_n58FloKBqXh42I4zik8VzAcWa-ue64gX7Seo67JhEHFStW_XNYdlxcbn0_ihw9139DyCAITFQ9rDa747KS8iwLfBAtGDEUkGUlU1wb7-sWMIQWs4DE-raRz04k_SBcUHKxlzV_9aiJUXfgKZRfQBD6J-kcLQBXmU4Lzk6NkG_lPdS_pP-0000]--></g></svg>