<?xml version="1.0" encoding="us-ascii" standalone="no"?><svg xmlns="http://www.w3.org/2000/svg" xmlns:xlink="http://www.w3.org/1999/xlink" contentStyleType="text/css" height="740px" preserveAspectRatio="none" style="width:1029px;height:740px;background:#FFFFFF;" version="1.1" viewBox="0 0 1029 740" width="1029px" zoomAndPan="magnify"><defs/><g><rect fill="none" height="22.6406" style="stroke:none;stroke-width:1.0;" width="996.75" x="15" y="12.4551"/><ellipse cx="132.5" cy="50.0957" fill="#222222" rx="10" ry="10" style="stroke:#222222;stroke-width:1.0;"/><rect fill="#F1F1F1" height="35.0938" rx="12.5" ry="12.5" style="stroke:#181818;stroke-width:0.5;" width="139" x="63" y="80.0957"/><text fill="#000000" font-family="sans-serif" font-size="12" lengthAdjust="spacing" textLength="119" x="73" y="102.5527">Buka Chat Konsultasi</text><rect fill="#F1F1F1" height="35.0938" rx="12.5" ry="12.5" style="stroke:#181818;stroke-width:0.5;" width="49" x="108" y="135.1895"/><text fill="#000000" font-family="sans-serif" font-size="12" lengthAdjust="spacing" textLength="29" x="118" y="157.6465">-&gt; (A)</text><rect fill="#F1F1F1" height="35.0938" rx="12.5" ry="12.5" style="stroke:#181818;stroke-width:0.5;" width="223" x="21" y="190.2832"/><text fill="#000000" font-family="sans-serif" font-size="12" lengthAdjust="spacing" textLength="203" x="31" y="212.7402">Klik tombol "Unggah Bukti/Dokumen"</text><rect fill="#F1F1F1" height="35.0938" rx="12.5" ry="12.5" style="stroke:#181818;stroke-width:0.5;" width="150" x="57.5" y="245.377"/><text fill="#000000" font-family="sans-serif" font-size="12" lengthAdjust="spacing" textLength="130" x="67.5" y="267.834">Pilih File (PDF/Gambar)</text><polygon fill="#F1F1F1" points="220.25,399.5645,293.25,399.5645,305.25,411.5645,293.25,423.5645,220.25,423.5645,208.25,411.5645,220.25,399.5645" style="stroke:#181818;stroke-width:0.5;"/><text fill="#000000" font-family="sans-serif" font-size="11" lengthAdjust="spacing" textLength="73" x="220.25" y="416.0654">Unggah Ulang?</text><text fill="#000000" font-family="sans-serif" font-size="11" lengthAdjust="spacing" textLength="14" x="194.25" y="409.1475">Ya</text><text fill="#000000" font-family="sans-serif" font-size="11" lengthAdjust="spacing" textLength="25" x="305.25" y="409.1475">Tidak</text><ellipse cx="198.25" cy="443.5645" fill="#F1F1F1" rx="10" ry="10" style="stroke:#181818;stroke-width:0.5;"/><path d="M194.7344,447.5645 L198.0313,438.9707 L199.25,438.9707 L202.7656,447.5645 L201.4844,447.5645 L200.4688,444.9551 L196.8906,444.9551 L195.9375,447.5645 L194.7344,447.5645 Z M197.2188,444.0332 L200.125,444.0332 L199.2344,441.6582 Q198.8125,440.5801 198.625,439.877 Q198.4531,440.7051 198.1563,441.5176 L197.2188,444.0332 Z " fill="#000000"/><ellipse cx="315.25" cy="444.5645" fill="none" rx="11" ry="11" style="stroke:#222222;stroke-width:1.0;"/><ellipse cx="315.25" cy="444.5645" fill="#222222" rx="6" ry="6" style="stroke:#222222;stroke-width:1.0;"/><line style="stroke:#000000;stroke-width:1.5;" x1="15" x2="15" y1="12.4551" y2="728.0332"/><polygon fill="#F1F1F1" points="536.5,300.4707,649.5,300.4707,661.5,312.4707,649.5,324.4707,536.5,324.4707,524.5,312.4707,536.5,300.4707" style="stroke:#181818;stroke-width:0.5;"/><text fill="#000000" font-family="sans-serif" font-size="11" lengthAdjust="spacing" textLength="113" x="536.5" y="316.9717">Format &amp; Ukuran Valid?</text><text fill="#000000" font-family="sans-serif" font-size="11" lengthAdjust="spacing" textLength="14" x="510.5" y="310.0537">Ya</text><text fill="#000000" font-family="sans-serif" font-size="11" lengthAdjust="spacing" textLength="25" x="661.5" y="310.0537">Tidak</text><rect fill="#F1F1F1" height="35.0938" rx="12.5" ry="12.5" style="stroke:#181818;stroke-width:0.5;" width="221" x="358.25" y="344.4707"/><text fill="#000000" font-family="sans-serif" font-size="12" lengthAdjust="spacing" textLength="201" x="368.25" y="366.9277">Enkripsi File (End-to-End Encryption)</text><rect fill="#F1F1F1" height="35.0938" rx="12.5" ry="12.5" style="stroke:#181818;stroke-width:0.5;" width="255" x="341.25" y="399.5645"/><text fill="#000000" font-family="sans-serif" font-size="12" lengthAdjust="spacing" textLength="235" x="351.25" y="422.0215">Simpan File di Database (Tabel Dokumen)</text><rect fill="#F1F1F1" height="35.0938" rx="12.5" ry="12.5" style="stroke:#181818;stroke-width:0.5;" width="224" x="356.75" y="469.6582"/><text fill="#000000" font-family="sans-serif" font-size="12" lengthAdjust="spacing" textLength="204" x="366.75" y="492.1152">Tampilkan Attachment di Ruang Chat</text><rect fill="#F1F1F1" height="35.0938" rx="12.5" ry="12.5" style="stroke:#181818;stroke-width:0.5;" width="89" x="424.25" y="579.8457"/><text fill="#000000" font-family="sans-serif" font-size="12" lengthAdjust="spacing" textLength="69" x="434.25" y="602.3027">Dekripsi File</text><rect fill="#F1F1F1" height="35.0938" rx="12.5" ry="12.5" style="stroke:#181818;stroke-width:0.5;" width="202" x="616.25" y="344.4707"/><text fill="#000000" font-family="sans-serif" font-size="12" lengthAdjust="spacing" textLength="182" x="626.25" y="366.9277">Tampilkan Error "File Tidak Valid"</text><line style="stroke:#000000;stroke-width:1.5;" x1="335.25" x2="335.25" y1="12.4551" y2="728.0332"/><rect fill="#F1F1F1" height="35.0938" rx="12.5" ry="12.5" style="stroke:#181818;stroke-width:0.5;" width="134" x="850.25" y="524.752"/><text fill="#000000" font-family="sans-serif" font-size="12" lengthAdjust="spacing" textLength="114" x="860.25" y="547.209">Klik Unduh/Buka File</text><rect fill="#F1F1F1" height="35.0938" rx="12.5" ry="12.5" style="stroke:#181818;stroke-width:0.5;" width="178" x="828.25" y="634.9395"/><text fill="#000000" font-family="sans-serif" font-size="12" lengthAdjust="spacing" textLength="158" x="838.25" y="657.3965">Buka Berkas Bukti &amp; Analisis</text><ellipse cx="917.25" cy="701.0332" fill="none" rx="11" ry="11" style="stroke:#222222;stroke-width:1.0;"/><ellipse cx="917.25" cy="701.0332" fill="#222222" rx="6" ry="6" style="stroke:#222222;stroke-width:1.0;"/><line style="stroke:#000000;stroke-width:1.5;" x1="822.25" x2="822.25" y1="12.4551" y2="728.0332"/><line style="stroke:#000000;stroke-width:1.5;" x1="1010.25" x2="1010.25" y1="12.4551" y2="728.0332"/><line style="stroke:#181818;stroke-width:1.0;" x1="132.5" x2="132.5" y1="60.0957" y2="80.0957"/><polygon fill="#181818" points="128.5,70.0957,132.5,80.0957,136.5,70.0957,132.5,74.0957" style="stroke:#181818;stroke-width:1.0;"/><line style="stroke:#181818;stroke-width:1.0;" x1="132.5" x2="132.5" y1="115.1895" y2="135.1895"/><polygon fill="#181818" points="128.5,125.1895,132.5,135.1895,136.5,125.1895,132.5,129.1895" style="stroke:#181818;stroke-width:1.0;"/><line style="stroke:#181818;stroke-width:1.0;" x1="132.5" x2="132.5" y1="170.2832" y2="190.2832"/><polygon fill="#181818" points="128.5,180.2832,132.5,190.2832,136.5,180.2832,132.5,184.2832" style="stroke:#181818;stroke-width:1.0;"/><line style="stroke:#181818;stroke-width:1.0;" x1="132.5" x2="132.5" y1="225.377" y2="245.377"/><polygon fill="#181818" points="128.5,235.377,132.5,245.377,136.5,235.377,132.5,239.377" style="stroke:#181818;stroke-width:1.0;"/><line style="stroke:#181818;stroke-width:1.0;" x1="208.25" x2="198.25" y1="411.5645" y2="411.5645"/><line style="stroke:#181818;stroke-width:1.0;" x1="198.25" x2="198.25" y1="411.5645" y2="433.5645"/><polygon fill="#181818" points="194.25,423.5645,198.25,433.5645,202.25,423.5645,198.25,427.5645" style="stroke:#181818;stroke-width:1.0;"/><line style="stroke:#181818;stroke-width:1.0;" x1="305.25" x2="315.25" y1="411.5645" y2="411.5645"/><line style="stroke:#181818;stroke-width:1.0;" x1="315.25" x2="315.25" y1="411.5645" y2="433.5645"/><polygon fill="#181818" points="311.25,423.5645,315.25,433.5645,319.25,423.5645,315.25,427.5645" style="stroke:#181818;stroke-width:1.0;"/><line style="stroke:#181818;stroke-width:1.0;" x1="468.75" x2="468.75" y1="379.5645" y2="399.5645"/><polygon fill="#181818" points="464.75,389.5645,468.75,399.5645,472.75,389.5645,468.75,393.5645" style="stroke:#181818;stroke-width:1.0;"/><line style="stroke:#181818;stroke-width:1.0;" x1="468.75" x2="468.75" y1="434.6582" y2="469.6582"/><polygon fill="#181818" points="464.75,459.6582,468.75,469.6582,472.75,459.6582,468.75,463.6582" style="stroke:#181818;stroke-width:1.0;"/><line style="stroke:#181818;stroke-width:1.0;" x1="524.5" x2="468.75" y1="312.4707" y2="312.4707"/><line style="stroke:#181818;stroke-width:1.0;" x1="468.75" x2="468.75" y1="312.4707" y2="344.4707"/><polygon fill="#181818" points="464.75,334.4707,468.75,344.4707,472.75,334.4707,468.75,338.4707" style="stroke:#181818;stroke-width:1.0;"/><line style="stroke:#181818;stroke-width:1.0;" x1="661.5" x2="717.25" y1="312.4707" y2="312.4707"/><line style="stroke:#181818;stroke-width:1.0;" x1="717.25" x2="717.25" y1="312.4707" y2="344.4707"/><polygon fill="#181818" points="713.25,334.4707,717.25,344.4707,721.25,334.4707,717.25,338.4707" style="stroke:#181818;stroke-width:1.0;"/><line style="stroke:#181818;stroke-width:1.0;" x1="917.25" x2="917.25" y1="670.0332" y2="690.0332"/><polygon fill="#181818" points="913.25,680.0332,917.25,690.0332,921.25,680.0332,917.25,684.0332" style="stroke:#181818;stroke-width:1.0;"/><line style="stroke:#181818;stroke-width:1.0;" x1="468.75" x2="468.75" y1="504.752" y2="509.752"/><line style="stroke:#181818;stroke-width:1.0;" x1="468.75" x2="917.25" y1="509.752" y2="509.752"/><line style="stroke:#181818;stroke-width:1.0;" x1="917.25" x2="917.25" y1="509.752" y2="524.752"/><polygon fill="#181818" points="913.25,514.752,917.25,524.752,921.25,514.752,917.25,518.752" style="stroke:#181818;stroke-width:1.0;"/><line style="stroke:#181818;stroke-width:1.0;" x1="917.25" x2="917.25" y1="559.8457" y2="564.8457"/><line style="stroke:#181818;stroke-width:1.0;" x1="917.25" x2="468.75" y1="564.8457" y2="564.8457"/><line style="stroke:#181818;stroke-width:1.0;" x1="468.75" x2="468.75" y1="564.8457" y2="579.8457"/><polygon fill="#181818" points="464.75,569.8457,468.75,579.8457,472.75,569.8457,468.75,573.8457" style="stroke:#181818;stroke-width:1.0;"/><line style="stroke:#181818;stroke-width:1.0;" x1="468.75" x2="468.75" y1="614.9395" y2="619.9395"/><line style="stroke:#181818;stroke-width:1.0;" x1="468.75" x2="917.25" y1="619.9395" y2="619.9395"/><line style="stroke:#181818;stroke-width:1.0;" x1="917.25" x2="917.25" y1="619.9395" y2="634.9395"/><polygon fill="#181818" points="913.25,624.9395,917.25,634.9395,921.25,624.9395,917.25,628.9395" style="stroke:#181818;stroke-width:1.0;"/><line style="stroke:#181818;stroke-width:1.0;" x1="717.25" x2="717.25" y1="379.5645" y2="384.5645"/><line style="stroke:#181818;stroke-width:1.0;" x1="717.25" x2="256.75" y1="384.5645" y2="384.5645"/><line style="stroke:#181818;stroke-width:1.0;" x1="256.75" x2="256.75" y1="384.5645" y2="399.5645"/><polygon fill="#181818" points="252.75,389.5645,256.75,399.5645,260.75,389.5645,256.75,393.5645" style="stroke:#181818;stroke-width:1.0;"/><line style="stroke:#181818;stroke-width:1.0;" x1="132.5" x2="132.5" y1="280.4707" y2="285.4707"/><line style="stroke:#181818;stroke-width:1.0;" x1="132.5" x2="593" y1="285.4707" y2="285.4707"/><line style="stroke:#181818;stroke-width:1.0;" x1="593" x2="593" y1="285.4707" y2="300.4707"/><polygon fill="#181818" points="589,290.4707,593,300.4707,597,290.4707,593,294.4707" style="stroke:#181818;stroke-width:1.0;"/><text fill="#000000" font-family="sans-serif" font-size="18" lengthAdjust="spacing" textLength="193" x="78.625" y="31.1406">Klien (Pencari Keadilan)</text><text fill="#000000" font-family="sans-serif" font-size="18" lengthAdjust="spacing" textLength="54" x="551.75" y="31.1406">Sistem</text><text fill="#000000" font-family="sans-serif" font-size="18" lengthAdjust="spacing" textLength="64" x="884.25" y="31.1406">Advokat</text><!--SRC=[TL4zQyCm4DtrAuuC9HvCzWHQt3hfa2KqIQ7Z9LBiGx9a9BbGy8_lIN5e2IqOoyZltVkuSMj8MPZlb3sZ9zWgb6JG5gC84NqKo-T18xoq667hR1XCn40hKPQFCAyAiMI-XkYwapCmEzgcmHQO4cbHEprqoivMOhaZGorio2XMgZUBL-nEw8kL4EEUGbJTAEW2yutp7Uiym54F7Ysyeo7vL41iayKFB0J0ScsrfpxGD6vjPHbToGUixTb_zP6SvScCt5FNyvICamGrHZnXOCu1Jyh0vE-AFM3Naz4ChsB4Syi_OYAz3MYR73_1-1ah-UaqnZ6nSlYZbKExo3KbgHlk5enXjVfb-QyvcVoilCPmBOyxg2od3nGIFaJN2sMoTvAeYpk17_Thxvs7MSwSeTSIPpVL_zSDa5OmRV38TyrTyv0NdawfKaNyUMTfCihtLj95vFSt]--></g></svg>