<svg xmlns="http://www.w3.org/2000/svg" xmlns:xlink="http://www.w3.org/1999/xlink" contentStyleType="text/css" data-diagram-type="ACTIVITY" height="3069px" preserveAspectRatio="none" style="width:2071px;height:3069px;background:#FFFFFF;" version="1.1" viewBox="0 0 2071 3069" width="2071px" zoomAndPan="magnify"><title>AD-P2-01: Corporate Intake &amp; Notary Stamping</title><defs/><g><text fill="#000000" font-family="sans-serif" font-size="14" font-weight="bold" lengthAdjust="spacing" textLength="311.9443" x="878.4866" y="34.5332">AD-P2-01: Corporate Intake &amp; Notary Stamping</text><rect fill="none" height="22.6406" style="stroke:none;stroke-width:1;" width="2038.9175" x="15" y="51.0645"/><ellipse cx="288.8877" cy="88.7051" fill="#222222" rx="10" ry="10" style="stroke:#222222;stroke-width:1;"/><rect fill="#F1F1F1" height="65.2813" rx="12.5" ry="12.5" style="stroke:#181818;stroke-width:0.5;" width="246.7461" x="165.5146" y="118.7051"/><text fill="#000000" font-family="sans-serif" font-size="12" lengthAdjust="spacing" textLength="224.1152" x="175.5146" y="141.1621">[AD01-01] Isi dan submit Corporate Intake</text><text fill="#000000" font-family="sans-serif" font-size="12" lengthAdjust="spacing" textLength="226.7461" x="175.5146" y="156.2559">(PT/CV, KBLI, struktur, natural-person BO,</text><text fill="#000000" font-family="sans-serif" font-size="12" lengthAdjust="spacing" textLength="162.0938" x="175.5146" y="171.3496">consent dan versi legal scope)</text><rect fill="#F1F1F1" height="35.0938" rx="12.5" ry="12.5" style="stroke:#181818;stroke-width:0.5;" width="158.082" x="209.8467" y="371.0928"/><text fill="#000000" font-family="sans-serif" font-size="12" lengthAdjust="spacing" textLength="138.082" x="219.8467" y="393.5498">Perbaiki dan submit ulang</text><rect fill="#F1F1F1" height="35.0938" rx="12.5" ry="12.5" style="stroke:#181818;stroke-width:0.5;" width="280.8418" x="148.4668" y="643.6553"/><text fill="#000000" font-family="sans-serif" font-size="12" lengthAdjust="spacing" textLength="260.8418" x="158.4668" y="666.1123">Setujui penawaran dan pilih metode pembayaran</text><rect fill="#F1F1F1" height="35.0938" rx="12.5" ry="12.5" style="stroke:#181818;stroke-width:0.5;" width="250.8184" x="21" y="1063.4053"/><text fill="#000000" font-family="sans-serif" font-size="12" lengthAdjust="spacing" textLength="230.8184" x="31" y="1085.8623">Ulangi pembayaran atau batalkan checkout</text><ellipse cx="146.4092" cy="1129.499" fill="none" rx="11" ry="11" style="stroke:#222222;stroke-width:1;"/><ellipse cx="146.4092" cy="1129.499" fill="#222222" rx="6" ry="6" style="stroke:#222222;stroke-width:1;"/><rect fill="#F1F1F1" height="65.2813" rx="12.5" ry="12.5" style="stroke:#181818;stroke-width:0.5;" width="279.0957" x="291.8184" y="923.124"/><text fill="#000000" font-family="sans-serif" font-size="12" lengthAdjust="spacing" textLength="259.0957" x="301.8184" y="945.5811">Set escrow_transactions = HELD_IN_ESCROW;</text><text fill="#000000" font-family="sans-serif" font-size="12" lengthAdjust="spacing" textLength="137.707" x="301.8184" y="960.6748">set milestone = FUNDED;</text><text fill="#000000" font-family="sans-serif" font-size="12" lengthAdjust="spacing" textLength="132.0938" x="301.8184" y="975.7686">catat ledger append-only</text><rect fill="#F1F1F1" height="35.0938" rx="12.5" ry="12.5" style="stroke:#181818;stroke-width:0.5;" width="242.8262" x="167.4746" y="1508.6328"/><text fill="#000000" font-family="sans-serif" font-size="12" lengthAdjust="spacing" textLength="222.8262" x="177.4746" y="1531.0898">Lengkapi data/dokumen dan submit ulang</text><rect fill="#F1F1F1" height="35.0938" rx="12.5" ry="12.5" style="stroke:#181818;stroke-width:0.5;" width="271.4609" x="153.1572" y="2925.376"/><text fill="#000000" font-family="sans-serif" font-size="12" lengthAdjust="spacing" textLength="251.4609" x="163.1572" y="2947.833">Unduh dokumen final melalui akses terotorisasi</text><line style="stroke:#000000;stroke-width:1.5;" x1="15" x2="15" y1="51.0645" y2="3057.5635"/><rect fill="#F1F1F1" height="35.0938" rx="12.5" ry="12.5" style="stroke:#181818;stroke-width:0.5;" width="251.4746" x="709.7227" y="203.9863"/><text fill="#000000" font-family="sans-serif" font-size="12" lengthAdjust="spacing" textLength="231.4746" x="719.7227" y="226.4434">[AD01-02] Validasi format dan kelengkapan</text><rect fill="#F1F1F1" height="35.0938" rx="12.5" ry="12.5" style="stroke:#181818;stroke-width:0.5;" width="145.3789" x="762.7705" y="315.999"/><text fill="#000000" font-family="sans-serif" font-size="12" lengthAdjust="spacing" textLength="125.3789" x="772.7705" y="338.4561">Tampilkan error terarah</text><rect fill="#F1F1F1" height="35.0938" rx="12.5" ry="12.5" style="stroke:#181818;stroke-width:0.5;" width="140.0879" x="765.416" y="426.1865"/><text fill="#000000" font-family="sans-serif" font-size="12" lengthAdjust="spacing" textLength="120.0879" x="775.416" y="448.6436">Validasi ulang payload</text><polygon fill="#F1F1F1" points="799.6858,259.0801,871.2341,259.0801,883.2341,271.0801,871.2341,283.0801,799.6858,283.0801,787.6858,271.0801,799.6858,259.0801" style="stroke:#181818;stroke-width:0.5;"/><text fill="#000000" font-family="sans-serif" font-size="11" lengthAdjust="spacing" textLength="26.8984" x="839.46" y="294.499">Tidak</text><text fill="#000000" font-family="sans-serif" font-size="11" lengthAdjust="spacing" textLength="71.5483" x="799.6858" y="275.5811">Payload valid?</text><text fill="#000000" font-family="sans-serif" font-size="11" lengthAdjust="spacing" textLength="13.4546" x="774.2312" y="268.6631">Ya</text><rect fill="#F1F1F1" height="35.0938" rx="12.5" ry="12.5" style="stroke:#181818;stroke-width:0.5;" width="316.1621" x="677.3789" y="588.5615"/><text fill="#000000" font-family="sans-serif" font-size="12" lengthAdjust="spacing" textLength="296.1621" x="687.3789" y="611.0186">[AD01-04] Tampilkan checkout dan penawaran berversi</text><rect fill="#F1F1F1" height="35.0938" rx="12.5" ry="12.5" style="stroke:#181818;stroke-width:0.5;" width="224.1348" x="580.9141" y="1008.3115"/><text fill="#000000" font-family="sans-serif" font-size="12" lengthAdjust="spacing" textLength="204.1348" x="590.9141" y="1030.7686">Tampilkan pembayaran gagal/pending</text><rect fill="#F1F1F1" height="50.1875" rx="12.5" ry="12.5" style="stroke:#181818;stroke-width:0.5;" width="250.0918" x="710.4141" y="2855.1885"/><text fill="#000000" font-family="sans-serif" font-size="12" lengthAdjust="spacing" textLength="192.0879" x="720.4141" y="2877.6455">[AD01-14] Tampilkan status selesai,</text><text fill="#000000" font-family="sans-serif" font-size="12" lengthAdjust="spacing" textLength="230.0918" x="720.4141" y="2892.7393">dokumen WORM, dan payout terkonfirmasi</text><line style="stroke:#000000;stroke-width:1.5;" x1="574.9141" x2="574.9141" y1="51.0645" y2="3057.5635"/><rect fill="#F1F1F1" height="65.2813" rx="12.5" ry="12.5" style="stroke:#181818;stroke-width:0.5;" width="260.0879" x="1116.3389" y="503.2803"/><text fill="#000000" font-family="sans-serif" font-size="12" lengthAdjust="spacing" textLength="240.0879" x="1126.3389" y="525.7373">[AD01-03] Simpan case DRAFT, parties, BO,</text><text fill="#000000" font-family="sans-serif" font-size="12" lengthAdjust="spacing" textLength="202.1016" x="1126.3389" y="540.8311">service order, fee lines, dan milestone</text><text fill="#000000" font-family="sans-serif" font-size="12" lengthAdjust="spacing" textLength="74.6953" x="1126.3389" y="555.9248">secara atomik</text><rect fill="#F1F1F1" height="50.1875" rx="12.5" ry="12.5" style="stroke:#181818;stroke-width:0.5;" width="310.7949" x="1090.9854" y="808.9365"/><text fill="#000000" font-family="sans-serif" font-size="12" lengthAdjust="spacing" textLength="290.7949" x="1100.9854" y="831.3936">[AD01-05] Verifikasi HMAC, event, order, dan nominal;</text><text fill="#000000" font-family="sans-serif" font-size="12" lengthAdjust="spacing" textLength="280.4004" x="1100.9854" y="846.4873">lock event + escrow row (SELECT ... FOR UPDATE)</text><polygon fill="#F1F1F1" points="1164.4414,879.124,1328.3242,879.124,1340.3242,891.124,1328.3242,903.124,1164.4414,903.124,1152.4414,891.124,1164.4414,879.124" style="stroke:#181818;stroke-width:0.5;"/><text fill="#000000" font-family="sans-serif" font-size="11" lengthAdjust="spacing" textLength="163.8828" x="1164.4414" y="895.625">Webhook dan pembayaran valid?</text><text fill="#000000" font-family="sans-serif" font-size="11" lengthAdjust="spacing" textLength="26.8984" x="1125.543" y="888.707">Tidak</text><text fill="#000000" font-family="sans-serif" font-size="11" lengthAdjust="spacing" textLength="13.4546" x="1340.3242" y="888.707">Ya</text><rect fill="#F1F1F1" height="50.1875" rx="12.5" ry="12.5" style="stroke:#181818;stroke-width:0.5;" width="200.7266" x="1003.541" y="923.124"/><text fill="#000000" font-family="sans-serif" font-size="12" lengthAdjust="spacing" textLength="118.7168" x="1013.541" y="945.5811">Tolak mutasi finansial;</text><text fill="#000000" font-family="sans-serif" font-size="12" lengthAdjust="spacing" textLength="180.7266" x="1013.541" y="960.6748">order tetap PENDING_PAYMENT</text><rect fill="#F1F1F1" height="50.1875" rx="12.5" ry="12.5" style="stroke:#181818;stroke-width:0.5;" width="251.0879" x="1120.8389" y="1160.499"/><text fill="#000000" font-family="sans-serif" font-size="12" lengthAdjust="spacing" textLength="231.0879" x="1130.8389" y="1182.9561">[AD01-06] Set case = ESCROW_LOCKED;</text><text fill="#000000" font-family="sans-serif" font-size="12" lengthAdjust="spacing" textLength="163.4238" x="1130.8389" y="1198.0498">tugaskan dan notifikasi Notaris</text><rect fill="#F1F1F1" height="50.1875" rx="12.5" ry="12.5" style="stroke:#181818;stroke-width:0.5;" width="301.4902" x="1095.6377" y="1427.9805"/><text fill="#000000" font-family="sans-serif" font-size="12" lengthAdjust="spacing" textLength="281.4902" x="1105.6377" y="1450.4375">Simpan expected-state transition dan notifikasi Klien;</text><text fill="#000000" font-family="sans-serif" font-size="12" lengthAdjust="spacing" textLength="171.4102" x="1105.6377" y="1465.5313">dana tetap HELD_IN_ESCROW</text><rect fill="#F1F1F1" height="35.0938" rx="12.5" ry="12.5" style="stroke:#181818;stroke-width:0.5;" width="198.1016" x="1147.332" y="1563.7266"/><text fill="#000000" font-family="sans-serif" font-size="12" lengthAdjust="spacing" textLength="178.1016" x="1157.332" y="1586.1836">Simpan revisi dan audit metadata</text><rect fill="#F1F1F1" height="50.1875" rx="12.5" ry="12.5" style="stroke:#181818;stroke-width:0.5;" width="323.8379" x="1084.4639" y="1766.1016"/><text fill="#000000" font-family="sans-serif" font-size="12" lengthAdjust="spacing" textLength="253.4414" x="1094.4639" y="1788.5586">Buat government_submission_job SUBMITTED</text><text fill="#000000" font-family="sans-serif" font-size="12" lengthAdjust="spacing" textLength="303.8379" x="1094.4639" y="1803.6523">(digest + idempotency key, tanpa raw credential/payload)</text><rect fill="#F1F1F1" height="35.0938" rx="12.5" ry="12.5" style="stroke:#181818;stroke-width:0.5;" width="348.1777" x="1072.2939" y="1893.208"/><text fill="#000000" font-family="sans-serif" font-size="12" lengthAdjust="spacing" textLength="328.1777" x="1082.2939" y="1915.665">[AD01-10] Catat REJECTED dan alasan yang boleh disimpan</text><rect fill="#F1F1F1" height="35.0938" rx="12.5" ry="12.5" style="stroke:#181818;stroke-width:0.5;" width="298.8242" x="1096.9707" y="2003.3955"/><text fill="#000000" font-family="sans-serif" font-size="12" lengthAdjust="spacing" textLength="278.8242" x="1106.9707" y="2025.8525">Buat job DRAFT baru dengan idempotency key baru</text><rect fill="#F1F1F1" height="35.0938" rx="12.5" ry="12.5" style="stroke:#181818;stroke-width:0.5;" width="171.7051" x="1160.5303" y="2113.583"/><text fill="#000000" font-family="sans-serif" font-size="12" lengthAdjust="spacing" textLength="151.7051" x="1170.5303" y="2136.04">Set job revisi = SUBMITTED</text><polygon fill="#F1F1F1" points="1193.1875,1836.2891,1299.5781,1836.2891,1311.5781,1848.2891,1299.5781,1860.2891,1193.1875,1860.2891,1181.1875,1848.2891,1193.1875,1836.2891" style="stroke:#181818;stroke-width:0.5;"/><text fill="#000000" font-family="sans-serif" font-size="11" lengthAdjust="spacing" textLength="106.9707" x="1250.3828" y="1871.708">Tidak &#226;&#8364;&#8221; REJECTED</text><text fill="#000000" font-family="sans-serif" font-size="11" lengthAdjust="spacing" textLength="106.3906" x="1193.1875" y="1852.79">Submission disetujui?</text><text fill="#000000" font-family="sans-serif" font-size="11" lengthAdjust="spacing" textLength="96.5938" x="1084.5938" y="1845.8721">Ya &#226;&#8364;&#8221; APPROVED</text><rect fill="#F1F1F1" height="50.1875" rx="12.5" ry="12.5" style="stroke:#181818;stroke-width:0.5;" width="234.0781" x="1129.3438" y="2190.6768"/><text fill="#000000" font-family="sans-serif" font-size="12" lengthAdjust="spacing" textLength="214.0781" x="1139.3438" y="2213.1338">[AD01-11] Rekonsiliasi nomor AHU/NIB,</text><text fill="#000000" font-family="sans-serif" font-size="12" lengthAdjust="spacing" textLength="184.1133" x="1139.3438" y="2228.2275">external reference, dan digest final</text><rect fill="#F1F1F1" height="50.1875" rx="12.5" ry="12.5" style="stroke:#181818;stroke-width:0.5;" width="218.1113" x="1137.3271" y="2309.7822"/><text fill="#000000" font-family="sans-serif" font-size="12" lengthAdjust="spacing" textLength="144.041" x="1147.3271" y="2332.2393">Set COMPLIANCE_HOLD;</text><text fill="#000000" font-family="sans-serif" font-size="12" lengthAdjust="spacing" textLength="198.1113" x="1147.3271" y="2347.333">blok payout dan minta review internal</text><ellipse cx="1246.3828" cy="2405.9697" fill="none" rx="11" ry="11" style="stroke:#222222;stroke-width:1;"/><ellipse cx="1246.3828" cy="2405.9697" fill="#222222" rx="6" ry="6" style="stroke:#222222;stroke-width:1;"/><polygon fill="#F1F1F1" points="1189.5217,2260.8643,1303.2439,2260.8643,1315.2439,2272.8643,1303.2439,2284.8643,1189.5217,2284.8643,1177.5217,2272.8643,1189.5217,2260.8643" style="stroke:#181818;stroke-width:0.5;"/><text fill="#000000" font-family="sans-serif" font-size="11" lengthAdjust="spacing" textLength="26.8984" x="1250.3828" y="2296.2832">Tidak</text><text fill="#000000" font-family="sans-serif" font-size="11" lengthAdjust="spacing" textLength="113.7222" x="1189.5217" y="2277.3652">Rekonsiliasi final valid?</text><text fill="#000000" font-family="sans-serif" font-size="11" lengthAdjust="spacing" textLength="13.4546" x="1315.2439" y="2270.4473">Ya</text><rect fill="#F1F1F1" height="80.375" rx="12.5" ry="12.5" style="stroke:#181818;stroke-width:0.5;" width="249.0723" x="1121.8467" y="2514.0635"/><text fill="#000000" font-family="sans-serif" font-size="12" lengthAdjust="spacing" textLength="229.0723" x="1131.8467" y="2536.5205">[AD01-12] MIME allow-list + malware scan;</text><text fill="#000000" font-family="sans-serif" font-size="12" lengthAdjust="spacing" textLength="150.7383" x="1131.8467" y="2551.6143">hitung SHA-256 server-side;</text><text fill="#000000" font-family="sans-serif" font-size="12" lengthAdjust="spacing" textLength="192.7734" x="1131.8467" y="2566.708">simpan document_integrity_anchors</text><text fill="#000000" font-family="sans-serif" font-size="12" lengthAdjust="spacing" textLength="149.4375" x="1131.8467" y="2581.8018">append-only dan kunci case</text><rect fill="#F1F1F1" height="80.375" rx="12.5" ry="12.5" style="stroke:#181818;stroke-width:0.5;" width="234.1191" x="1129.3232" y="2614.4385"/><text fill="#000000" font-family="sans-serif" font-size="12" lengthAdjust="spacing" textLength="198.1172" x="1139.3232" y="2636.8955">[AD01-13] Siapkan payout milestone;</text><text fill="#000000" font-family="sans-serif" font-size="12" lengthAdjust="spacing" textLength="178.4121" x="1139.3232" y="2651.9893">commit intent + idempotency key;</text><text fill="#000000" font-family="sans-serif" font-size="12" lengthAdjust="spacing" textLength="196.0957" x="1139.3232" y="2667.083">panggil provider di luar transaksi DB;</text><text fill="#000000" font-family="sans-serif" font-size="12" lengthAdjust="spacing" textLength="214.1191" x="1139.3232" y="2682.1768">finalize dengan row lock dan rekonsiliasi</text><rect fill="#F1F1F1" height="50.1875" rx="12.5" ry="12.5" style="stroke:#181818;stroke-width:0.5;" width="235.4609" x="1128.6523" y="2785.001"/><text fill="#000000" font-family="sans-serif" font-size="12" lengthAdjust="spacing" textLength="153.7383" x="1138.6523" y="2807.458">Set milestone = RELEASED;</text><text fill="#000000" font-family="sans-serif" font-size="12" lengthAdjust="spacing" textLength="215.4609" x="1138.6523" y="2822.5518">catat payout result dan audit_logs_worm</text><line style="stroke:#000000;stroke-width:1.5;" x1="997.541" x2="997.541" y1="51.0645" y2="3057.5635"/><rect fill="#F1F1F1" height="35.0938" rx="12.5" ry="12.5" style="stroke:#181818;stroke-width:0.5;" width="216.7461" x="1478.8408" y="698.749"/><text fill="#000000" font-family="sans-serif" font-size="12" lengthAdjust="spacing" textLength="196.7461" x="1488.8408" y="721.2061">Terima transfer ke rekening bersama</text><rect fill="#F1F1F1" height="35.0938" rx="12.5" ry="12.5" style="stroke:#181818;stroke-width:0.5;" width="259.4844" x="1457.4717" y="753.8428"/><text fill="#000000" font-family="sans-serif" font-size="12" lengthAdjust="spacing" textLength="239.4844" x="1467.4717" y="776.2998">Kirim webhook pembayaran bertanda tangan</text><rect fill="#F1F1F1" height="50.1875" rx="12.5" ry="12.5" style="stroke:#181818;stroke-width:0.5;" width="246.1016" x="1464.1631" y="2714.8135"/><text fill="#000000" font-family="sans-serif" font-size="12" lengthAdjust="spacing" textLength="226.1016" x="1474.1631" y="2737.2705">Transfer dana escrow ke rekening Notaris;</text><text fill="#000000" font-family="sans-serif" font-size="12" lengthAdjust="spacing" textLength="189.4336" x="1474.1631" y="2752.3643">kembalikan reference terautentikasi</text><line style="stroke:#000000;stroke-width:1.5;" x1="1451.4717" x2="1451.4717" y1="51.0645" y2="3057.5635"/><rect fill="#F1F1F1" height="50.1875" rx="12.5" ry="12.5" style="stroke:#181818;stroke-width:0.5;" width="265.4609" x="1753.9561" y="1230.6865"/><text fill="#000000" font-family="sans-serif" font-size="12" lengthAdjust="spacing" textLength="245.4609" x="1763.9561" y="1253.1436">[AD01-07] Buka workspace dan review intake,</text><text fill="#000000" font-family="sans-serif" font-size="12" lengthAdjust="spacing" textLength="230.0977" x="1763.9561" y="1268.2373">BO, identitas, KBLI, domisili, dan formalitas</text><rect fill="#F1F1F1" height="50.1875" rx="12.5" ry="12.5" style="stroke:#181818;stroke-width:0.5;" width="250.7129" x="1761.3301" y="1357.793"/><text fill="#000000" font-family="sans-serif" font-size="12" lengthAdjust="spacing" textLength="230.7129" x="1771.3301" y="1380.25">Tandai CUSTOMER_ACTION_REQUIRED</text><text fill="#000000" font-family="sans-serif" font-size="12" lengthAdjust="spacing" textLength="181.4297" x="1771.3301" y="1395.3438">(tanpa alasan compliance sensitif)</text><rect fill="#F1F1F1" height="35.0938" rx="12.5" ry="12.5" style="stroke:#181818;stroke-width:0.5;" width="180.7402" x="1796.3164" y="1618.8203"/><text fill="#000000" font-family="sans-serif" font-size="12" lengthAdjust="spacing" textLength="160.7402" x="1806.3164" y="1641.2773">[AD01-08] Review ulang revisi</text><polygon fill="#F1F1F1" points="1799.5378,1300.874,1973.8352,1300.874,1985.8352,1312.874,1973.8352,1324.874,1799.5378,1324.874,1787.5378,1312.874,1799.5378,1300.874" style="stroke:#181818;stroke-width:0.5;"/><text fill="#000000" font-family="sans-serif" font-size="11" lengthAdjust="spacing" textLength="26.8984" x="1890.6865" y="1336.293">Tidak</text><text fill="#000000" font-family="sans-serif" font-size="11" lengthAdjust="spacing" textLength="174.2974" x="1799.5378" y="1317.375">Intake lengkap dan dapat diproses?</text><text fill="#000000" font-family="sans-serif" font-size="11" lengthAdjust="spacing" textLength="13.4546" x="1774.0833" y="1310.457">Ya</text><rect fill="#F1F1F1" height="50.1875" rx="12.5" ry="12.5" style="stroke:#181818;stroke-width:0.5;" width="260.1289" x="1756.6221" y="1695.9141"/><text fill="#000000" font-family="sans-serif" font-size="12" lengthAdjust="spacing" textLength="221.4316" x="1766.6221" y="1718.3711">[AD01-09] Siapkan submission AHU/OSS</text><text fill="#000000" font-family="sans-serif" font-size="12" lengthAdjust="spacing" textLength="240.1289" x="1766.6221" y="1733.4648">melalui kanal resmi dengan credential sendiri</text><rect fill="#F1F1F1" height="35.0938" rx="12.5" ry="12.5" style="stroke:#181818;stroke-width:0.5;" width="132.0605" x="1820.6563" y="1948.3018"/><text fill="#000000" font-family="sans-serif" font-size="12" lengthAdjust="spacing" textLength="112.0605" x="1830.6563" y="1970.7588">Revisi data/dokumen</text><rect fill="#F1F1F1" height="35.0938" rx="12.5" ry="12.5" style="stroke:#181818;stroke-width:0.5;" width="196.0801" x="1788.6465" y="2058.4893"/><text fill="#000000" font-family="sans-serif" font-size="12" lengthAdjust="spacing" textLength="176.0801" x="1798.6465" y="2080.9463">Submit ulang melalui kanal resmi</text><rect fill="#F1F1F1" height="35.0938" rx="12.5" ry="12.5" style="stroke:#181818;stroke-width:0.5;" width="227.457" x="1772.958" y="2458.9697"/><text fill="#000000" font-family="sans-serif" font-size="12" lengthAdjust="spacing" textLength="207.457" x="1782.958" y="2481.4268">Unggah dokumen final ke bucket privat</text><rect fill="#F1F1F1" height="35.0938" rx="12.5" ry="12.5" style="stroke:#181818;stroke-width:0.5;" width="154.7129" x="1809.3301" y="2980.4697"/><text fill="#000000" font-family="sans-serif" font-size="12" lengthAdjust="spacing" textLength="134.7129" x="1819.3301" y="3002.9268">Terima konfirmasi payout</text><ellipse cx="1886.6865" cy="3046.5635" fill="none" rx="11" ry="11" style="stroke:#222222;stroke-width:1;"/><ellipse cx="1886.6865" cy="3046.5635" fill="#222222" rx="6" ry="6" style="stroke:#222222;stroke-width:1;"/><line style="stroke:#000000;stroke-width:1.5;" x1="1720.9561" x2="1720.9561" y1="51.0645" y2="3057.5635"/><line style="stroke:#000000;stroke-width:1.5;" x1="2052.417" x2="2052.417" y1="51.0645" y2="3057.5635"/><line style="stroke:#181818;stroke-width:1;" x1="288.8877" x2="288.8877" y1="98.7051" y2="118.7051"/><polygon fill="#181818" points="284.8877,108.7051,288.8877,118.7051,292.8877,108.7051,288.8877,112.7051" style="stroke:#181818;stroke-width:1;"/><line style="stroke:#181818;stroke-width:1;" x1="146.4092" x2="146.4092" y1="1098.499" y2="1118.499"/><polygon fill="#181818" points="142.4092,1108.499,146.4092,1118.499,150.4092,1108.499,146.4092,1112.499" style="stroke:#181818;stroke-width:1;"/><line style="stroke:#181818;stroke-width:1;" x1="835.46" x2="835.46" y1="283.0801" y2="315.999"/><polygon fill="#181818" points="831.46,305.999,835.46,315.999,839.46,305.999,835.46,309.999" style="stroke:#181818;stroke-width:1;"/><line style="stroke:#181818;stroke-width:1;" x1="835.46" x2="835.46" y1="461.2803" y2="471.2803"/><line style="stroke:#181818;stroke-width:1;" x1="835.46" x2="926.501" y1="471.2803" y2="471.2803"/><polygon fill="#181818" points="922.501,379.7217,926.501,369.7217,930.501,379.7217,926.501,375.7217" style="stroke:#181818;stroke-width:1;"/><line style="stroke:#181818;stroke-width:1;" x1="926.501" x2="926.501" y1="271.0801" y2="471.2803"/><line style="stroke:#181818;stroke-width:1;" x1="926.501" x2="883.2341" y1="271.0801" y2="271.0801"/><polygon fill="#181818" points="893.2341,267.0801,883.2341,271.0801,893.2341,275.0801,889.2341,271.0801" style="stroke:#181818;stroke-width:1;"/><line style="stroke:#181818;stroke-width:1;" x1="787.6858" x2="744.4189" y1="271.0801" y2="271.0801"/><polygon fill="#181818" points="740.4189,374.4717,744.4189,384.4717,748.4189,374.4717,744.4189,378.4717" style="stroke:#181818;stroke-width:1;"/><line style="stroke:#181818;stroke-width:1;" x1="744.4189" x2="744.4189" y1="271.0801" y2="488.2803"/><line style="stroke:#181818;stroke-width:1;" x1="744.4189" x2="1246.3828" y1="488.2803" y2="488.2803"/><line style="stroke:#181818;stroke-width:1;" x1="1246.3828" x2="1246.3828" y1="488.2803" y2="503.2803"/><polygon fill="#181818" points="1242.3828,493.2803,1246.3828,503.2803,1250.3828,493.2803,1246.3828,497.2803" style="stroke:#181818;stroke-width:1;"/><line style="stroke:#181818;stroke-width:1;" x1="835.46" x2="835.46" y1="239.0801" y2="259.0801"/><polygon fill="#181818" points="831.46,249.0801,835.46,259.0801,839.46,249.0801,835.46,253.0801" style="stroke:#181818;stroke-width:1;"/><line style="stroke:#181818;stroke-width:1;" x1="1152.4414" x2="1103.9043" y1="891.124" y2="891.124"/><line style="stroke:#181818;stroke-width:1;" x1="1103.9043" x2="1103.9043" y1="891.124" y2="923.124"/><polygon fill="#181818" points="1099.9043,913.124,1103.9043,923.124,1107.9043,913.124,1103.9043,917.124" style="stroke:#181818;stroke-width:1;"/><line style="stroke:#181818;stroke-width:1;" x1="1246.3828" x2="1246.3828" y1="859.124" y2="879.124"/><polygon fill="#181818" points="1242.3828,869.124,1246.3828,879.124,1250.3828,869.124,1246.3828,873.124" style="stroke:#181818;stroke-width:1;"/><line style="stroke:#181818;stroke-width:1;" x1="431.3662" x2="431.3662" y1="988.4053" y2="1144.499"/><line style="stroke:#181818;stroke-width:1;" x1="431.3662" x2="1246.3828" y1="1144.499" y2="1144.499"/><line style="stroke:#181818;stroke-width:1;" x1="1246.3828" x2="1246.3828" y1="1144.499" y2="1160.499"/><polygon fill="#181818" points="1242.3828,1150.499,1246.3828,1160.499,1250.3828,1150.499,1246.3828,1154.499" style="stroke:#181818;stroke-width:1;"/><line style="stroke:#181818;stroke-width:1;" x1="1246.3828" x2="1246.3828" y1="1860.2891" y2="1893.208"/><polygon fill="#181818" points="1242.3828,1883.208,1246.3828,1893.208,1250.3828,1883.208,1246.3828,1887.208" style="stroke:#181818;stroke-width:1;"/><line style="stroke:#181818;stroke-width:1;" x1="1246.3828" x2="1246.3828" y1="2148.6768" y2="2158.6768"/><line style="stroke:#181818;stroke-width:1;" x1="1246.3828" x2="1432.4717" y1="2158.6768" y2="2158.6768"/><polygon fill="#181818" points="1428.4717,2012.0244,1432.4717,2002.0244,1436.4717,2012.0244,1432.4717,2008.0244" style="stroke:#181818;stroke-width:1;"/><line style="stroke:#181818;stroke-width:1;" x1="1432.4717" x2="1432.4717" y1="1848.2891" y2="2158.6768"/><line style="stroke:#181818;stroke-width:1;" x1="1432.4717" x2="1311.5781" y1="1848.2891" y2="1848.2891"/><polygon fill="#181818" points="1321.5781,1844.2891,1311.5781,1848.2891,1321.5781,1852.2891,1317.5781,1848.2891" style="stroke:#181818;stroke-width:1;"/><line style="stroke:#181818;stroke-width:1;" x1="1181.1875" x2="1060.2939" y1="1848.2891" y2="1848.2891"/><polygon fill="#181818" points="1056.2939,1998.0244,1060.2939,2008.0244,1064.2939,1998.0244,1060.2939,2002.0244" style="stroke:#181818;stroke-width:1;"/><line style="stroke:#181818;stroke-width:1;" x1="1060.2939" x2="1060.2939" y1="1848.2891" y2="2170.6768"/><line style="stroke:#181818;stroke-width:1;" x1="1060.2939" x2="1246.3828" y1="2170.6768" y2="2170.6768"/><line style="stroke:#181818;stroke-width:1;" x1="1246.3828" x2="1246.3828" y1="2170.6768" y2="2190.6768"/><polygon fill="#181818" points="1242.3828,2180.6768,1246.3828,2190.6768,1250.3828,2180.6768,1246.3828,2184.6768" style="stroke:#181818;stroke-width:1;"/><line style="stroke:#181818;stroke-width:1;" x1="1246.3828" x2="1246.3828" y1="1816.2891" y2="1836.2891"/><polygon fill="#181818" points="1242.3828,1826.2891,1246.3828,1836.2891,1250.3828,1826.2891,1246.3828,1830.2891" style="stroke:#181818;stroke-width:1;"/><line style="stroke:#181818;stroke-width:1;" x1="1246.3828" x2="1246.3828" y1="2359.9697" y2="2394.9697"/><polygon fill="#181818" points="1242.3828,2384.9697,1246.3828,2394.9697,1250.3828,2384.9697,1246.3828,2388.9697" style="stroke:#181818;stroke-width:1;"/><line style="stroke:#181818;stroke-width:1;" x1="1246.3828" x2="1246.3828" y1="2284.8643" y2="2309.7822"/><polygon fill="#181818" points="1242.3828,2299.7822,1246.3828,2309.7822,1250.3828,2299.7822,1246.3828,2303.7822" style="stroke:#181818;stroke-width:1;"/><line style="stroke:#181818;stroke-width:1;" x1="1315.2439" x2="1886.6865" y1="2272.8643" y2="2272.8643"/><polygon fill="#181818" points="1882.6865,2367.876,1886.6865,2377.876,1890.6865,2367.876,1886.6865,2371.876" style="stroke:#181818;stroke-width:1;"/><line style="stroke:#181818;stroke-width:1;" x1="1886.6865" x2="1886.6865" y1="2272.8643" y2="2458.9697"/><polygon fill="#181818" points="1882.6865,2448.9697,1886.6865,2458.9697,1890.6865,2448.9697,1886.6865,2452.9697" style="stroke:#181818;stroke-width:1;"/><line style="stroke:#181818;stroke-width:1;" x1="1246.3828" x2="1246.3828" y1="2240.8643" y2="2260.8643"/><polygon fill="#181818" points="1242.3828,2250.8643,1246.3828,2260.8643,1250.3828,2250.8643,1246.3828,2254.8643" style="stroke:#181818;stroke-width:1;"/><line style="stroke:#181818;stroke-width:1;" x1="1246.3828" x2="1246.3828" y1="2594.4385" y2="2614.4385"/><polygon fill="#181818" points="1242.3828,2604.4385,1246.3828,2614.4385,1250.3828,2604.4385,1246.3828,2608.4385" style="stroke:#181818;stroke-width:1;"/><line style="stroke:#181818;stroke-width:1;" x1="1587.2139" x2="1587.2139" y1="733.8428" y2="753.8428"/><polygon fill="#181818" points="1583.2139,743.8428,1587.2139,753.8428,1591.2139,743.8428,1587.2139,747.8428" style="stroke:#181818;stroke-width:1;"/><line style="stroke:#181818;stroke-width:1;" x1="1886.6865" x2="1886.6865" y1="1324.874" y2="1357.793"/><polygon fill="#181818" points="1882.6865,1347.793,1886.6865,1357.793,1890.6865,1347.793,1886.6865,1351.793" style="stroke:#181818;stroke-width:1;"/><line style="stroke:#181818;stroke-width:1;" x1="1886.6865" x2="1886.6865" y1="1653.9141" y2="1663.9141"/><line style="stroke:#181818;stroke-width:1;" x1="1886.6865" x2="2033.417" y1="1663.9141" y2="1663.9141"/><polygon fill="#181818" points="2029.417,1502.168,2033.417,1492.168,2037.417,1502.168,2033.417,1498.168" style="stroke:#181818;stroke-width:1;"/><line style="stroke:#181818;stroke-width:1;" x1="2033.417" x2="2033.417" y1="1312.874" y2="1663.9141"/><line style="stroke:#181818;stroke-width:1;" x1="2033.417" x2="1985.8352" y1="1312.874" y2="1312.874"/><polygon fill="#181818" points="1995.8352,1308.874,1985.8352,1312.874,1995.8352,1316.874,1991.8352,1312.874" style="stroke:#181818;stroke-width:1;"/><line style="stroke:#181818;stroke-width:1;" x1="1787.5378" x2="1739.9561" y1="1312.874" y2="1312.874"/><polygon fill="#181818" points="1735.9561,1488.168,1739.9561,1498.168,1743.9561,1488.168,1739.9561,1492.168" style="stroke:#181818;stroke-width:1;"/><line style="stroke:#181818;stroke-width:1;" x1="1739.9561" x2="1739.9561" y1="1312.874" y2="1675.9141"/><line style="stroke:#181818;stroke-width:1;" x1="1739.9561" x2="1886.6865" y1="1675.9141" y2="1675.9141"/><line style="stroke:#181818;stroke-width:1;" x1="1886.6865" x2="1886.6865" y1="1675.9141" y2="1695.9141"/><polygon fill="#181818" points="1882.6865,1685.9141,1886.6865,1695.9141,1890.6865,1685.9141,1886.6865,1689.9141" style="stroke:#181818;stroke-width:1;"/><line style="stroke:#181818;stroke-width:1;" x1="1886.6865" x2="1886.6865" y1="1280.874" y2="1300.874"/><polygon fill="#181818" points="1882.6865,1290.874,1886.6865,1300.874,1890.6865,1290.874,1886.6865,1294.874" style="stroke:#181818;stroke-width:1;"/><line style="stroke:#181818;stroke-width:1;" x1="1886.6865" x2="1886.6865" y1="3015.5635" y2="3035.5635"/><polygon fill="#181818" points="1882.6865,3025.5635,1886.6865,3035.5635,1890.6865,3025.5635,1886.6865,3029.5635" style="stroke:#181818;stroke-width:1;"/><line style="stroke:#181818;stroke-width:1;" x1="288.8877" x2="288.8877" y1="183.9863" y2="188.9863"/><line style="stroke:#181818;stroke-width:1;" x1="288.8877" x2="835.46" y1="188.9863" y2="188.9863"/><line style="stroke:#181818;stroke-width:1;" x1="835.46" x2="835.46" y1="188.9863" y2="203.9863"/><polygon fill="#181818" points="831.46,193.9863,835.46,203.9863,839.46,193.9863,835.46,197.9863" style="stroke:#181818;stroke-width:1;"/><line style="stroke:#181818;stroke-width:1;" x1="835.46" x2="835.46" y1="351.0928" y2="356.0928"/><line style="stroke:#181818;stroke-width:1;" x1="835.46" x2="288.8877" y1="356.0928" y2="356.0928"/><line style="stroke:#181818;stroke-width:1;" x1="288.8877" x2="288.8877" y1="356.0928" y2="371.0928"/><polygon fill="#181818" points="284.8877,361.0928,288.8877,371.0928,292.8877,361.0928,288.8877,365.0928" style="stroke:#181818;stroke-width:1;"/><line style="stroke:#181818;stroke-width:1;" x1="288.8877" x2="288.8877" y1="406.1865" y2="411.1865"/><line style="stroke:#181818;stroke-width:1;" x1="288.8877" x2="835.46" y1="411.1865" y2="411.1865"/><line style="stroke:#181818;stroke-width:1;" x1="835.46" x2="835.46" y1="411.1865" y2="426.1865"/><polygon fill="#181818" points="831.46,416.1865,835.46,426.1865,839.46,416.1865,835.46,420.1865" style="stroke:#181818;stroke-width:1;"/><line style="stroke:#181818;stroke-width:1;" x1="1246.3828" x2="1246.3828" y1="568.5615" y2="573.5615"/><line style="stroke:#181818;stroke-width:1;" x1="1246.3828" x2="835.46" y1="573.5615" y2="573.5615"/><line style="stroke:#181818;stroke-width:1;" x1="835.46" x2="835.46" y1="573.5615" y2="588.5615"/><polygon fill="#181818" points="831.46,578.5615,835.46,588.5615,839.46,578.5615,835.46,582.5615" style="stroke:#181818;stroke-width:1;"/><line style="stroke:#181818;stroke-width:1;" x1="835.46" x2="835.46" y1="623.6553" y2="628.6553"/><line style="stroke:#181818;stroke-width:1;" x1="835.46" x2="288.8877" y1="628.6553" y2="628.6553"/><line style="stroke:#181818;stroke-width:1;" x1="288.8877" x2="288.8877" y1="628.6553" y2="643.6553"/><polygon fill="#181818" points="284.8877,633.6553,288.8877,643.6553,292.8877,633.6553,288.8877,637.6553" style="stroke:#181818;stroke-width:1;"/><line style="stroke:#181818;stroke-width:1;" x1="288.8877" x2="288.8877" y1="678.749" y2="683.749"/><line style="stroke:#181818;stroke-width:1;" x1="288.8877" x2="1587.2139" y1="683.749" y2="683.749"/><line style="stroke:#181818;stroke-width:1;" x1="1587.2139" x2="1587.2139" y1="683.749" y2="698.749"/><polygon fill="#181818" points="1583.2139,688.749,1587.2139,698.749,1591.2139,688.749,1587.2139,692.749" style="stroke:#181818;stroke-width:1;"/><line style="stroke:#181818;stroke-width:1;" x1="1587.2139" x2="1587.2139" y1="788.9365" y2="793.9365"/><line style="stroke:#181818;stroke-width:1;" x1="1587.2139" x2="1246.3828" y1="793.9365" y2="793.9365"/><line style="stroke:#181818;stroke-width:1;" x1="1246.3828" x2="1246.3828" y1="793.9365" y2="808.9365"/><polygon fill="#181818" points="1242.3828,798.9365,1246.3828,808.9365,1250.3828,798.9365,1246.3828,802.9365" style="stroke:#181818;stroke-width:1;"/><line style="stroke:#181818;stroke-width:1;" x1="1103.9043" x2="1103.9043" y1="973.3115" y2="990.8115"/><line style="stroke:#181818;stroke-width:1;" x1="1103.9043" x2="692.9814" y1="990.8115" y2="990.8115"/><line style="stroke:#181818;stroke-width:1;" x1="692.9814" x2="692.9814" y1="990.8115" y2="1008.3115"/><polygon fill="#181818" points="688.9814,998.3115,692.9814,1008.3115,696.9814,998.3115,692.9814,1002.3115" style="stroke:#181818;stroke-width:1;"/><line style="stroke:#181818;stroke-width:1;" x1="692.9814" x2="692.9814" y1="1043.4053" y2="1048.4053"/><line style="stroke:#181818;stroke-width:1;" x1="692.9814" x2="146.4092" y1="1048.4053" y2="1048.4053"/><line style="stroke:#181818;stroke-width:1;" x1="146.4092" x2="146.4092" y1="1048.4053" y2="1063.4053"/><polygon fill="#181818" points="142.4092,1053.4053,146.4092,1063.4053,150.4092,1053.4053,146.4092,1057.4053" style="stroke:#181818;stroke-width:1;"/><line style="stroke:#181818;stroke-width:1;" x1="1340.3242" x2="1352.3242" y1="891.124" y2="891.124"/><line style="stroke:#181818;stroke-width:1;" x1="1352.3242" x2="1352.3242" y1="891.124" y2="909.124"/><line style="stroke:#181818;stroke-width:1;" x1="1352.3242" x2="431.3662" y1="909.124" y2="909.124"/><line style="stroke:#181818;stroke-width:1;" x1="431.3662" x2="431.3662" y1="909.124" y2="923.124"/><polygon fill="#181818" points="427.3662,913.124,431.3662,923.124,435.3662,913.124,431.3662,917.124" style="stroke:#181818;stroke-width:1;"/><line style="stroke:#181818;stroke-width:1;" x1="1246.3828" x2="1246.3828" y1="1210.6865" y2="1215.6865"/><line style="stroke:#181818;stroke-width:1;" x1="1246.3828" x2="1886.6865" y1="1215.6865" y2="1215.6865"/><line style="stroke:#181818;stroke-width:1;" x1="1886.6865" x2="1886.6865" y1="1215.6865" y2="1230.6865"/><polygon fill="#181818" points="1882.6865,1220.6865,1886.6865,1230.6865,1890.6865,1220.6865,1886.6865,1224.6865" style="stroke:#181818;stroke-width:1;"/><line style="stroke:#181818;stroke-width:1;" x1="1886.6865" x2="1886.6865" y1="1407.9805" y2="1412.9805"/><line style="stroke:#181818;stroke-width:1;" x1="1886.6865" x2="1246.3828" y1="1412.9805" y2="1412.9805"/><line style="stroke:#181818;stroke-width:1;" x1="1246.3828" x2="1246.3828" y1="1412.9805" y2="1427.9805"/><polygon fill="#181818" points="1242.3828,1417.9805,1246.3828,1427.9805,1250.3828,1417.9805,1246.3828,1421.9805" style="stroke:#181818;stroke-width:1;"/><line style="stroke:#181818;stroke-width:1;" x1="1246.3828" x2="1246.3828" y1="1478.168" y2="1491.1328"/><line style="stroke:#181818;stroke-width:1;" x1="1246.3828" x2="288.8877" y1="1491.1328" y2="1491.1328"/><line style="stroke:#181818;stroke-width:1;" x1="288.8877" x2="288.8877" y1="1491.1328" y2="1508.6328"/><polygon fill="#181818" points="284.8877,1498.6328,288.8877,1508.6328,292.8877,1498.6328,288.8877,1502.6328" style="stroke:#181818;stroke-width:1;"/><line style="stroke:#181818;stroke-width:1;" x1="288.8877" x2="288.8877" y1="1543.7266" y2="1548.7266"/><line style="stroke:#181818;stroke-width:1;" x1="288.8877" x2="1246.3828" y1="1548.7266" y2="1548.7266"/><line style="stroke:#181818;stroke-width:1;" x1="1246.3828" x2="1246.3828" y1="1548.7266" y2="1563.7266"/><polygon fill="#181818" points="1242.3828,1553.7266,1246.3828,1563.7266,1250.3828,1553.7266,1246.3828,1557.7266" style="stroke:#181818;stroke-width:1;"/><line style="stroke:#181818;stroke-width:1;" x1="1246.3828" x2="1246.3828" y1="1598.8203" y2="1603.8203"/><line style="stroke:#181818;stroke-width:1;" x1="1246.3828" x2="1886.6865" y1="1603.8203" y2="1603.8203"/><line style="stroke:#181818;stroke-width:1;" x1="1886.6865" x2="1886.6865" y1="1603.8203" y2="1618.8203"/><polygon fill="#181818" points="1882.6865,1608.8203,1886.6865,1618.8203,1890.6865,1608.8203,1886.6865,1612.8203" style="stroke:#181818;stroke-width:1;"/><line style="stroke:#181818;stroke-width:1;" x1="1886.6865" x2="1886.6865" y1="1746.1016" y2="1751.1016"/><line style="stroke:#181818;stroke-width:1;" x1="1886.6865" x2="1246.3828" y1="1751.1016" y2="1751.1016"/><line style="stroke:#181818;stroke-width:1;" x1="1246.3828" x2="1246.3828" y1="1751.1016" y2="1766.1016"/><polygon fill="#181818" points="1242.3828,1756.1016,1246.3828,1766.1016,1250.3828,1756.1016,1246.3828,1760.1016" style="stroke:#181818;stroke-width:1;"/><line style="stroke:#181818;stroke-width:1;" x1="1246.3828" x2="1246.3828" y1="1928.3018" y2="1933.3018"/><line style="stroke:#181818;stroke-width:1;" x1="1246.3828" x2="1886.6865" y1="1933.3018" y2="1933.3018"/><line style="stroke:#181818;stroke-width:1;" x1="1886.6865" x2="1886.6865" y1="1933.3018" y2="1948.3018"/><polygon fill="#181818" points="1882.6865,1938.3018,1886.6865,1948.3018,1890.6865,1938.3018,1886.6865,1942.3018" style="stroke:#181818;stroke-width:1;"/><line style="stroke:#181818;stroke-width:1;" x1="1886.6865" x2="1886.6865" y1="1983.3955" y2="1988.3955"/><line style="stroke:#181818;stroke-width:1;" x1="1886.6865" x2="1246.3828" y1="1988.3955" y2="1988.3955"/><line style="stroke:#181818;stroke-width:1;" x1="1246.3828" x2="1246.3828" y1="1988.3955" y2="2003.3955"/><polygon fill="#181818" points="1242.3828,1993.3955,1246.3828,2003.3955,1250.3828,1993.3955,1246.3828,1997.3955" style="stroke:#181818;stroke-width:1;"/><line style="stroke:#181818;stroke-width:1;" x1="1246.3828" x2="1246.3828" y1="2038.4893" y2="2043.4893"/><line style="stroke:#181818;stroke-width:1;" x1="1246.3828" x2="1886.6865" y1="2043.4893" y2="2043.4893"/><line style="stroke:#181818;stroke-width:1;" x1="1886.6865" x2="1886.6865" y1="2043.4893" y2="2058.4893"/><polygon fill="#181818" points="1882.6865,2048.4893,1886.6865,2058.4893,1890.6865,2048.4893,1886.6865,2052.4893" style="stroke:#181818;stroke-width:1;"/><line style="stroke:#181818;stroke-width:1;" x1="1886.6865" x2="1886.6865" y1="2093.583" y2="2098.583"/><line style="stroke:#181818;stroke-width:1;" x1="1886.6865" x2="1246.3828" y1="2098.583" y2="2098.583"/><line style="stroke:#181818;stroke-width:1;" x1="1246.3828" x2="1246.3828" y1="2098.583" y2="2113.583"/><polygon fill="#181818" points="1242.3828,2103.583,1246.3828,2113.583,1250.3828,2103.583,1246.3828,2107.583" style="stroke:#181818;stroke-width:1;"/><line style="stroke:#181818;stroke-width:1;" x1="1886.6865" x2="1886.6865" y1="2494.0635" y2="2499.0635"/><line style="stroke:#181818;stroke-width:1;" x1="1886.6865" x2="1246.3828" y1="2499.0635" y2="2499.0635"/><line style="stroke:#181818;stroke-width:1;" x1="1246.3828" x2="1246.3828" y1="2499.0635" y2="2514.0635"/><polygon fill="#181818" points="1242.3828,2504.0635,1246.3828,2514.0635,1250.3828,2504.0635,1246.3828,2508.0635" style="stroke:#181818;stroke-width:1;"/><line style="stroke:#181818;stroke-width:1;" x1="1246.3828" x2="1246.3828" y1="2694.8135" y2="2699.8135"/><line style="stroke:#181818;stroke-width:1;" x1="1246.3828" x2="1587.2139" y1="2699.8135" y2="2699.8135"/><line style="stroke:#181818;stroke-width:1;" x1="1587.2139" x2="1587.2139" y1="2699.8135" y2="2714.8135"/><polygon fill="#181818" points="1583.2139,2704.8135,1587.2139,2714.8135,1591.2139,2704.8135,1587.2139,2708.8135" style="stroke:#181818;stroke-width:1;"/><line style="stroke:#181818;stroke-width:1;" x1="1587.2139" x2="1587.2139" y1="2765.001" y2="2770.001"/><line style="stroke:#181818;stroke-width:1;" x1="1587.2139" x2="1246.3828" y1="2770.001" y2="2770.001"/><line style="stroke:#181818;stroke-width:1;" x1="1246.3828" x2="1246.3828" y1="2770.001" y2="2785.001"/><polygon fill="#181818" points="1242.3828,2775.001,1246.3828,2785.001,1250.3828,2775.001,1246.3828,2779.001" style="stroke:#181818;stroke-width:1;"/><line style="stroke:#181818;stroke-width:1;" x1="1246.3828" x2="1246.3828" y1="2835.1885" y2="2840.1885"/><line style="stroke:#181818;stroke-width:1;" x1="1246.3828" x2="835.46" y1="2840.1885" y2="2840.1885"/><line style="stroke:#181818;stroke-width:1;" x1="835.46" x2="835.46" y1="2840.1885" y2="2855.1885"/><polygon fill="#181818" points="831.46,2845.1885,835.46,2855.1885,839.46,2845.1885,835.46,2849.1885" style="stroke:#181818;stroke-width:1;"/><line style="stroke:#181818;stroke-width:1;" x1="835.46" x2="835.46" y1="2905.376" y2="2910.376"/><line style="stroke:#181818;stroke-width:1;" x1="835.46" x2="288.8877" y1="2910.376" y2="2910.376"/><line style="stroke:#181818;stroke-width:1;" x1="288.8877" x2="288.8877" y1="2910.376" y2="2925.376"/><polygon fill="#181818" points="284.8877,2915.376,288.8877,2925.376,292.8877,2915.376,288.8877,2919.376" style="stroke:#181818;stroke-width:1;"/><line style="stroke:#181818;stroke-width:1;" x1="288.8877" x2="288.8877" y1="2960.4697" y2="2965.4697"/><line style="stroke:#181818;stroke-width:1;" x1="288.8877" x2="1886.6865" y1="2965.4697" y2="2965.4697"/><line style="stroke:#181818;stroke-width:1;" x1="1886.6865" x2="1886.6865" y1="2965.4697" y2="2980.4697"/><polygon fill="#181818" points="1882.6865,2970.4697,1886.6865,2980.4697,1890.6865,2970.4697,1886.6865,2974.4697" style="stroke:#181818;stroke-width:1;"/><text fill="#000000" font-family="sans-serif" font-size="18" lengthAdjust="spacing" textLength="40.0254" x="274.9443" y="69.75">Klien</text><text fill="#000000" font-family="sans-serif" font-size="18" lengthAdjust="spacing" textLength="78.0117" x="747.2217" y="69.75">Sistem UI</text><text fill="#000000" font-family="sans-serif" font-size="18" lengthAdjust="spacing" textLength="130.1045" x="1159.4541" y="69.75">Supabase BaaS</text><text fill="#000000" font-family="sans-serif" font-size="18" lengthAdjust="spacing" textLength="221.0801" x="1475.6738" y="69.75">Payment Gateway / Escrow</text><text fill="#000000" font-family="sans-serif" font-size="18" lengthAdjust="spacing" textLength="57.0146" x="1858.1792" y="69.75">Notaris</text><!--SRC=[VLRBRjj65DthA-wgi54fZfCcRIq4XHvChSPwL9GI1BKXZCYHD24vGt26LbHaKVG_kkcwVz4_oPVqp90K9TlgmWzmxinzd7FFlKQOc5EdtvgyQ3s_lAAUobALCSDf80sBE7r38sLOjYFVi2GLSjreV7aN2ow_D3I-cyRLRvt-yqjSlgE15XGoIJfV9i8yUkjMdarc5xttJNhNlHaqIPiiZqoUDKao_65nA-MPLfAwu-Qj39JKN1htu3s-2uhvciMa0vNoypR2y8KsFA7vuCi-Y1Ttz9x58cGmNwaiOSNzYCTShYEMCjbkR3S2APzDs2vMBAHxQ__JEGbDPpFSZCuRH5SpcsmSuIxFCfMHuHdBsAQDiofzM4rujcGYEiewZvbSExk3-62xZyiPK5guRpUu3Ck8Fh9pcrMUiYNJdBgC-NLcB-_85maIeC0UzgUTjxCcNicCuBfPb4ppx5u4d5GMSbHrnJd5GjfZ6ry29zeeoQrXW6o86PM8w4GflxkZkWZ1XWUHoejgfbooBUvBMiAXXQQzvyILpqt-AHS7HkwAYCM64cvKo76KBDdEdbdNm26nEFyCecpPZYx8qq6cjdXhnZEHC3Amr2kU0KRAUCGbM6XTQvQmTkFgdO0LRVboerHqyBWrCKo6U005BvoTAEuhq0Q-LYAo05qFExqcyNj4rQngQPEGg9PaSVjMnYg82WFwbhWBb-pFcU_TUBqPFNlsZDwEfpIVz3ip3sGLAphxK4POb70VPSK_i-7oY84gPX4bkN5SXcEfXNFk8W8X3KjfuetwWz7FYqdduz0RpPwWNOtXWSyrGoTT0A9Gb5ojEJstz1I7riomd9RuVKG5UmrqIXiyrYLvSHlmbmLPEDXOO0GQcTxGjNVJNmn62y_lJSSVsfQ4fkOa3DxEHtslZuC0hWowFLmZJvRQC5jAnZlNAs9r6iRNw14ywXha3HME5ZVZtZlthCdNJ4Sb8QKo5TnEtuIsz2Z_hL_y_ewwUSHegx98fmozPIzd_5xmBGcdQkWxD1-946mG0AjIjn1iqQ1zmHqdHh4ztmjGAR2bCZch40g57XDffZJNJuWIs2oeD_Tduw4tNNHwiy5uj9Xwlyu7KwyFVGNJK_HrpBH5IYLfB9X4r51IBP3nUS6Gu_9Ps0ffuPzJ7XWUjY3ja6s7eB00FgoPemjgYi-ifE83V8z9TLCaQONIi8jGHJbw_eHgdWhELhqSC2mFSGTomknxxjeUEbmemVlXZgO5KeNa5WyyLjn7gFzejPQbKHMUrhO4dUlvnTZtRsN2OnP3ud2EUPHndI0gRYM6Wemx7jWvPScQYQTKfvi3vRM2T4ehVOlQoUAJMf8_xmu7iva3D1HhD0XK1lnAKcMu37RGmLsJ2gWpjZrmUb5EbVCzoVmw_b3eGfiFUKN__ltrpt- -_l4NJRrV85rU_xokuENpE-gvPgmEY-eNzDhPcYvLp3VsQOVH8oIc5MOrwYT0TZMnsRl91hd9ygge3r9tPuyy-GSyeYSGEiKjNdWjoVMcBlunJ-ewTIQJwVYzhTCf7RgyjCIB87jeVzij61nO8In_HeCkz89_nZfHH8QnXhnu8H8bs2itPTpCE7h6VJyvBsmclV5mSZFeZ7hUudfyOqLl6TkPo7RLx4wiQ1q8c8lZ2IclbBRkZRbShncWBdkt20RwjSo32AxJJDmp38LJDS5cDXmCFP0dLjjMB1of8OdO4I1F0RDgiX4c1th-TQVrujLhqcwxQ6dWRyT5eGAX2dBND3RuTIRCRW65swXCtyg3ML6iVRaCX1i7wC8ga9TrSvTrsGyXEtjKOcba7vTFj1qi4CHwBM8ahEw5dSGXDjESPOLQiWX0zRkmSmKIl_EAnNO_S7j3CK5gNDl_lmDLou-JsdBNE5o4gl5rAoCxicCHkVTBOhd5DRV9EE5-0X__mHYUOeNf-0U3kAmIkYYFJIs_YrYjzGA3CNbwWRmyMY3jGCar88KZ9j035Oy-ZAV3Wlsb7mICsgm4vkNHOZcNOVwGVbMVe-fSsvlAADIYk5XJjzmZwsTBN-s6PVr_]--></g></svg>