<svg xmlns="http://www.w3.org/2000/svg" xmlns:xlink="http://www.w3.org/1999/xlink" contentStyleType="text/css" data-diagram-type="ACTIVITY" height="946px" preserveAspectRatio="none" style="width:2273px;height:946px;background:#FFFFFF;" version="1.1" viewBox="0 0 2273 946" width="2273px" zoomAndPan="magnify"><defs/><g><rect fill="none" height="22.6406" style="stroke:none;stroke-width:1;" width="2240.2241" x="15" y="12.4551"/><ellipse cx="426.9774" cy="50.0957" fill="#222222" rx="10" ry="10" style="stroke:#222222;stroke-width:1;"/><rect fill="#F1F1F1" height="35.0938" rx="12.5" ry="12.5" style="stroke:#181818;stroke-width:0.5;" width="270.6289" x="291.663" y="80.0957"/><text fill="#000000" font-family="sans-serif" font-size="12" lengthAdjust="spacing" textLength="250.6289" x="301.663" y="102.5527">Pilih Menu "Bantuan Hukum Pro Bono (Gratis)"</text><rect fill="#F1F1F1" height="35.0938" rx="12.5" ry="12.5" style="stroke:#181818;stroke-width:0.5;" width="270.793" x="291.5809" y="135.1895"/><text fill="#000000" font-family="sans-serif" font-size="12" lengthAdjust="spacing" textLength="250.793" x="301.5809" y="157.6465">Isi Formulir Pengajuan Kasus (Pidana/Perdata)</text><rect fill="#F1F1F1" height="35.0938" rx="12.5" ry="12.5" style="stroke:#181818;stroke-width:0.5;" width="345.4766" x="254.2391" y="190.2832"/><text fill="#000000" font-family="sans-serif" font-size="12" lengthAdjust="spacing" textLength="325.4766" x="264.2391" y="212.7402">Unggah Foto SKTM (Surat Keterangan Tidak Mampu) &amp; KTP</text><rect fill="#F1F1F1" height="35.0938" rx="12.5" ry="12.5" style="stroke:#181818;stroke-width:0.5;" width="132.7285" x="360.6132" y="245.377"/><text fill="#000000" font-family="sans-serif" font-size="12" lengthAdjust="spacing" textLength="112.7285" x="370.6132" y="267.834">Klik Ajukan Pro Bono</text><rect fill="#F1F1F1" height="35.0938" rx="12.5" ry="12.5" style="stroke:#181818;stroke-width:0.5;" width="50.334" x="131.9004" y="509.752"/><text fill="#000000" font-family="sans-serif" font-size="12" lengthAdjust="spacing" textLength="30.334" x="141.9004" y="532.209">-&gt; (A)</text><rect fill="#F1F1F1" height="35.0938" rx="12.5" ry="12.5" style="stroke:#181818;stroke-width:0.5;" width="272.1348" x="21" y="564.8457"/><text fill="#000000" font-family="sans-serif" font-size="12" lengthAdjust="spacing" textLength="252.1348" x="31" y="587.3027">Pilih Advokat &amp; Slot Waktu di Katalog Pro Bono</text><rect fill="#F1F1F1" height="35.0938" rx="12.5" ry="12.5" style="stroke:#181818;stroke-width:0.5;" width="50.334" x="284.6328" y="823.0449"/><text fill="#000000" font-family="sans-serif" font-size="12" lengthAdjust="spacing" textLength="30.334" x="294.6328" y="845.502">-&gt; (A)</text><polygon fill="#F1F1F1" points="219.6057,774.127,399.9939,774.127,411.9939,786.127,399.9939,798.127,219.6057,798.127,207.6057,786.127,219.6057,774.127" style="stroke:#181818;stroke-width:0.5;"/><text fill="#000000" font-family="sans-serif" font-size="11" lengthAdjust="spacing" textLength="13.4546" x="313.7998" y="809.5459">Ya</text><text fill="#000000" font-family="sans-serif" font-size="11" lengthAdjust="spacing" textLength="180.3882" x="219.6057" y="790.6279">Ingin Pilih Ulang Advokat / Slot Lain?</text><text fill="#000000" font-family="sans-serif" font-size="11" lengthAdjust="spacing" textLength="26.8984" x="411.9939" y="783.71">Tidak</text><ellipse cx="460.8923" cy="786.127" fill="none" rx="11" ry="11" style="stroke:#222222;stroke-width:1;"/><ellipse cx="460.8923" cy="786.127" fill="#222222" rx="6" ry="6" style="stroke:#222222;stroke-width:1;"/><rect fill="#F1F1F1" height="35.0938" rx="12.5" ry="12.5" style="stroke:#181818;stroke-width:0.5;" width="316.1387" x="538.8181" y="454.6582"/><text fill="#000000" font-family="sans-serif" font-size="12" lengthAdjust="spacing" textLength="296.1387" x="548.8181" y="477.1152">Tampilkan Opsi Beralih ke Konsultasi Berbayar Reguler</text><ellipse cx="426.9774" cy="923.1387" fill="none" rx="11" ry="11" style="stroke:#222222;stroke-width:1;"/><ellipse cx="426.9774" cy="923.1387" fill="#222222" rx="6" ry="6" style="stroke:#222222;stroke-width:1;"/><line style="stroke:#000000;stroke-width:1.5;" x1="15" x2="15" y1="12.4551" y2="934.1387"/><rect fill="#F1F1F1" height="35.0938" rx="12.5" ry="12.5" style="stroke:#181818;stroke-width:0.5;" width="317.4277" x="1134.234" y="300.4707"/><text fill="#000000" font-family="sans-serif" font-size="12" lengthAdjust="spacing" textLength="297.4277" x="1144.234" y="322.9277">Kirim Payload SKTM ke API Verifikasi Dukcapil / Dinsos</text><polygon fill="#F1F1F1" points="1224.4852,355.5645,1361.4105,355.5645,1373.4105,367.5645,1361.4105,379.5645,1224.4852,379.5645,1212.4852,367.5645,1224.4852,355.5645" style="stroke:#181818;stroke-width:0.5;"/><text fill="#000000" font-family="sans-serif" font-size="11" lengthAdjust="spacing" textLength="136.9253" x="1224.4852" y="372.0654">SKTM Valid &amp; Terverifikasi?</text><text fill="#000000" font-family="sans-serif" font-size="11" lengthAdjust="spacing" textLength="13.4546" x="1199.0306" y="365.1475">Ya</text><text fill="#000000" font-family="sans-serif" font-size="11" lengthAdjust="spacing" textLength="26.8984" x="1373.4105" y="365.1475">Tidak</text><rect fill="#F1F1F1" height="35.0938" rx="12.5" ry="12.5" style="stroke:#181818;stroke-width:0.5;" width="242.1289" x="901.9734" y="399.5645"/><text fill="#000000" font-family="sans-serif" font-size="12" lengthAdjust="spacing" textLength="222.1289" x="911.9734" y="422.0215">Ubah Status Pengajuan Jadi APPROVED</text><rect fill="#F1F1F1" height="35.0938" rx="12.5" ry="12.5" style="stroke:#181818;stroke-width:0.5;" width="316.1621" x="864.9568" y="454.6582"/><text fill="#000000" font-family="sans-serif" font-size="12" lengthAdjust="spacing" textLength="296.1621" x="874.9568" y="477.1152">Buka Kunci (Unlock) Katalog Khusus Advokat Pro Bono</text><rect fill="#F1F1F1" height="35.0938" rx="12.5" ry="12.5" style="stroke:#181818;stroke-width:0.5;" width="293.457" x="876.3093" y="619.9395"/><text fill="#000000" font-family="sans-serif" font-size="12" lengthAdjust="spacing" textLength="273.457" x="886.3093" y="642.3965">Kirim Request Reservasi Pro Bono Rp0 ke Advokat</text><rect fill="#F1F1F1" height="35.0938" rx="12.5" ry="12.5" style="stroke:#181818;stroke-width:0.5;" width="267.459" x="1042.0408" y="719.0332"/><text fill="#000000" font-family="sans-serif" font-size="12" lengthAdjust="spacing" textLength="247.459" x="1052.0408" y="741.4902">Kirim Notifikasi Penolakan/Slot Penuh ke Klien</text><rect fill="#F1F1F1" height="35.0938" rx="12.5" ry="12.5" style="stroke:#181818;stroke-width:0.5;" width="365.9902" x="1379.8628" y="399.5645"/><text fill="#000000" font-family="sans-serif" font-size="12" lengthAdjust="spacing" textLength="345.9902" x="1389.8628" y="422.0215">Tolak Pengajuan &amp; Tampilkan Alasan "SKTM Tidak Terverifikasi"</text><polygon fill="#F1F1F1" points="1292.9479,868.1387,1304.9479,880.1387,1292.9479,892.1387,1280.9479,880.1387,1292.9479,868.1387" style="stroke:#181818;stroke-width:0.5;"/><line style="stroke:#000000;stroke-width:1.5;" x1="858.9568" x2="858.9568" y1="12.4551" y2="934.1387"/><polygon fill="#F1F1F1" points="1982.3701,675.0332,2138.2715,675.0332,2150.2715,687.0332,2138.2715,699.0332,1982.3701,699.0332,1970.3701,687.0332,1982.3701,675.0332" style="stroke:#181818;stroke-width:0.5;"/><text fill="#000000" font-family="sans-serif" font-size="11" lengthAdjust="spacing" textLength="155.9014" x="1982.3701" y="691.5342">Menerima Reservasi Pro Bono?</text><text fill="#000000" font-family="sans-serif" font-size="11" lengthAdjust="spacing" textLength="13.4546" x="1956.9155" y="684.6162">Ya</text><text fill="#000000" font-family="sans-serif" font-size="11" lengthAdjust="spacing" textLength="98.4521" x="2150.2715" y="684.6162">Tidak / Berhalangan</text><rect fill="#F1F1F1" height="35.0938" rx="12.5" ry="12.5" style="stroke:#181818;stroke-width:0.5;" width="167.3867" x="1823.895" y="719.0332"/><text fill="#000000" font-family="sans-serif" font-size="12" lengthAdjust="spacing" textLength="147.3867" x="1833.895" y="741.4902">Terima Reservasi Pro Bono</text><rect fill="#F1F1F1" height="35.0938" rx="12.5" ry="12.5" style="stroke:#181818;stroke-width:0.5;" width="303.4707" x="1755.853" y="774.127"/><text fill="#000000" font-family="sans-serif" font-size="12" lengthAdjust="spacing" textLength="283.4707" x="1765.853" y="796.584">Lakukan Sesi Konsultasi &amp; Bantuan Hukum (J-UC04)</text><line style="stroke:#000000;stroke-width:1.5;" x1="1749.853" x2="1749.853" y1="12.4551" y2="934.1387"/><line style="stroke:#000000;stroke-width:1.5;" x1="2253.7236" x2="2253.7236" y1="12.4551" y2="934.1387"/><line style="stroke:#181818;stroke-width:1;" x1="426.9774" x2="426.9774" y1="60.0957" y2="80.0957"/><polygon fill="#181818" points="422.9774,70.0957,426.9774,80.0957,430.9774,70.0957,426.9774,74.0957" style="stroke:#181818;stroke-width:1;"/><line style="stroke:#181818;stroke-width:1;" x1="426.9774" x2="426.9774" y1="115.1895" y2="135.1895"/><polygon fill="#181818" points="422.9774,125.1895,426.9774,135.1895,430.9774,125.1895,426.9774,129.1895" style="stroke:#181818;stroke-width:1;"/><line style="stroke:#181818;stroke-width:1;" x1="426.9774" x2="426.9774" y1="170.2832" y2="190.2832"/><polygon fill="#181818" points="422.9774,180.2832,426.9774,190.2832,430.9774,180.2832,426.9774,184.2832" style="stroke:#181818;stroke-width:1;"/><line style="stroke:#181818;stroke-width:1;" x1="426.9774" x2="426.9774" y1="225.377" y2="245.377"/><polygon fill="#181818" points="422.9774,235.377,426.9774,245.377,430.9774,235.377,426.9774,239.377" style="stroke:#181818;stroke-width:1;"/><line style="stroke:#181818;stroke-width:1;" x1="157.0674" x2="157.0674" y1="544.8457" y2="564.8457"/><polygon fill="#181818" points="153.0674,554.8457,157.0674,564.8457,161.0674,554.8457,157.0674,558.8457" style="stroke:#181818;stroke-width:1;"/><line style="stroke:#181818;stroke-width:1;" x1="309.7998" x2="309.7998" y1="798.127" y2="823.0449"/><polygon fill="#181818" points="305.7998,813.0449,309.7998,823.0449,313.7998,813.0449,309.7998,817.0449" style="stroke:#181818;stroke-width:1;"/><line style="stroke:#181818;stroke-width:1;" x1="411.9939" x2="449.8923" y1="786.127" y2="786.127"/><polygon fill="#181818" points="439.8923,782.127,449.8923,786.127,439.8923,790.127,443.8923,786.127" style="stroke:#181818;stroke-width:1;"/><line style="stroke:#181818;stroke-width:1;" x1="1023.0378" x2="1023.0378" y1="434.6582" y2="454.6582"/><polygon fill="#181818" points="1019.0378,444.6582,1023.0378,454.6582,1027.0378,444.6582,1023.0378,448.6582" style="stroke:#181818;stroke-width:1;"/><line style="stroke:#181818;stroke-width:1;" x1="1212.4852" x2="1023.0378" y1="367.5645" y2="367.5645"/><line style="stroke:#181818;stroke-width:1;" x1="1023.0378" x2="1023.0378" y1="367.5645" y2="399.5645"/><polygon fill="#181818" points="1019.0378,389.5645,1023.0378,399.5645,1027.0378,389.5645,1023.0378,393.5645" style="stroke:#181818;stroke-width:1;"/><line style="stroke:#181818;stroke-width:1;" x1="1373.4105" x2="1562.8579" y1="367.5645" y2="367.5645"/><line style="stroke:#181818;stroke-width:1;" x1="1562.8579" x2="1562.8579" y1="367.5645" y2="399.5645"/><polygon fill="#181818" points="1558.8579,389.5645,1562.8579,399.5645,1566.8579,389.5645,1562.8579,393.5645" style="stroke:#181818;stroke-width:1;"/><line style="stroke:#181818;stroke-width:1;" x1="1292.9479" x2="1292.9479" y1="335.5645" y2="355.5645"/><polygon fill="#181818" points="1288.9479,345.5645,1292.9479,355.5645,1296.9479,345.5645,1292.9479,349.5645" style="stroke:#181818;stroke-width:1;"/><line style="stroke:#181818;stroke-width:1;" x1="1907.5884" x2="1907.5884" y1="754.127" y2="774.127"/><polygon fill="#181818" points="1903.5884,764.127,1907.5884,774.127,1911.5884,764.127,1907.5884,768.127" style="stroke:#181818;stroke-width:1;"/><line style="stroke:#181818;stroke-width:1;" x1="1970.3701" x2="1907.5884" y1="687.0332" y2="687.0332"/><line style="stroke:#181818;stroke-width:1;" x1="1907.5884" x2="1907.5884" y1="687.0332" y2="719.0332"/><polygon fill="#181818" points="1903.5884,709.0332,1907.5884,719.0332,1911.5884,709.0332,1907.5884,713.0332" style="stroke:#181818;stroke-width:1;"/><line style="stroke:#181818;stroke-width:1;" x1="1907.5884" x2="1907.5884" y1="809.2207" y2="863.1387"/><line style="stroke:#181818;stroke-width:1;" x1="1907.5884" x2="1262.9479" y1="863.1387" y2="863.1387"/><line style="stroke:#181818;stroke-width:1;" x1="1262.9479" x2="1262.9479" y1="863.1387" y2="880.1387"/><line style="stroke:#181818;stroke-width:1;" x1="1262.9479" x2="1280.9479" y1="880.1387" y2="880.1387"/><polygon fill="#181818" points="1270.9479,876.1387,1280.9479,880.1387,1270.9479,884.1387,1274.9479,880.1387" style="stroke:#181818;stroke-width:1;"/><line style="stroke:#181818;stroke-width:1;" x1="426.9774" x2="426.9774" y1="280.4707" y2="285.4707"/><line style="stroke:#181818;stroke-width:1;" x1="426.9774" x2="1292.9479" y1="285.4707" y2="285.4707"/><line style="stroke:#181818;stroke-width:1;" x1="1292.9479" x2="1292.9479" y1="285.4707" y2="300.4707"/><polygon fill="#181818" points="1288.9479,290.4707,1292.9479,300.4707,1296.9479,290.4707,1292.9479,294.4707" style="stroke:#181818;stroke-width:1;"/><line style="stroke:#181818;stroke-width:1;" x1="1023.0378" x2="1023.0378" y1="489.752" y2="494.752"/><line style="stroke:#181818;stroke-width:1;" x1="1023.0378" x2="157.0674" y1="494.752" y2="494.752"/><line style="stroke:#181818;stroke-width:1;" x1="157.0674" x2="157.0674" y1="494.752" y2="509.752"/><polygon fill="#181818" points="153.0674,499.752,157.0674,509.752,161.0674,499.752,157.0674,503.752" style="stroke:#181818;stroke-width:1;"/><line style="stroke:#181818;stroke-width:1;" x1="157.0674" x2="157.0674" y1="599.9395" y2="604.9395"/><line style="stroke:#181818;stroke-width:1;" x1="157.0674" x2="1023.0378" y1="604.9395" y2="604.9395"/><line style="stroke:#181818;stroke-width:1;" x1="1023.0378" x2="1023.0378" y1="604.9395" y2="619.9395"/><polygon fill="#181818" points="1019.0378,609.9395,1023.0378,619.9395,1027.0378,609.9395,1023.0378,613.9395" style="stroke:#181818;stroke-width:1;"/><line style="stroke:#181818;stroke-width:1;" x1="1175.7703" x2="1175.7703" y1="754.127" y2="759.127"/><line style="stroke:#181818;stroke-width:1;" x1="1175.7703" x2="309.7998" y1="759.127" y2="759.127"/><line style="stroke:#181818;stroke-width:1;" x1="309.7998" x2="309.7998" y1="759.127" y2="774.127"/><polygon fill="#181818" points="305.7998,764.127,309.7998,774.127,313.7998,764.127,309.7998,768.127" style="stroke:#181818;stroke-width:1;"/><line style="stroke:#181818;stroke-width:1;" x1="2150.2715" x2="2162.2715" y1="687.0332" y2="687.0332"/><line style="stroke:#181818;stroke-width:1;" x1="2162.2715" x2="2162.2715" y1="687.0332" y2="705.0332"/><line style="stroke:#181818;stroke-width:1;" x1="2162.2715" x2="1175.7703" y1="705.0332" y2="705.0332"/><line style="stroke:#181818;stroke-width:1;" x1="1175.7703" x2="1175.7703" y1="705.0332" y2="719.0332"/><polygon fill="#181818" points="1171.7703,709.0332,1175.7703,719.0332,1179.7703,709.0332,1175.7703,713.0332" style="stroke:#181818;stroke-width:1;"/><line style="stroke:#181818;stroke-width:1;" x1="1023.0378" x2="1023.0378" y1="655.0332" y2="660.0332"/><line style="stroke:#181818;stroke-width:1;" x1="1023.0378" x2="2060.3208" y1="660.0332" y2="660.0332"/><line style="stroke:#181818;stroke-width:1;" x1="2060.3208" x2="2060.3208" y1="660.0332" y2="675.0332"/><polygon fill="#181818" points="2056.3208,665.0332,2060.3208,675.0332,2064.3208,665.0332,2060.3208,669.0332" style="stroke:#181818;stroke-width:1;"/><line style="stroke:#181818;stroke-width:1;" x1="1562.8579" x2="1562.8579" y1="434.6582" y2="439.6582"/><line style="stroke:#181818;stroke-width:1;" x1="1562.8579" x2="696.8875" y1="439.6582" y2="439.6582"/><line style="stroke:#181818;stroke-width:1;" x1="696.8875" x2="696.8875" y1="439.6582" y2="454.6582"/><polygon fill="#181818" points="692.8875,444.6582,696.8875,454.6582,700.8875,444.6582,696.8875,448.6582" style="stroke:#181818;stroke-width:1;"/><line style="stroke:#181818;stroke-width:1;" x1="696.8875" x2="696.8875" y1="489.752" y2="863.1387"/><line style="stroke:#181818;stroke-width:1;" x1="696.8875" x2="1322.9479" y1="863.1387" y2="863.1387"/><line style="stroke:#181818;stroke-width:1;" x1="1322.9479" x2="1322.9479" y1="863.1387" y2="880.1387"/><line style="stroke:#181818;stroke-width:1;" x1="1322.9479" x2="1304.9479" y1="880.1387" y2="880.1387"/><polygon fill="#181818" points="1314.9479,876.1387,1304.9479,880.1387,1314.9479,884.1387,1310.9479,880.1387" style="stroke:#181818;stroke-width:1;"/><line style="stroke:#181818;stroke-width:1;" x1="1292.9479" x2="1292.9479" y1="892.1387" y2="897.1387"/><line style="stroke:#181818;stroke-width:1;" x1="1292.9479" x2="426.9774" y1="897.1387" y2="897.1387"/><line style="stroke:#181818;stroke-width:1;" x1="426.9774" x2="426.9774" y1="897.1387" y2="912.1387"/><polygon fill="#181818" points="422.9774,902.1387,426.9774,912.1387,430.9774,902.1387,426.9774,906.1387" style="stroke:#181818;stroke-width:1;"/><text fill="#000000" font-family="sans-serif" font-size="18" lengthAdjust="spacing" textLength="111.0586" x="381.4491" y="31.1406">Klien Justifiqa</text><text fill="#000000" font-family="sans-serif" font-size="18" lengthAdjust="spacing" textLength="241.1807" x="1183.8146" y="31.1406">Backend Independen Justifiqa</text><text fill="#000000" font-family="sans-serif" font-size="18" lengthAdjust="spacing" textLength="136.0723" x="1933.7522" y="31.1406">Advokat Justifiqa</text><!--SRC=[XPDBR-8m4CVl-HGZ3YWv87hO4v5s1MKVaBADIc2rnoanYHjZKpygLUB3xpXMUBNT8gGGF8___FxZGoOuap1tnl8jVyP3P2ng6uroBdWD2oOTz2OehKC9lrpZTf1h1HCb5SG_DLfkabuQZMQ6mm-bTqvm3JcJ5JxvZ0oDCn3dl4I9mvpf4Yqc5B-ILOKrfLW5ownOGBnqL0qoPfb6IfTGK5832zpjNG9zo8gSyaXk0-Cdrr109oIDeiC4DmsJ9SnaoVRqutAcKSOr9-NuAXIMeM73O9pFOCqq1JL8-gUksU2U2nZ2b4kZJ1hnBGdpqMiKl2GL1TClnunl2TYQEiL_COa0Hgj76cbfqTBC9mPpB3croX_krz-dgO-Ra7p8dDnmY5TIg4sJ42cBGbMGrSuZ6vSlgY4Ufna1w7juOnV0OF0Lud4h89ZMvVPXAPI5FzXO1wIXQt5Ty__ig6oWzy2U7JEMdeOWU637JNZOtxGyG-EkRgVZefWdIbj537VuJgahfDIy-2Wq3UTtsBJRi6HqbYbfdB0-h0-NQnlF1wlRco-9JsF2C8Z3WWrXmdIDebswqFDJ8aSclvNjjeSCLm99oR2bJg-kzb1QnuBMzzmBH6QouhJGhNqhB-LeuZ2OU8TSlc5pxht_bCpYfcvVpYRiJerL-t0cIxwDkkTLvEVRKFWnp_QRBWNTKIwy2ME1XXwzziu4lXStffT-iCIZKutxFT4aJz33y01FdjA_Z_YAchQXSeBfD0ep-D7-0G00]--></g></svg>