<?xml version="1.0" encoding="us-ascii" standalone="no"?><svg xmlns="http://www.w3.org/2000/svg" xmlns:xlink="http://www.w3.org/1999/xlink" contentStyleType="text/css" height="249px" preserveAspectRatio="none" style="width:942px;height:249px;background:#FFFFFF;" version="1.1" viewBox="0 0 942 249" width="942px" zoomAndPan="magnify"><defs/><g><rect fill="#DDDDDD" height="16.0938" style="stroke:#000000;stroke-width:1.0;" width="929" x="6" y="6"/><text fill="#000000" font-family="sans-serif" font-size="12" font-weight="bold" lengthAdjust="spacing" textLength="49" x="6" y="18.457">JUSTICA</text><text fill="#000000" font-family="sans-serif" font-size="12" lengthAdjust="spacing" textLength="173" x="58" y="18.457">&#8226; Portal Mitra Advokat Berlisensi</text><text fill="#000000" font-family="sans-serif" font-size="12" lengthAdjust="spacing" textLength="135" x="241" y="18.457">[ &lt; Kembali ke Gerbang ]</text><text fill="#000000" font-family="sans-serif" font-size="12" lengthAdjust="spacing" textLength="97" x="386" y="18.457">[ &#9728; Light / &#9790; Dark ]</text><line style="stroke:#AAAAAA;stroke-width:1.0;" x1="6" x2="935" y1="26.5938" y2="26.5938"/><text fill="#000000" font-family="sans-serif" font-size="13" font-weight="bold" lengthAdjust="spacing" textLength="324" x="7" y="45.5889">AUTENTIKASI KEAMANAN TINGGI MITRA ADVOKAT</text><text fill="#000000" font-family="sans-serif" font-size="12" lengthAdjust="spacing" textLength="681" x="10" y="62.9023">Khusus bagi Advokat tersumpah yang terdaftar resmi pada Sistem Informasi Penelusuran Perkara (SIPP) Mahkamah Agung.</text><line style="stroke:#000000;stroke-width:1.0;" x1="8" x2="931" y1="65.5391" y2="65.5391"/><line style="stroke:#000000;stroke-width:1.0;" x1="8" x2="8" y1="62.5391" y2="64.5391"/><line style="stroke:#000000;stroke-width:1.0;" x1="931" x2="931" y1="62.5391" y2="64.5391"/><line style="stroke:#AAAAAA;stroke-width:1.0;" x1="6" x2="935" y1="74.0391" y2="74.0391"/><text fill="#000000" font-family="sans-serif" font-size="12" lengthAdjust="spacing" textLength="182" x="7" y="91.9961">Nomor Induk Advokat (NIA / SIPP)</text><text fill="#000000" font-family="sans-serif" font-size="12" lengthAdjust="spacing" textLength="113" x="426" y="91.9961">18293/PERADI/2015</text><line style="stroke:#000000;stroke-width:1.0;" x1="424" x2="683" y1="94.6328" y2="94.6328"/><line style="stroke:#000000;stroke-width:1.0;" x1="424" x2="424" y1="91.6328" y2="93.6328"/><line style="stroke:#000000;stroke-width:1.0;" x1="683" x2="683" y1="91.6328" y2="93.6328"/><text fill="#000000" font-family="sans-serif" font-size="12" lengthAdjust="spacing" textLength="139" x="7" y="111.0898">Alamat Email Profesional</text><text fill="#000000" font-family="sans-serif" font-size="12" lengthAdjust="spacing" textLength="131" x="426" y="111.0898">mahendra.k@lawfirm.id</text><line style="stroke:#000000;stroke-width:1.0;" x1="424" x2="683" y1="113.7266" y2="113.7266"/><line style="stroke:#000000;stroke-width:1.0;" x1="424" x2="424" y1="110.7266" y2="112.7266"/><line style="stroke:#000000;stroke-width:1.0;" x1="683" x2="683" y1="110.7266" y2="112.7266"/><text fill="#000000" font-family="sans-serif" font-size="12" lengthAdjust="spacing" textLength="152" x="7" y="130.1836">Kata Sandi Keamanan KMS</text><text fill="#000000" font-family="sans-serif" font-size="12" lengthAdjust="spacing" textLength="120" x="426" y="130.1836">&#8226;&#8226;&#8226;&#8226;&#8226;&#8226;&#8226;&#8226;&#8226;&#8226;&#8226;&#8226;&#8226;&#8226;&#8226;&#8226;&#8226;&#8226;&#8226;&#8226;&#8226;&#8226;&#8226;&#8226;</text><line style="stroke:#000000;stroke-width:1.0;" x1="424" x2="699" y1="132.8203" y2="132.8203"/><line style="stroke:#000000;stroke-width:1.0;" x1="424" x2="424" y1="129.8203" y2="131.8203"/><line style="stroke:#000000;stroke-width:1.0;" x1="699" x2="699" y1="129.8203" y2="131.8203"/><line style="stroke:#AAAAAA;stroke-width:1.0;" x1="7" x2="422" y1="140.3203" y2="140.3203"/><text fill="#000000" font-family="sans-serif" font-size="12" lengthAdjust="spacing" textLength="193" x="7" y="157.2773">Kode Keamanan MFA (6-Digit OTP)</text><text fill="#000000" font-family="sans-serif" font-size="12" lengthAdjust="spacing" textLength="72" x="426" y="157.2773">4  8  1  9  0  2</text><line style="stroke:#000000;stroke-width:1.0;" x1="424" x2="707" y1="159.9141" y2="159.9141"/><line style="stroke:#000000;stroke-width:1.0;" x1="424" x2="424" y1="156.9141" y2="158.9141"/><line style="stroke:#000000;stroke-width:1.0;" x1="707" x2="707" y1="156.9141" y2="158.9141"/><text fill="#000000" font-family="sans-serif" font-size="12" lengthAdjust="spacing" textLength="185" x="7" y="176.3711">PIN e-Meterai Peruri KMS (6-Digit)</text><text fill="#000000" font-family="sans-serif" font-size="12" lengthAdjust="spacing" textLength="30" x="426" y="176.3711">&#8226;&#8226;&#8226;&#8226;&#8226;&#8226;</text><line style="stroke:#000000;stroke-width:1.0;" x1="424" x2="699" y1="179.0078" y2="179.0078"/><line style="stroke:#000000;stroke-width:1.0;" x1="424" x2="424" y1="176.0078" y2="178.0078"/><line style="stroke:#000000;stroke-width:1.0;" x1="699" x2="699" y1="176.0078" y2="178.0078"/><line style="stroke:#AAAAAA;stroke-width:1.0;" x1="7" x2="422" y1="186.5078" y2="186.5078"/><text fill="#000000" font-family="sans-serif" font-size="12" lengthAdjust="spacing" textLength="394" x="27" y="203.4648">Sesi Kerja Enkripsi E2EE Terproteksi (Hardware-bound Session Token)</text><rect fill="none" height="10" style="stroke:#000000;stroke-width:1.5;" width="10" x="9" y="193.5547"/><polygon fill="#000000" points="10,197.0078,13,200.0078,20,191.0078,13,198.0078" style="stroke:#000000;stroke-width:1.5;"/><line style="stroke:#AAAAAA;stroke-width:1.0;" x1="7" x2="422" y1="211.6016" y2="211.6016"/><rect fill="#EEEEEE" height="19.0938" rx="5" ry="5" style="stroke:#000000;stroke-width:2.5;" width="284" x="9.5" y="218.6016"/><text fill="#000000" font-family="sans-serif" font-size="12" font-weight="bold" lengthAdjust="spacing" textLength="231" x="36" y="233.0586">MASUK KE COMMAND CENTER ADVOKAT</text><rect fill="#EEEEEE" height="19.0938" rx="5" ry="5" style="stroke:#000000;stroke-width:2.5;" width="228" x="425.5" y="218.6016"/><text fill="#000000" font-family="sans-serif" font-size="12" lengthAdjust="spacing" textLength="155" x="462" y="233.0586">Lupa PIN KMS / Kredensial?</text><line style="stroke:#000000;stroke-width:1.0;" x1="5" x2="935" y1="5" y2="5"/><line style="stroke:#000000;stroke-width:1.0;" x1="5" x2="935" y1="242.1953" y2="242.1953"/><line style="stroke:#000000;stroke-width:1.0;" x1="5" x2="5" y1="5" y2="22.0938"/><line style="stroke:#000000;stroke-width:1.0;" x1="935" x2="935" y1="22.0938" y2="30.0938"/><line style="stroke:#000000;stroke-width:1.0;" x1="935" x2="935" y1="5" y2="22.0938"/><line style="stroke:#000000;stroke-width:1.0;" x1="5" x2="5" y1="77.5391" y2="242.1953"/><line style="stroke:#000000;stroke-width:1.0;" x1="5" x2="5" y1="69.5391" y2="77.5391"/><line style="stroke:#000000;stroke-width:1.0;" x1="935" x2="935" y1="77.5391" y2="242.1953"/><line style="stroke:#000000;stroke-width:1.0;" x1="5" x2="5" y1="30.0938" y2="69.5391"/><line style="stroke:#000000;stroke-width:1.0;" x1="935" x2="935" y1="69.5391" y2="77.5391"/><line style="stroke:#000000;stroke-width:1.0;" x1="5" x2="5" y1="22.0938" y2="30.0938"/><line style="stroke:#000000;stroke-width:1.0;" x1="935" x2="935" y1="30.0938" y2="69.5391"/><!--SRC=[hLFRJjj047ttLnpnbBJAbOi00SKGGutZO667La8yJF0cR6sle_Kw204Idz7dVaW_XY_fs1GeKFMf8rlQtTazSyvSTWj3sXIK6klcemNSVC3MPETe74RklhtLcUpWuVu7WbmRIk5BembslCWJCjWJEfM5K8N4BSwm1Kza4qeb4e53eIUaPZYlNG_Vxp6Kiqk33gz_Oa0wOTSTnskrgg3y0zlRsx37aJEANCyENNYExTiZUuJ87HqUkl3TwCI6FJWzzkoeVh7aNPP5MM12C_bComXTbDcSBd5TCU1jJ5CM2IsAJ69ECI6KXH4PN3NDTKOi811Af8obIV5Q9yGw6w4R14tuT9bGnd3sh5IpzX97VaDyb6UvPh2uJ9vPD4QkpMeV8Mwnr5llRont0kV47hYTVhUtYjUsL2FPAKSoS3AIAGATJqKXSyMPVp96OYf2nPhQoMvALrEfixQCto5vP5WcgLXoMHXKiJ3F3_4d4bVsltnlOzUfOGfvB5w2-mSs6ckjWPn9W-E8ir9HM07MWHwm0NI1FjxR8sRWZY1Qlk1oKbKkNMfP2th2RFvL4FvXhyYUVJr7oDbcmleRmL69bdFUEdt7GIJqNET697pG-4mwlY8jMfEyL77rgAeHeZmHglaA4jKe-NOuzhYNiN_iSpiFiCyDxfmyzN4zOh_7P5ZEgHPQwUh0qoAkfelIJpYlk-xEskNIryDg1IafC_Q7M72_LmHwxNwtlz9URXnmPWx41BqrTFkRAztDxYg-k7ket4shSHWC5tqKUQal168U12qdfM64fdL42y99gOpCn2QEvq8T3Rod0yx9GkfSPK8Pw-ZKVxcmjjBQuwA6GZCNdFhMG4ofJBcFrKKUIpNRn3WwQArRGnx8acQCBPIrp-ap-ffzuIy0]--></g></svg>