<svg xmlns="http://www.w3.org/2000/svg" xmlns:xlink="http://www.w3.org/1999/xlink" contentStyleType="text/css" data-diagram-type="SEQUENCE" height="667px" preserveAspectRatio="none" style="width:1548px;height:667px;background:#FFFFFF;" version="1.1" viewBox="0 0 1548 667" width="1548px" zoomAndPan="magnify"><defs/><g><g><title>Admin Qualifa</title><rect fill="#FFFFFF" height="483.2734" style="stroke:#181818;stroke-width:1;" width="10" x="61.9653" y="92.6094"/></g><g><title>Portal Backoffice Admin</title><rect fill="#FFFFFF" height="461.9219" style="stroke:#181818;stroke-width:1;" width="10" x="447.5693" y="114.9609"/></g><g><title>Portal Backoffice Admin</title><rect fill="#FFFFFF" height="193.7578" style="stroke:#181818;stroke-width:1;" width="10" x="452.5693" y="383.125"/></g><g><title>Backend Independen Qualifa</title><rect fill="#FFFFFF" height="151.7578" style="stroke:#181818;stroke-width:1;" width="10" x="901.1396" y="145.3125"/></g><g><title>Backend Independen Qualifa</title><rect fill="#FFFFFF" height="117.0547" style="stroke:#181818;stroke-width:1;" width="10" x="901.1396" y="413.4766"/></g><g><title>Backend Independen Qualifa</title><rect fill="#FFFFFF" height="41.3516" style="stroke:#181818;stroke-width:1;" width="10" x="906.1396" y="451.8281"/></g><g><title>Database Qualifa</title><rect fill="#FFFFFF" height="30.3516" style="stroke:#181818;stroke-width:1;" width="10" x="1334.4146" y="175.6641"/></g><g><title>WORM Hash Storage</title><rect fill="#FFFFFF" height="30.3516" style="stroke:#181818;stroke-width:1;" width="10" x="1472.1899" y="236.3672"/></g><rect fill="none" height="226.4609" style="stroke:#000000;stroke-width:1.5;" width="1334.4146" x="10" y="342.4219"/><g><title>Admin Qualifa</title><rect fill="#000000" fill-opacity="0.00000" height="503.2734" width="8" x="62.9653" y="82.6094"/><line style="stroke:#181818;stroke-width:0.5;stroke-dasharray:5.0,5.0;" x1="66" x2="66" y1="82.6094" y2="585.8828"/></g><g><title>Portal Backoffice Admin</title><rect fill="#000000" fill-opacity="0.00000" height="503.2734" width="8" x="448.5693" y="82.6094"/><line style="stroke:#181818;stroke-width:0.5;stroke-dasharray:5.0,5.0;" x1="452.2593" x2="452.2593" y1="82.6094" y2="585.8828"/></g><g><title>Backend Independen Qualifa</title><rect fill="#000000" fill-opacity="0.00000" height="503.2734" width="8" x="902.1396" y="82.6094"/><line style="stroke:#181818;stroke-width:0.5;stroke-dasharray:5.0,5.0;" x1="905.8472" x2="905.8472" y1="82.6094" y2="585.8828"/></g><g><title>Database Qualifa</title><rect fill="#000000" fill-opacity="0.00000" height="503.2734" width="8" x="1335.4146" y="82.6094"/><line style="stroke:#181818;stroke-width:0.5;stroke-dasharray:5.0,5.0;" x1="1339.3252" x2="1339.3252" y1="82.6094" y2="585.8828"/></g><g><title>WORM Hash Storage</title><rect fill="#000000" fill-opacity="0.00000" height="503.2734" width="8" x="1473.1899" y="82.6094"/><line style="stroke:#181818;stroke-width:0.5;stroke-dasharray:5.0,5.0;" x1="1476.5039" x2="1476.5039" y1="82.6094" y2="585.8828"/></g><g class="participant participant-head" data-participant="Admin"><text fill="#000000" font-family="sans-serif" font-size="14" lengthAdjust="spacing" textLength="87.9307" x="20" y="79.5332">Admin Qualifa</text><ellipse cx="66.9653" cy="13.5" fill="#E2E2F0" rx="8" ry="8" style="stroke:#181818;stroke-width:0.5;"/><path d="M66.9653,21.5 L66.9653,48.5 M53.9653,29.5 L79.9653,29.5 M66.9653,48.5 L53.9653,63.5 M66.9653,48.5 L79.9653,63.5" fill="none" style="stroke:#181818;stroke-width:0.5;"/></g><g class="participant participant-tail" data-participant="Admin"><text fill="#000000" font-family="sans-serif" font-size="14" lengthAdjust="spacing" textLength="87.9307" x="20" y="599.416">Admin Qualifa</text><ellipse cx="66.9653" cy="610.9922" fill="#E2E2F0" rx="8" ry="8" style="stroke:#181818;stroke-width:0.5;"/><path d="M66.9653,618.9922 L66.9653,645.9922 M53.9653,626.9922 L79.9653,626.9922 M66.9653,645.9922 L53.9653,660.9922 M66.9653,645.9922 L79.9653,660.9922" fill="none" style="stroke:#181818;stroke-width:0.5;"/></g><g class="participant participant-head" data-participant="FE"><rect fill="#E2E2F0" height="31.6094" rx="2.5" ry="2.5" style="stroke:#181818;stroke-width:0.5;" width="162.6201" x="371.2593" y="50"/><text fill="#000000" font-family="sans-serif" font-size="14" lengthAdjust="spacing" textLength="148.6201" x="378.2593" y="71.5332">Portal Backoffice Admin</text></g><g class="participant participant-tail" data-participant="FE"><rect fill="#E2E2F0" height="31.6094" rx="2.5" ry="2.5" style="stroke:#181818;stroke-width:0.5;" width="162.6201" x="371.2593" y="584.8828"/><text fill="#000000" font-family="sans-serif" font-size="14" lengthAdjust="spacing" textLength="148.6201" x="378.2593" y="606.416">Portal Backoffice Admin</text></g><g class="participant participant-head" data-participant="BE"><rect fill="#E2E2F0" height="31.6094" rx="2.5" ry="2.5" style="stroke:#181818;stroke-width:0.5;" width="194.585" x="808.8472" y="50"/><text fill="#000000" font-family="sans-serif" font-size="14" lengthAdjust="spacing" textLength="180.585" x="815.8472" y="71.5332">Backend Independen Qualifa</text></g><g class="participant participant-tail" data-participant="BE"><rect fill="#E2E2F0" height="31.6094" rx="2.5" ry="2.5" style="stroke:#181818;stroke-width:0.5;" width="194.585" x="808.8472" y="584.8828"/><text fill="#000000" font-family="sans-serif" font-size="14" lengthAdjust="spacing" textLength="180.585" x="815.8472" y="606.416">Backend Independen Qualifa</text></g><g class="participant participant-head" data-participant="DB"><text fill="#000000" font-family="sans-serif" font-size="14" lengthAdjust="spacing" textLength="108.1787" x="1282.3252" y="79.5332">Database Qualifa</text><path d="M1321.4146,29 C1321.4146,19 1339.4146,19 1339.4146,19 C1339.4146,19 1357.4146,19 1357.4146,29 L1357.4146,55 C1357.4146,65 1339.4146,65 1339.4146,65 C1339.4146,65 1321.4146,65 1321.4146,55 L1321.4146,29" fill="#E2E2F0" style="stroke:#181818;stroke-width:1.5;"/><path d="M1321.4146,29 C1321.4146,39 1339.4146,39 1339.4146,39 C1339.4146,39 1357.4146,39 1357.4146,29" fill="none" style="stroke:#181818;stroke-width:1.5;"/></g><g class="participant participant-tail" data-participant="DB"><text fill="#000000" font-family="sans-serif" font-size="14" lengthAdjust="spacing" textLength="108.1787" x="1282.3252" y="599.416">Database Qualifa</text><path d="M1321.4146,612.4922 C1321.4146,602.4922 1339.4146,602.4922 1339.4146,602.4922 C1339.4146,602.4922 1357.4146,602.4922 1357.4146,612.4922 L1357.4146,638.4922 C1357.4146,648.4922 1339.4146,648.4922 1339.4146,648.4922 C1339.4146,648.4922 1321.4146,648.4922 1321.4146,638.4922 L1321.4146,612.4922" fill="#E2E2F0" style="stroke:#181818;stroke-width:1.5;"/><path d="M1321.4146,612.4922 C1321.4146,622.4922 1339.4146,622.4922 1339.4146,622.4922 C1339.4146,622.4922 1357.4146,622.4922 1357.4146,612.4922" fill="none" style="stroke:#181818;stroke-width:1.5;"/></g><g class="participant participant-head" data-participant="WORM"><text fill="#000000" font-family="sans-serif" font-size="14" lengthAdjust="spacing" textLength="135.3721" x="1406.5039" y="79.5332">WORM Hash Storage</text><path d="M1459.1899,29 C1459.1899,19 1477.1899,19 1477.1899,19 C1477.1899,19 1495.1899,19 1495.1899,29 L1495.1899,55 C1495.1899,65 1477.1899,65 1477.1899,65 C1477.1899,65 1459.1899,65 1459.1899,55 L1459.1899,29" fill="#E2E2F0" style="stroke:#181818;stroke-width:1.5;"/><path d="M1459.1899,29 C1459.1899,39 1477.1899,39 1477.1899,39 C1477.1899,39 1495.1899,39 1495.1899,29" fill="none" style="stroke:#181818;stroke-width:1.5;"/></g><g class="participant participant-tail" data-participant="WORM"><text fill="#000000" font-family="sans-serif" font-size="14" lengthAdjust="spacing" textLength="135.3721" x="1406.5039" y="599.416">WORM Hash Storage</text><path d="M1459.1899,612.4922 C1459.1899,602.4922 1477.1899,602.4922 1477.1899,602.4922 C1477.1899,602.4922 1495.1899,602.4922 1495.1899,612.4922 L1495.1899,638.4922 C1495.1899,648.4922 1477.1899,648.4922 1477.1899,648.4922 C1477.1899,648.4922 1459.1899,648.4922 1459.1899,638.4922 L1459.1899,612.4922" fill="#E2E2F0" style="stroke:#181818;stroke-width:1.5;"/><path d="M1459.1899,612.4922 C1459.1899,622.4922 1477.1899,622.4922 1477.1899,622.4922 C1477.1899,622.4922 1495.1899,622.4922 1495.1899,612.4922" fill="none" style="stroke:#181818;stroke-width:1.5;"/></g><g><title>Admin Qualifa</title><rect fill="#FFFFFF" height="483.2734" style="stroke:#181818;stroke-width:1;" width="10" x="61.9653" y="92.6094"/></g><g><title>Portal Backoffice Admin</title><rect fill="#FFFFFF" height="461.9219" style="stroke:#181818;stroke-width:1;" width="10" x="447.5693" y="114.9609"/></g><g><title>Portal Backoffice Admin</title><rect fill="#FFFFFF" height="193.7578" style="stroke:#181818;stroke-width:1;" width="10" x="452.5693" y="383.125"/></g><g><title>Backend Independen Qualifa</title><rect fill="#FFFFFF" height="151.7578" style="stroke:#181818;stroke-width:1;" width="10" x="901.1396" y="145.3125"/></g><g><title>Backend Independen Qualifa</title><rect fill="#FFFFFF" height="117.0547" style="stroke:#181818;stroke-width:1;" width="10" x="901.1396" y="413.4766"/></g><g><title>Backend Independen Qualifa</title><rect fill="#FFFFFF" height="41.3516" style="stroke:#181818;stroke-width:1;" width="10" x="906.1396" y="451.8281"/></g><g><title>Database Qualifa</title><rect fill="#FFFFFF" height="30.3516" style="stroke:#181818;stroke-width:1;" width="10" x="1334.4146" y="175.6641"/></g><g><title>WORM Hash Storage</title><rect fill="#FFFFFF" height="30.3516" style="stroke:#181818;stroke-width:1;" width="10" x="1472.1899" y="236.3672"/></g><g class="message" data-participant-1="Admin" data-participant-2="FE"><polygon fill="#181818" points="435.5693,110.9609,445.5693,114.9609,435.5693,118.9609,439.5693,114.9609" style="stroke:#181818;stroke-width:1;"/><line style="stroke:#181818;stroke-width:1;" x1="71.9653" x2="441.5693" y1="114.9609" y2="114.9609"/><text fill="#000000" font-family="sans-serif" font-size="13" font-weight="bold" lengthAdjust="spacing" textLength="7.23" x="78.9653" y="110.1045">1</text><text fill="#000000" font-family="sans-serif" font-size="13" lengthAdjust="spacing" textLength="286.165" x="90.1953" y="110.1045">Buka Modul Keuangan &amp; Buku Besar Honorarium</text></g><g class="message" data-participant-1="FE" data-participant-2="BE"><polygon fill="#181818" points="889.1396,141.3125,899.1396,145.3125,889.1396,149.3125,893.1396,145.3125" style="stroke:#181818;stroke-width:1;"/><line style="stroke:#181818;stroke-width:1;" x1="457.5693" x2="895.1396" y1="145.3125" y2="145.3125"/><text fill="#000000" font-family="sans-serif" font-size="13" font-weight="bold" lengthAdjust="spacing" textLength="7.23" x="464.5693" y="140.4561">2</text><text fill="#000000" font-family="sans-serif" font-size="13" lengthAdjust="spacing" textLength="413.3403" x="475.7993" y="140.4561">GET /api/v1/admin/finance/honorarium-ledger?startDate=X&amp;endDate=Y</text></g><g class="message" data-participant-1="BE" data-participant-2="DB"><polygon fill="#181818" points="1322.4146,171.6641,1332.4146,175.6641,1322.4146,179.6641,1326.4146,175.6641" style="stroke:#181818;stroke-width:1;"/><line style="stroke:#181818;stroke-width:1;" x1="911.1396" x2="1328.4146" y1="175.6641" y2="175.6641"/><text fill="#000000" font-family="sans-serif" font-size="13" font-weight="bold" lengthAdjust="spacing" textLength="7.23" x="918.1396" y="170.8076">3</text><text fill="#000000" font-family="sans-serif" font-size="13" lengthAdjust="spacing" textLength="289.0278" x="929.3696" y="170.8076">Query Rekapitulasi Saldo &amp; Bagi Hasil (20%/80%)</text></g><g class="message" data-participant-1="DB" data-participant-2="BE"><polygon fill="#181818" points="922.1396,202.0156,912.1396,206.0156,922.1396,210.0156,918.1396,206.0156" style="stroke:#181818;stroke-width:1;"/><line style="stroke:#181818;stroke-width:1;stroke-dasharray:2.0,2.0;" x1="916.1396" x2="1338.4146" y1="206.0156" y2="206.0156"/><text fill="#000000" font-family="sans-serif" font-size="13" font-weight="bold" lengthAdjust="spacing" textLength="7.23" x="928.1396" y="201.1592">4</text><text fill="#000000" font-family="sans-serif" font-size="13" lengthAdjust="spacing" textLength="146.6753" x="939.3696" y="201.1592">Return Financial Records</text></g><g class="message" data-participant-1="BE" data-participant-2="WORM"><polygon fill="#181818" points="1460.1899,232.3672,1470.1899,236.3672,1460.1899,240.3672,1464.1899,236.3672" style="stroke:#181818;stroke-width:1;"/><line style="stroke:#181818;stroke-width:1;" x1="911.1396" x2="1466.1899" y1="236.3672" y2="236.3672"/><text fill="#000000" font-family="sans-serif" font-size="13" font-weight="bold" lengthAdjust="spacing" textLength="7.23" x="918.1396" y="231.5107">5</text><text fill="#000000" font-family="sans-serif" font-size="13" lengthAdjust="spacing" textLength="252.8906" x="929.3696" y="231.5107">Validasi Integritas Hash SHA-256 Transaksi</text></g><g class="message" data-participant-1="WORM" data-participant-2="BE"><polygon fill="#181818" points="922.1396,262.7188,912.1396,266.7188,922.1396,270.7188,918.1396,266.7188" style="stroke:#181818;stroke-width:1;"/><line style="stroke:#181818;stroke-width:1;stroke-dasharray:2.0,2.0;" x1="916.1396" x2="1476.1899" y1="266.7188" y2="266.7188"/><text fill="#000000" font-family="sans-serif" font-size="13" font-weight="bold" lengthAdjust="spacing" textLength="7.23" x="928.1396" y="261.8623">6</text><text fill="#000000" font-family="sans-serif" font-size="13" lengthAdjust="spacing" textLength="174.1543" x="939.3696" y="261.8623">Return Hash Validation Status</text></g><g class="message" data-participant-1="BE" data-participant-2="FE"><polygon fill="#181818" points="468.5693,293.0703,458.5693,297.0703,468.5693,301.0703,464.5693,297.0703" style="stroke:#181818;stroke-width:1;"/><line style="stroke:#181818;stroke-width:1;stroke-dasharray:2.0,2.0;" x1="462.5693" x2="905.1396" y1="297.0703" y2="297.0703"/><text fill="#000000" font-family="sans-serif" font-size="13" font-weight="bold" lengthAdjust="spacing" textLength="7.23" x="474.5693" y="292.2139">7</text><text fill="#000000" font-family="sans-serif" font-size="13" lengthAdjust="spacing" textLength="247.1333" x="485.7993" y="292.2139">200 OK (Data Ledger &amp; Status Hash Valid)</text></g><g class="message" data-participant-1="FE" data-participant-2="Admin"><polygon fill="#181818" points="82.9653,323.4219,72.9653,327.4219,82.9653,331.4219,78.9653,327.4219" style="stroke:#181818;stroke-width:1;"/><line style="stroke:#181818;stroke-width:1;stroke-dasharray:2.0,2.0;" x1="76.9653" x2="446.5693" y1="327.4219" y2="327.4219"/><text fill="#000000" font-family="sans-serif" font-size="13" font-weight="bold" lengthAdjust="spacing" textLength="7.23" x="88.9653" y="322.5654">8</text><text fill="#000000" font-family="sans-serif" font-size="13" lengthAdjust="spacing" textLength="340.374" x="100.1953" y="322.5654">Tampilkan Tabel Laporan Keuangan Honorarium &amp; PPh 21</text></g><path d="M10,342.4219 L75.2109,342.4219 L75.2109,350.7734 L65.2109,360.7734 L10,360.7734 L10,342.4219" fill="#EEEEEE" style="stroke:#000000;stroke-width:1.5;"/><rect fill="none" height="226.4609" style="stroke:#000000;stroke-width:1.5;" width="1334.4146" x="10" y="342.4219"/><text fill="#000000" font-family="sans-serif" font-size="13" font-weight="bold" lengthAdjust="spacing" textLength="20.2109" x="25" y="356.917">opt</text><text fill="#000000" font-family="sans-serif" font-size="11" font-weight="bold" lengthAdjust="spacing" textLength="220.6284" x="90.2109" y="355.8408">[Unduh Bukti Rekap PPh 21 &amp; Hash Audit]</text><g class="message" data-participant-1="Admin" data-participant-2="FE"><polygon fill="#181818" points="440.5693,379.125,450.5693,383.125,440.5693,387.125,444.5693,383.125" style="stroke:#181818;stroke-width:1;"/><line style="stroke:#181818;stroke-width:1;" x1="71.9653" x2="446.5693" y1="383.125" y2="383.125"/><text fill="#000000" font-family="sans-serif" font-size="13" font-weight="bold" lengthAdjust="spacing" textLength="7.23" x="78.9653" y="378.2686">9</text><text fill="#000000" font-family="sans-serif" font-size="13" lengthAdjust="spacing" textLength="201.6333" x="90.1953" y="378.2686">Klik Unduh Laporan Rekap PPh 21</text></g><g class="message" data-participant-1="FE" data-participant-2="BE"><polygon fill="#181818" points="889.1396,409.4766,899.1396,413.4766,889.1396,417.4766,893.1396,413.4766" style="stroke:#181818;stroke-width:1;"/><line style="stroke:#181818;stroke-width:1;" x1="462.5693" x2="895.1396" y1="413.4766" y2="413.4766"/><text fill="#000000" font-family="sans-serif" font-size="13" font-weight="bold" lengthAdjust="spacing" textLength="14.46" x="469.5693" y="408.6201">10</text><text fill="#000000" font-family="sans-serif" font-size="13" lengthAdjust="spacing" textLength="252.8906" x="488.0293" y="408.6201">GET /api/v1/admin/finance/export-tax-report</text></g><g class="message" data-participant-1="BE" data-participant-2="BE"><line style="stroke:#181818;stroke-width:1;" x1="911.1396" x2="958.1396" y1="438.8281" y2="438.8281"/><line style="stroke:#181818;stroke-width:1;" x1="958.1396" x2="958.1396" y1="438.8281" y2="451.8281"/><line style="stroke:#181818;stroke-width:1;" x1="917.1396" x2="958.1396" y1="451.8281" y2="451.8281"/><polygon fill="#181818" points="927.1396,447.8281,917.1396,451.8281,927.1396,455.8281,923.1396,451.8281" style="stroke:#181818;stroke-width:1;"/><text fill="#000000" font-family="sans-serif" font-size="13" font-weight="bold" lengthAdjust="spacing" textLength="14.46" x="923.1396" y="433.9717">11</text><text fill="#000000" font-family="sans-serif" font-size="13" lengthAdjust="spacing" textLength="380.8149" x="941.5996" y="433.9717">Generate Dokumen PDF/Excel dengan Digital Signature SHA-256</text></g><g class="message" data-participant-1="BE" data-participant-2="BE"><line style="stroke:#181818;stroke-width:1;stroke-dasharray:2.0,2.0;" x1="916.1396" x2="958.1396" y1="492.1797" y2="492.1797"/><line style="stroke:#181818;stroke-width:1;stroke-dasharray:2.0,2.0;" x1="958.1396" x2="958.1396" y1="492.1797" y2="505.1797"/><line style="stroke:#181818;stroke-width:1;stroke-dasharray:2.0,2.0;" x1="911.1396" x2="958.1396" y1="505.1797" y2="505.1797"/><polygon fill="#181818" points="921.1396,501.1797,911.1396,505.1797,921.1396,509.1797,917.1396,505.1797" style="stroke:#181818;stroke-width:1;"/><text fill="#000000" font-family="sans-serif" font-size="13" font-weight="bold" lengthAdjust="spacing" textLength="14.46" x="923.1396" y="487.3232">12</text><text fill="#000000" font-family="sans-serif" font-size="13" lengthAdjust="spacing" textLength="184.2598" x="941.5996" y="487.3232">Return Computed Result / State</text></g><g class="message" data-participant-1="BE" data-participant-2="FE"><polygon fill="#181818" points="473.5693,526.5313,463.5693,530.5313,473.5693,534.5313,469.5693,530.5313" style="stroke:#181818;stroke-width:1;"/><line style="stroke:#181818;stroke-width:1;stroke-dasharray:2.0,2.0;" x1="467.5693" x2="905.1396" y1="530.5313" y2="530.5313"/><text fill="#000000" font-family="sans-serif" font-size="13" font-weight="bold" lengthAdjust="spacing" textLength="14.46" x="479.5693" y="525.6748">13</text><text fill="#000000" font-family="sans-serif" font-size="13" lengthAdjust="spacing" textLength="159.6753" x="498.0293" y="525.6748">200 OK (File Export Ready)</text></g><g class="message" data-participant-1="FE" data-participant-2="Admin"><polygon fill="#181818" points="82.9653,556.8828,72.9653,560.8828,82.9653,564.8828,78.9653,560.8828" style="stroke:#181818;stroke-width:1;"/><line style="stroke:#181818;stroke-width:1;stroke-dasharray:2.0,2.0;" x1="76.9653" x2="451.5693" y1="560.8828" y2="560.8828"/><text fill="#000000" font-family="sans-serif" font-size="13" font-weight="bold" lengthAdjust="spacing" textLength="14.46" x="88.9653" y="556.0264">14</text><text fill="#000000" font-family="sans-serif" font-size="13" lengthAdjust="spacing" textLength="244.2515" x="107.4253" y="556.0264">Download File Laporan Rekapitulasi Pajak</text></g><!--SRC=[ZLDTJnin47pthrX50e7GwKAaLXLIMt6zf210X91-FIxdpSKznpxvR3x-VTU-92Ib3ysJuvkPtPrPO_3MXDK3EO6Ljmu6vtAb3Dm5r6g10y0EqereqNbLgHQDXy7KEeyQ2gmQkrYeYdfGWa_6-zW88YFXqaXg-K3xwiLOIFJuW1t1eDoSTX5biOFuSJkxWGlibd3FxM9D2H9lHPn0FQ9VDoFwIR9Ft16SdC0P5A51kB4oQBYYWAP60uVnDa117Jgui8OrdGehmHnc5clcr_4SScnL_dYQOvJD5ygWgIXVRYcP9bcJ-znvdfu7eOy_3tdSTFebYgHN5htUNI3t0ZDgMDC7ZPs2UzJIndQmLd50fU5eD3p8FmmFZWNpihwTB6FwZ7nm1YQf1yL1pAYoJdRhAicZLESxkoYZ-gNnL3lbsQlUl8lpRFJkFSmTcWwRJeb4-aUH1EzrlBA6RKSV-agzjGay6WxXzWgEOe1mdOpWMNhiZiHnyfLvVJPdCCTLgtJ3GSpnWJHSOyjscjTyNYDXlUbq2QDJ8MphuPkHOHd3ywetSlsLOQdUUP3A2-3VcpsuqgfPypVrTXKIwN_pfsSMy9d7vynHF2PsiSycGoxkPMcRiEBzdvQJVFnSyRpy6kAKfQfLV53tgZPicQDDG5krjy5yiQisU9BylmlQGvxifbt6t-bCb2OOfuwPXVBbU3lhJYQbVJBQeeG4ttDeiwnJ_8sDuEqMalPVtHy0]--></g></svg>