<?xml version="1.0" encoding="us-ascii" standalone="no"?><svg xmlns="http://www.w3.org/2000/svg" xmlns:xlink="http://www.w3.org/1999/xlink" contentStyleType="text/css" height="376px" preserveAspectRatio="none" style="width:1150px;height:376px;background:#FFFFFF;" version="1.1" viewBox="0 0 1150 376" width="1150px" zoomAndPan="magnify"><defs/><g><rect fill="#DDDDDD" height="16.0938" style="stroke:#000000;stroke-width:1.0;" width="1137" x="6" y="6"/><text fill="#000000" font-family="sans-serif" font-size="12" font-weight="bold" lengthAdjust="spacing" textLength="49" x="6" y="18.457">JUSTICA</text><text fill="#000000" font-family="sans-serif" font-size="12" lengthAdjust="spacing" textLength="192" x="58" y="18.457">- Portal Verifikasi Dokumen Hukum</text><text fill="#000000" font-family="sans-serif" font-size="12" lengthAdjust="spacing" textLength="134" x="260" y="18.457">[ &lt; Kembali ke Beranda ]</text><text fill="#000000" font-family="sans-serif" font-size="12" lengthAdjust="spacing" textLength="38" x="404" y="18.457">[ &#9728; / &#9790; ]</text><line style="stroke:#AAAAAA;stroke-width:1.0;" x1="6" x2="1143" y1="26.5938" y2="26.5938"/><text fill="#000000" font-family="sans-serif" font-size="13" font-weight="bold" lengthAdjust="spacing" textLength="417" x="7" y="45.5889">VERIFIKASI INTEGRITAS DOKUMEN HUKUM &amp; e-METERAI SHA-256</text><text fill="#000000" font-family="sans-serif" font-size="12" lengthAdjust="spacing" textLength="802" x="10" y="62.9023">Periksa keaslian dan keabsahan dokumen pendapat hukum (*Legal Opinion*) atau kontrak ber-e-Meterai yang diterbitkan melalui platform Justica.</text><line style="stroke:#000000;stroke-width:1.0;" x1="8" x2="1139" y1="65.5391" y2="65.5391"/><line style="stroke:#000000;stroke-width:1.0;" x1="8" x2="8" y1="62.5391" y2="64.5391"/><line style="stroke:#000000;stroke-width:1.0;" x1="1139" x2="1139" y1="62.5391" y2="64.5391"/><line style="stroke:#AAAAAA;stroke-width:1.0;" x1="6" x2="1143" y1="74.0391" y2="74.0391"/><text fill="#000000" font-family="sans-serif" font-size="12" font-weight="bold" lengthAdjust="spacing" textLength="320" x="7" y="91.9961">MASUKKAN KODE VERIFIKASI / HASH SHA-256 DOKUMEN</text><line style="stroke:#AAAAAA;stroke-width:1.0;" x1="7" x2="328" y1="100.1328" y2="100.1328"/><text fill="#000000" font-family="sans-serif" font-size="12" lengthAdjust="spacing" textLength="211" x="7" y="117.0898">Nomor Seri Dokumen / Hash SHA-256</text><text fill="#000000" font-family="sans-serif" font-size="12" lengthAdjust="spacing" textLength="414" x="332" y="117.0898">e8f9a0c2b4d6e8f0a2c4e6f8a0b2d4c6e8f0a2c4e6f8a0b2d4c6e8f0a2c4e6f8</text><line style="stroke:#000000;stroke-width:1.0;" x1="330" x2="845" y1="119.7266" y2="119.7266"/><line style="stroke:#000000;stroke-width:1.0;" x1="330" x2="330" y1="116.7266" y2="118.7266"/><line style="stroke:#000000;stroke-width:1.0;" x1="845" x2="845" y1="116.7266" y2="118.7266"/><text fill="#000000" font-family="sans-serif" font-size="12" lengthAdjust="spacing" textLength="163" x="7" y="136.1836">Atau Unggah Berkas PDF Asli</text><rect fill="#EEEEEE" height="19.0938" rx="5" ry="5" style="stroke:#000000;stroke-width:2.5;" width="476" x="331.5" y="126.2266"/><text fill="#000000" font-family="sans-serif" font-size="12" lengthAdjust="spacing" textLength="318" x="410.5" y="140.6836">Pilih Dokumen PDF (Max 10MB) untuk verifikasi otomatis...</text><line style="stroke:#AAAAAA;stroke-width:1.0;" x1="7" x2="328" y1="153.3203" y2="153.3203"/><rect fill="#EEEEEE" height="19.0938" rx="5" ry="5" style="stroke:#000000;stroke-width:2.5;" width="300" x="9.5" y="160.3203"/><text fill="#000000" font-family="sans-serif" font-size="12" font-weight="bold" lengthAdjust="spacing" textLength="237" x="41" y="174.7773">PERIKSA KEASLIAN DOKUMEN SEKARANG</text><line style="stroke:#AAAAAA;stroke-width:1.0;" x1="6" x2="1143" y1="188.4141" y2="188.4141"/><text fill="#000000" font-family="sans-serif" font-size="12" font-weight="bold" lengthAdjust="spacing" textLength="397" x="7" y="206.3711">HASIL PEMERIKSAAN INTEGRITAS DOKUMEN (RESMI &amp; TERVERIFIKASI)</text><line style="stroke:#AAAAAA;stroke-width:1.0;" x1="7" x2="678.375" y1="214.5078" y2="214.5078"/><text fill="#000000" font-family="sans-serif" font-size="12" font-weight="bold" lengthAdjust="spacing" textLength="118" x="8" y="232.4648">Parameter Verifikasi</text><text fill="#000000" font-family="sans-serif" font-size="12" font-weight="bold" lengthAdjust="spacing" textLength="255" x="128" y="232.4648">Nilai Terpindai pada Database WORM Justica</text><text fill="#000000" font-family="sans-serif" font-size="12" font-weight="bold" lengthAdjust="spacing" textLength="101" x="483.375" y="232.4648">Status Kepatuhan</text><text fill="#000000" font-family="sans-serif" font-size="12" lengthAdjust="spacing" textLength="87" x="8" y="249.5586">Status Keaslian</text><text fill="#000000" font-family="sans-serif" font-size="12" font-weight="bold" lengthAdjust="spacing" textLength="353.375" x="128" y="249.5586">DOKUMEN ASLI &#8212; TIDAK ADA PERUBAHAN ISI (0 BIT MODIFIED)</text><rect fill="#EEEEEE" height="19.0938" rx="5" ry="5" style="stroke:#000000;stroke-width:2.5;" width="156" x="485.875" y="239.6016"/><text fill="#000000" font-family="sans-serif" font-size="12" font-weight="bold" lengthAdjust="spacing" textLength="116" x="505.875" y="254.0586">VALIDATED SHA-256</text><text fill="#000000" font-family="sans-serif" font-size="12" lengthAdjust="spacing" textLength="97" x="8" y="275.6523">Penerbit / Advokat</text><text fill="#000000" font-family="sans-serif" font-size="12" lengthAdjust="spacing" textLength="313" x="128" y="275.6523">Dr. Mahendra Kusuma, S.H., M.H. (SIPP PERADI #18293)</text><rect fill="#EEEEEE" height="19.0938" rx="5" ry="5" style="stroke:#000000;stroke-width:2.5;" width="188" x="485.875" y="265.6953"/><text fill="#000000" font-family="sans-serif" font-size="12" font-weight="bold" lengthAdjust="spacing" textLength="147" x="506.375" y="280.1523">ADVOKAT BERLISENSI MA</text><text fill="#000000" font-family="sans-serif" font-size="12" lengthAdjust="spacing" textLength="107" x="8" y="301.7461">Tanggal Diterbitkan</text><text fill="#000000" font-family="sans-serif" font-size="12" lengthAdjust="spacing" textLength="158" x="128" y="301.7461">02 Juli 2026 &#8212; 14:30:12 WIB</text><rect fill="#EEEEEE" height="19.0938" rx="5" ry="5" style="stroke:#000000;stroke-width:2.5;" width="148" x="485.875" y="291.7891"/><text fill="#000000" font-family="sans-serif" font-size="12" font-weight="bold" lengthAdjust="spacing" textLength="125" x="497.375" y="306.2461">RECORDED ON WORM</text><text fill="#000000" font-family="sans-serif" font-size="12" lengthAdjust="spacing" textLength="89" x="8" y="327.8398">Status e-Meterai</text><text fill="#000000" font-family="sans-serif" font-size="12" lengthAdjust="spacing" textLength="334" x="128" y="327.8398">e-Meterai Peruri Resmi Rp10.000 (Nomor Seri: 1029384756)</text><rect fill="#EEEEEE" height="19.0938" rx="5" ry="5" style="stroke:#000000;stroke-width:2.5;" width="148" x="485.875" y="317.8828"/><text fill="#000000" font-family="sans-serif" font-size="12" font-weight="bold" lengthAdjust="spacing" textLength="101" x="509.375" y="332.3398">PERURI API VALID</text><line style="stroke:#000000;stroke-width:1.0;" x1="7" x2="127" y1="219.0078" y2="219.0078"/><line style="stroke:#000000;stroke-width:1.0;" x1="482.375" x2="677.375" y1="262.1953" y2="262.1953"/><line style="stroke:#000000;stroke-width:1.0;" x1="127" x2="482.375" y1="219.0078" y2="219.0078"/><line style="stroke:#000000;stroke-width:1.0;" x1="482.375" x2="677.375" y1="219.0078" y2="219.0078"/><line style="stroke:#000000;stroke-width:1.0;" x1="7" x2="127" y1="340.4766" y2="340.4766"/><line style="stroke:#000000;stroke-width:1.0;" x1="127" x2="482.375" y1="340.4766" y2="340.4766"/><line style="stroke:#000000;stroke-width:1.0;" x1="482.375" x2="677.375" y1="340.4766" y2="340.4766"/><line style="stroke:#000000;stroke-width:1.0;" x1="7" x2="127" y1="288.2891" y2="288.2891"/><line style="stroke:#000000;stroke-width:1.0;" x1="127" x2="482.375" y1="288.2891" y2="288.2891"/><line style="stroke:#000000;stroke-width:1.0;" x1="7" x2="127" y1="236.1016" y2="236.1016"/><line style="stroke:#000000;stroke-width:1.0;" x1="482.375" x2="677.375" y1="288.2891" y2="288.2891"/><line style="stroke:#000000;stroke-width:1.0;" x1="127" x2="482.375" y1="236.1016" y2="236.1016"/><line style="stroke:#000000;stroke-width:1.0;" x1="482.375" x2="677.375" y1="236.1016" y2="236.1016"/><line style="stroke:#000000;stroke-width:1.0;" x1="7" x2="127" y1="314.3828" y2="314.3828"/><line style="stroke:#000000;stroke-width:1.0;" x1="127" x2="482.375" y1="314.3828" y2="314.3828"/><line style="stroke:#000000;stroke-width:1.0;" x1="7" x2="127" y1="262.1953" y2="262.1953"/><line style="stroke:#000000;stroke-width:1.0;" x1="482.375" x2="677.375" y1="314.3828" y2="314.3828"/><line style="stroke:#000000;stroke-width:1.0;" x1="127" x2="482.375" y1="262.1953" y2="262.1953"/><line style="stroke:#000000;stroke-width:1.0;" x1="7" x2="7" y1="219.0078" y2="236.1016"/><line style="stroke:#000000;stroke-width:1.0;" x1="482.375" x2="482.375" y1="262.1953" y2="288.2891"/><line style="stroke:#000000;stroke-width:1.0;" x1="677.375" x2="677.375" y1="262.1953" y2="288.2891"/><line style="stroke:#000000;stroke-width:1.0;" x1="127" x2="127" y1="219.0078" y2="236.1016"/><line style="stroke:#000000;stroke-width:1.0;" x1="482.375" x2="482.375" y1="219.0078" y2="236.1016"/><line style="stroke:#000000;stroke-width:1.0;" x1="677.375" x2="677.375" y1="219.0078" y2="236.1016"/><line style="stroke:#000000;stroke-width:1.0;" x1="7" x2="7" y1="288.2891" y2="314.3828"/><line style="stroke:#000000;stroke-width:1.0;" x1="127" x2="127" y1="288.2891" y2="314.3828"/><line style="stroke:#000000;stroke-width:1.0;" x1="7" x2="7" y1="236.1016" y2="262.1953"/><line style="stroke:#000000;stroke-width:1.0;" x1="482.375" x2="482.375" y1="288.2891" y2="314.3828"/><line style="stroke:#000000;stroke-width:1.0;" x1="677.375" x2="677.375" y1="288.2891" y2="314.3828"/><line style="stroke:#000000;stroke-width:1.0;" x1="127" x2="127" y1="236.1016" y2="262.1953"/><line style="stroke:#000000;stroke-width:1.0;" x1="482.375" x2="482.375" y1="236.1016" y2="262.1953"/><line style="stroke:#000000;stroke-width:1.0;" x1="677.375" x2="677.375" y1="236.1016" y2="262.1953"/><line style="stroke:#000000;stroke-width:1.0;" x1="7" x2="7" y1="314.3828" y2="340.4766"/><line style="stroke:#000000;stroke-width:1.0;" x1="127" x2="127" y1="314.3828" y2="340.4766"/><line style="stroke:#000000;stroke-width:1.0;" x1="7" x2="7" y1="262.1953" y2="288.2891"/><line style="stroke:#000000;stroke-width:1.0;" x1="482.375" x2="482.375" y1="314.3828" y2="340.4766"/><line style="stroke:#000000;stroke-width:1.0;" x1="677.375" x2="677.375" y1="314.3828" y2="340.4766"/><line style="stroke:#000000;stroke-width:1.0;" x1="127" x2="127" y1="262.1953" y2="288.2891"/><line style="stroke:#AAAAAA;stroke-width:1.0;" x1="6" x2="1143" y1="346.9766" y2="346.9766"/><text fill="#000000" font-family="sans-serif" font-size="12" lengthAdjust="spacing" textLength="605" x="7" y="364.9336">&#169; 2026 JUSTICA Legal Platform &#8226; Verifikasi ini bersifat publik tanpa menampilkan rahasia materi obrolan klien.</text><line style="stroke:#000000;stroke-width:1.0;" x1="5" x2="1143" y1="5" y2="5"/><line style="stroke:#000000;stroke-width:1.0;" x1="5" x2="1143" y1="369.5703" y2="369.5703"/><line style="stroke:#000000;stroke-width:1.0;" x1="5" x2="5" y1="5" y2="22.0938"/><line style="stroke:#000000;stroke-width:1.0;" x1="1143" x2="1143" y1="5" y2="22.0938"/><line style="stroke:#000000;stroke-width:1.0;" x1="5" x2="5" y1="342.4766" y2="350.4766"/><line style="stroke:#000000;stroke-width:1.0;" x1="1143" x2="1143" y1="342.4766" y2="350.4766"/><line style="stroke:#000000;stroke-width:1.0;" x1="5" x2="5" y1="183.9141" y2="191.9141"/><line style="stroke:#000000;stroke-width:1.0;" x1="1143" x2="1143" y1="183.9141" y2="191.9141"/><line style="stroke:#000000;stroke-width:1.0;" x1="5" x2="5" y1="69.5391" y2="77.5391"/><line style="stroke:#000000;stroke-width:1.0;" x1="1143" x2="1143" y1="69.5391" y2="77.5391"/><line style="stroke:#000000;stroke-width:1.0;" x1="5" x2="5" y1="22.0938" y2="30.0938"/><line style="stroke:#000000;stroke-width:1.0;" x1="1143" x2="1143" y1="22.0938" y2="30.0938"/><line style="stroke:#000000;stroke-width:1.0;" x1="5" x2="5" y1="350.4766" y2="369.5703"/><line style="stroke:#000000;stroke-width:1.0;" x1="1143" x2="1143" y1="350.4766" y2="369.5703"/><line style="stroke:#000000;stroke-width:1.0;" x1="5" x2="5" y1="191.9141" y2="342.4766"/><line style="stroke:#000000;stroke-width:1.0;" x1="1143" x2="1143" y1="191.9141" y2="342.4766"/><line style="stroke:#000000;stroke-width:1.0;" x1="5" x2="5" y1="77.5391" y2="183.9141"/><line style="stroke:#000000;stroke-width:1.0;" x1="1143" x2="1143" y1="77.5391" y2="183.9141"/><line style="stroke:#000000;stroke-width:1.0;" x1="5" x2="5" y1="30.0938" y2="69.5391"/><line style="stroke:#000000;stroke-width:1.0;" x1="1143" x2="1143" y1="30.0938" y2="69.5391"/><!--SRC=[XLJDRk984Bxp5AMCj8Biu1X2s0nAHjF49ZZ6ODacSuXoA4C3BVo3x3QQKOYKXzZ3dEUsBx67VPGyoLOx_CtCIdlmJxjTLT_tzLVrAPUOoHmZMNdwlGBmT0fNuSUxiHzOD-pgBFm8TN3JJ684zpmJCx74N82HBekO9z0lw0aRU80hi7aSOYHWoQ7BCqoc28_brkkt5pYZ-z-qVgOIzRggGnV0zVKrt9kUrRDivbjW3GFprhC2veCniiUEEOJ-c9xm6_2wOmQcnopm-wpUl6YNyISkOLhcI4KnZmGcCAMB5c6E2xNQubnnWhD22OiISFLqmEV4QBGIYKYJqngWn0AMQI8pN4B8iphLuv9e2FYAoHocWXQXa4jA6lC8eqB0Aa8vIxCOxefSYWbg9uJf9uAafSFyiMsp8TWZmpncUmPzvlTtV7QCbUPbQ9a5O9Z6QGO-yTohJe6OB_Q16pZXbxCFg4-QOMlQfdSTcvCMRyykKG-RqzRaVx-TbAMO4c6SpEUuK4T89mskqGD6oghjyZ1T4Od57edQhZhu1Hgwqwr1aSXY2Uk3JrAPnYX5hcaQF1wpUYYbSKaCssTWcymVM2JHxjHzqsOU6zwM1YmZVzMLnBC6u9hEMnAA_W_xL3tJTopo3tdd87tjPv6VtfMFDr2OOQpE_iZm9OwDsXsAY3mHy8oiCwMt5PBF3R9FY3c7poFFsTdX4EDBb4LE3K8EBCYM- -e0-wsjVSl_T-2LAF3wyYS4bi5iO0OZkjwuo_gAB3cegaFN2i0P6KJCD6hRaWygoJqRK5HW6ZkVb9kFsxekJqe_avVOT9qkgJKsO6GQEBYWNiaGx28lOdmFljRNteD3TwZwbkig2Comu5tZildXlBOhnupxaSq2w9hUmFBD8Q5ps0yb0rJEYi0uQgKDw4tIY_pLr9ljackZrJdNEuqcVBQwk-IUUJFo3A8o6fOI_v1tA-6XOJT7xpGV2keSZ-SntLSDNTDr7Qg7fkgGTOd7PUkFY_QUZ5BPiu2v5fGo7jLx_jMB__prXduxDE5jjhYxwV3wylruTDB4KGCc5pFIV5M4aLY2n6I5D5SIZ5SYKi9aDBvoGTzGgivFmooDr6IB14-q4i9pvHCTL3cuArGhaMDde5elfu463OqGjRJpQe-2Upo4HfkKxhJqZdvH2gksQvNghJjODo5FYsp2QSRbCXDX8Ib3hNA7QmIFEbh4l4EJaYTtXhtx06Qo5bcQ46HPkRjt3Z-qM_KksOgaNQiESYe6ds4HIOgOf5EHp3im3dhroyg0x53Wd7Bpf7AJKjxiA-tv_m80]--></g></svg>